Reiner_Script-Bold.ufo
<glyph name="exclam" format="1">
  <advance width="122"/>
  <unicode hex="0021"/>
  <outline>
    <contour>
      <point x="164" y="516" type="line"/>
      <point x="115" y="415"/>
      <point x="68" y="290"/>
      <point x="58" y="169" type="curve"/>
      <point x="29" y="163" type="line"/>
      <point x="31" y="255"/>
      <point x="55" y="379"/>
      <point x="96" y="509" type="curve"/>
    </contour>
    <contour>
      <point x="110" y="76" type="line"/>
      <point x="100" y="51"/>
      <point x="92" y="19"/>
      <point x="89" y="-8" type="curve"/>
      <point x="52" y="-12"/>
      <point x="17" y="-3"/>
      <point x="17" y="22" type="curve" smooth="yes"/>
      <point x="17" y="42"/>
      <point x="27" y="60"/>
      <point x="38" y="72" type="curve"/>
    </contour>
  </outline>
</glyph>
<glyph name="quotedbl" format="1">
  <advance width="196"/>
  <unicode hex="0022"/>
  <outline>
    <contour>
      <point x="187" y="558" type="line"/>
      <point x="179" y="512"/>
      <point x="172" y="464"/>
      <point x="169" y="418" type="curve"/>
      <point x="138" y="411" type="line"/>
      <point x="138" y="452"/>
      <point x="137" y="512"/>
      <point x="135" y="548" type="curve"/>
    </contour>
    <contour>
      <point x="94" y="558" type="line"/>
      <point x="86" y="512"/>
      <point x="79" y="464"/>
      <point x="76" y="418" type="curve"/>
      <point x="45" y="411" type="line"/>
      <point x="45" y="452"/>
      <point x="44" y="512"/>
      <point x="42" y="548" type="curve"/>
    </contour>
  </outline>
</glyph>
<glyph name="numbersign" format="1">
  <advance width="383"/>
  <unicode hex="0023"/>
  <outline>
    <contour>
      <point x="365" y="276" type="curve"/>
      <point x="360" y="211" type="line"/>
      <point x="333" y="211"/>
      <point x="302" y="211"/>
      <point x="271" y="210" type="curve"/>
      <point x="268" y="189"/>
      <point x="265" y="168"/>
      <point x="262" y="148" type="curve"/>
      <point x="291" y="148"/>
      <point x="318" y="149"/>
      <point x="342" y="150" type="curve"/>
      <point x="340" y="95" type="line"/>
      <point x="323" y="92"/>
      <point x="291" y="88"/>
      <point x="254" y="85" type="curve"/>
      <point x="249" y="45"/>
      <point x="246" y="8"/>
      <point x="245" y="-20" type="curve"/>
      <point x="218" y="-15" type="line"/>
      <point x="220" y="17"/>
      <point x="223" y="50"/>
      <point x="227" y="83" type="curve"/>
      <point x="190" y="80"/>
      <point x="150" y="77"/>
      <point x="116" y="75" type="curve"/>
      <point x="110" y="44"/>
      <point x="106" y="16"/>
      <point x="104" y="-4" type="curve"/>
      <point x="76" y="-7" type="line"/>
      <point x="78" y="13"/>
      <point x="83" y="41"/>
      <point x="89" y="73" type="curve"/>
      <point x="56" y="72"/>
      <point x="34" y="71"/>
      <point x="28" y="70" type="curve"/>
      <point x="23" y="132" type="line"/>
      <point x="41" y="135"/>
      <point x="69" y="137"/>
      <point x="101" y="140" type="curve"/>
      <point x="105" y="160"/>
      <point x="109" y="182"/>
      <point x="114" y="203" type="curve"/>
      <point x="85" y="201"/>
      <point x="58" y="198"/>
      <point x="34" y="195" type="curve"/>
      <point x="39" y="252" type="line"/>
      <point x="62" y="257"/>
      <point x="94" y="261"/>
      <point x="129" y="264" type="curve"/>
      <point x="142" y="321"/>
      <point x="157" y="375"/>
      <point x="171" y="415" type="curve"/>
      <point x="198" y="410" type="line"/>
      <point x="184" y="371"/>
      <point x="170" y="320"/>
      <point x="157" y="267" type="curve"/>
      <point x="189" y="270"/>
      <point x="222" y="272"/>
      <point x="254" y="273" type="curve"/>
      <point x="262" y="318"/>
      <point x="270" y="358"/>
      <point x="277" y="390" type="curve"/>
      <point x="306" y="392" type="line"/>
      <point x="298" y="356"/>
      <point x="290" y="316"/>
      <point x="282" y="274" type="curve"/>
      <point x="315" y="275"/>
      <point x="344" y="276"/>
    </contour>
    <contour>
      <point x="243" y="209" type="curve"/>
      <point x="210" y="208"/>
      <point x="175" y="207"/>
      <point x="142" y="205" type="curve"/>
      <point x="137" y="184"/>
      <point x="133" y="162"/>
      <point x="128" y="142" type="curve"/>
      <point x="162" y="144"/>
      <point x="198" y="146"/>
      <point x="234" y="147" type="curve"/>
      <point x="237" y="168"/>
      <point x="240" y="189"/>
    </contour>
  </outline>
</glyph>
<glyph name="dollar" format="1">
  <advance width="300"/>
  <unicode hex="0024"/>
  <outline>
    <contour>
      <point x="288" y="518" type="curve" smooth="yes"/>
      <point x="288" y="496"/>
      <point x="284" y="473"/>
      <point x="280" y="455" type="curve"/>
      <point x="228" y="427" type="line"/>
      <point x="228" y="467"/>
      <point x="221" y="492"/>
      <point x="203" y="506" type="curve"/>
      <point x="173" y="243" type="line"/>
      <point x="219" y="175"/>
      <point x="268" y="104"/>
      <point x="268" y="48" type="curve" smooth="yes"/>
      <point x="268" y="3"/>
      <point x="255" y="-32"/>
      <point x="234" y="-59" type="curve" smooth="yes"/>
      <point x="171" y="-141" type="line"/>
      <point x="157" y="-139"/>
      <point x="143" y="-137"/>
      <point x="131" y="-135" type="curve"/>
      <point x="125" y="-187" type="line"/>
      <point x="100" y="-186" type="line"/>
      <point x="106" y="-130" type="line"/>
      <point x="36" y="-112"/>
      <point x="-1" y="-79"/>
      <point x="-1" y="-22" type="curve" smooth="yes"/>
      <point x="-1" y="21"/>
      <point x="19" y="73"/>
      <point x="43" y="116" type="curve"/>
      <point x="76" y="121" type="line"/>
      <point x="56" y="77"/>
      <point x="43" y="40"/>
      <point x="43" y="10" type="curve" smooth="yes"/>
      <point x="43" y="-14"/>
      <point x="53" y="-24"/>
      <point x="77" y="-30" type="curve" smooth="yes"/>
      <point x="77" y="-30"/>
      <point x="117" y="-39"/>
      <point x="116" y="-39" type="curve"/>
      <point x="140" y="166" type="line"/>
      <point x="96" y="232"/>
      <point x="51" y="301"/>
      <point x="51" y="362" type="curve" smooth="yes"/>
      <point x="51" y="411"/>
      <point x="81" y="483"/>
      <point x="112" y="539" type="curve"/>
      <point x="186" y="573" type="line"/>
      <point x="191" y="613" type="line"/>
      <point x="215" y="612" type="line"/>
      <point x="211" y="577" type="line"/>
      <point x="248" y="567" type="line" smooth="yes"/>
      <point x="277" y="559"/>
      <point x="288" y="543"/>
    </contour>
    <contour>
      <point x="180" y="518" type="line"/>
      <point x="167" y="522"/>
      <point x="151" y="524"/>
      <point x="132" y="524" type="curve"/>
      <point x="107" y="475"/>
      <point x="96" y="445"/>
      <point x="96" y="408" type="curve" smooth="yes"/>
      <point x="96" y="370"/>
      <point x="121" y="324"/>
      <point x="152" y="275" type="curve"/>
    </contour>
    <contour>
      <point x="225" y="-6" type="curve" smooth="yes"/>
      <point x="225" y="34"/>
      <point x="196" y="83"/>
      <point x="161" y="135" type="curve"/>
      <point x="141" y="-44" type="line"/>
      <point x="202" y="-58" type="line"/>
      <point x="217" y="-42"/>
      <point x="225" y="-31"/>
    </contour>
  </outline>
</glyph>
<glyph name="ampersand" format="1">
  <advance width="289"/>
  <unicode hex="0026"/>
  <outline>
    <contour>
      <point x="297" y="254" type="line"/>
      <point x="278" y="257"/>
      <point x="239" y="258"/>
      <point x="209" y="258" type="curve" smooth="yes"/>
      <point x="201" y="258"/>
      <point x="194" y="258"/>
      <point x="187" y="257" type="curve"/>
      <point x="172" y="206"/>
      <point x="164" y="153"/>
      <point x="164" y="105" type="curve" smooth="yes"/>
      <point x="164" y="75"/>
      <point x="165" y="51"/>
      <point x="166" y="30" type="curve"/>
      <point x="117" y="-11" type="line"/>
      <point x="89" y="26" type="line"/>
      <point x="95" y="52"/>
      <point x="104" y="90"/>
      <point x="116" y="130" type="curve"/>
      <point x="93" y="170"/>
      <point x="54" y="203"/>
      <point x="3" y="214" type="curve"/>
      <point x="20" y="279" type="line"/>
      <point x="64" y="295"/>
      <point x="120" y="305"/>
      <point x="176" y="308" type="curve"/>
      <point x="188" y="339"/>
      <point x="201" y="366"/>
      <point x="212" y="385" type="curve"/>
      <point x="233" y="376" type="line"/>
      <point x="222" y="355"/>
      <point x="212" y="332"/>
      <point x="203" y="309" type="curve"/>
      <point x="207" y="309"/>
      <point x="211" y="309"/>
      <point x="215" y="309" type="curve" smooth="yes"/>
      <point x="232" y="309"/>
      <point x="262" y="308"/>
      <point x="279" y="306" type="curve"/>
    </contour>
    <contour>
      <point x="157" y="256" type="curve"/>
      <point x="114" y="251"/>
      <point x="76" y="242"/>
      <point x="53" y="231" type="curve"/>
      <point x="80" y="216"/>
      <point x="108" y="189"/>
      <point x="126" y="163" type="curve"/>
      <point x="135" y="194"/>
      <point x="146" y="226"/>
    </contour>
  </outline>
</glyph>
<glyph name="quotesingle" format="1">
  <advance width="103"/>
  <unicode hex="0027"/>
  <outline>
    <contour>
      <point x="94" y="558" type="line"/>
      <point x="86" y="512"/>
      <point x="79" y="464"/>
      <point x="76" y="418" type="curve"/>
      <point x="45" y="411" type="line"/>
      <point x="45" y="452"/>
      <point x="44" y="512"/>
      <point x="42" y="548" type="curve"/>
    </contour>
  </outline>
</glyph>
<glyph name="parenleft" format="1">
  <advance width="120"/>
  <unicode hex="0028"/>
  <outline>
    <contour>
      <point x="216" y="454" type="line"/>
      <point x="110" y="316"/>
      <point x="66" y="151"/>
      <point x="66" y="-50" type="curve" smooth="yes"/>
      <point x="66" y="-62"/>
      <point x="66" y="-73"/>
      <point x="66" y="-85" type="curve"/>
      <point x="37" y="-88" type="line"/>
      <point x="36" y="-64"/>
      <point x="36" y="-40"/>
      <point x="36" y="-18" type="curve" smooth="yes"/>
      <point x="36" y="193"/>
      <point x="70" y="318"/>
      <point x="168" y="474" type="curve"/>
    </contour>
  </outline>
</glyph>
<glyph name="parenright" format="1">
  <advance width="120"/>
  <unicode hex="0029"/>
  <outline>
    <contour>
      <point x="127" y="394" type="curve" smooth="yes"/>
      <point x="127" y="183"/>
      <point x="93" y="58"/>
      <point x="-5" y="-98" type="curve"/>
      <point x="-53" y="-78" type="line"/>
      <point x="53" y="60"/>
      <point x="97" y="225"/>
      <point x="97" y="426" type="curve" smooth="yes"/>
      <point x="97" y="438"/>
      <point x="97" y="449"/>
      <point x="97" y="461" type="curve"/>
      <point x="126" y="464" type="line"/>
      <point x="127" y="440"/>
      <point x="127" y="416"/>
    </contour>
  </outline>
</glyph>
<glyph name="asterisk" format="1">
  <advance width="172"/>
  <unicode hex="002A"/>
  <outline>
    <contour>
      <point x="173" y="494" type="line"/>
      <point x="155" y="479"/>
      <point x="130" y="463"/>
      <point x="103" y="449" type="curve"/>
      <point x="125" y="434"/>
      <point x="145" y="421"/>
      <point x="159" y="414" type="curve"/>
      <point x="159" y="396" type="line"/>
      <point x="142" y="404"/>
      <point x="120" y="416"/>
      <point x="96" y="430" type="curve"/>
      <point x="92" y="397"/>
      <point x="87" y="368"/>
      <point x="84" y="356" type="curve"/>
      <point x="67" y="347" type="line"/>
      <point x="70" y="372"/>
      <point x="73" y="403"/>
      <point x="75" y="435" type="curve"/>
      <point x="53" y="425"/>
      <point x="33" y="416"/>
      <point x="16" y="410" type="curve"/>
      <point x="1" y="429" type="line"/>
      <point x="22" y="435"/>
      <point x="42" y="443"/>
      <point x="62" y="452" type="curve"/>
      <point x="40" y="466"/>
      <point x="19" y="482"/>
      <point x="2" y="498" type="curve"/>
      <point x="9" y="525" type="line"/>
      <point x="28" y="506"/>
      <point x="52" y="487"/>
      <point x="76" y="469" type="curve"/>
      <point x="77" y="497"/>
      <point x="78" y="524"/>
      <point x="78" y="547" type="curve"/>
      <point x="104" y="554" type="line"/>
      <point x="104" y="529"/>
      <point x="102" y="499"/>
      <point x="99" y="470" type="curve"/>
      <point x="122" y="481"/>
      <point x="142" y="493"/>
      <point x="159" y="505" type="curve"/>
    </contour>
  </outline>
</glyph>
<glyph name="plus" format="1">
  <advance width="241"/>
  <unicode hex="002B"/>
  <outline>
    <contour>
      <point x="228" y="168" type="line"/>
      <point x="220" y="119" type="line"/>
      <point x="131" y="119" type="line"/>
      <point x="126" y="45" type="line"/>
      <point x="98" y="11" type="line"/>
      <point x="101" y="119" type="line"/>
      <point x="7" y="119" type="line"/>
      <point x="21" y="168" type="line"/>
      <point x="102" y="168" type="line"/>
      <point x="104" y="249" type="line"/>
      <point x="143" y="266" type="line"/>
      <point x="135" y="168" type="line"/>
    </contour>
  </outline>
</glyph>
<glyph name="comma" format="1">
  <advance width="113"/>
  <unicode hex="002C"/>
  <outline>
    <contour>
      <point x="104" y="54" type="line"/>
      <point x="75" y="10"/>
      <point x="37" y="-65"/>
      <point x="22" y="-106" type="curve"/>
      <point x="-19" y="-100" type="line"/>
      <point x="-8" y="-65"/>
      <point x="28" y="17"/>
      <point x="48" y="57" type="curve"/>
    </contour>
  </outline>
</glyph>
<glyph name="period" format="1">
  <advance width="126"/>
  <unicode hex="002E"/>
  <outline>
    <contour>
      <point x="118" y="72" type="line"/>
      <point x="106" y="48"/>
      <point x="97" y="18"/>
      <point x="94" y="-8" type="curve"/>
      <point x="63" y="-6"/>
      <point x="25" y="4"/>
      <point x="25" y="32" type="curve" smooth="yes"/>
      <point x="25" y="48"/>
      <point x="32" y="61"/>
      <point x="43" y="72" type="curve"/>
    </contour>
  </outline>
</glyph>
<glyph name="slash" format="1">
  <advance width="187"/>
  <unicode hex="002F"/>
  <outline>
    <contour>
      <point x="303" y="560" type="line"/>
      <point x="59" y="-9" type="line"/>
      <point x="15" y="-18" type="line"/>
      <point x="170" y="360" type="line" smooth="yes"/>
      <point x="195" y="422"/>
      <point x="224" y="506"/>
      <point x="235" y="544" type="curve"/>
    </contour>
  </outline>
</glyph>
<glyph name="zero" format="1">
  <advance width="343"/>
  <unicode hex="0030"/>
  <outline>
    <contour>
      <point x="324" y="194" type="curve" smooth="yes"/>
      <point x="324" y="111"/>
      <point x="258" y="18"/>
      <point x="163" y="-13" type="curve"/>
      <point x="93" y="10"/>
      <point x="19" y="50"/>
      <point x="19" y="133" type="curve" smooth="yes"/>
      <point x="19" y="193"/>
      <point x="59" y="249"/>
      <point x="105" y="295" type="curve"/>
      <point x="128" y="284" type="line"/>
      <point x="102" y="246"/>
      <point x="94" y="216"/>
      <point x="94" y="167" type="curve" smooth="yes"/>
      <point x="94" y="90"/>
      <point x="143" y="59"/>
      <point x="207" y="36" type="curve"/>
      <point x="242" y="64"/>
      <point x="258" y="96"/>
      <point x="258" y="152" type="curve" smooth="yes"/>
      <point x="258" y="227"/>
      <point x="212" y="265"/>
      <point x="136" y="292" type="curve"/>
      <point x="182" y="346" type="line"/>
      <point x="262" y="321"/>
      <point x="324" y="277"/>
    </contour>
  </outline>
</glyph>
<glyph name="one" format="1">
  <advance width="198"/>
  <unicode hex="0031"/>
  <outline>
    <contour>
      <point x="181" y="377" type="line"/>
      <point x="167" y="305"/>
      <point x="148" y="164"/>
      <point x="135" y="24" type="curve"/>
      <point x="73" y="-14" type="line"/>
      <point x="93" y="285" type="line"/>
      <point x="27" y="230" type="line"/>
      <point x="8" y="251" type="line"/>
      <point x="53" y="289" type="line" smooth="yes"/>
      <point x="86" y="317"/>
      <point x="97" y="343"/>
      <point x="102" y="366" type="curve"/>
    </contour>
  </outline>
</glyph>
<glyph name="two" format="1">
  <advance width="254"/>
  <unicode hex="0032"/>
  <outline>
    <contour>
      <point x="247" y="35" type="line"/>
      <point x="235" y="29"/>
      <point x="226" y="24"/>
      <point x="217" y="19" type="curve" smooth="yes"/>
      <point x="196" y="7"/>
      <point x="172" y="-8"/>
      <point x="153" y="-8" type="curve" smooth="yes"/>
      <point x="133" y="-8"/>
      <point x="103" y="1"/>
      <point x="82" y="8" type="curve" smooth="yes"/>
      <point x="63" y="15"/>
      <point x="43" y="21"/>
      <point x="21" y="20" type="curve"/>
      <point x="21" y="35" type="line"/>
      <point x="82" y="82"/>
      <point x="157" y="163"/>
      <point x="157" y="242" type="curve" smooth="yes"/>
      <point x="157" y="276"/>
      <point x="140" y="305"/>
      <point x="115" y="305" type="curve" smooth="yes"/>
      <point x="89" y="305"/>
      <point x="76" y="288"/>
      <point x="76" y="255" type="curve" smooth="yes"/>
      <point x="76" y="247"/>
      <point x="78" y="235"/>
      <point x="80" y="229" type="curve"/>
      <point x="16" y="204" type="line"/>
      <point x="10" y="238"/>
      <point x="20" y="275"/>
      <point x="68" y="308" type="curve" smooth="yes"/>
      <point x="142" y="359" type="line"/>
      <point x="185" y="345"/>
      <point x="230" y="316"/>
      <point x="230" y="269" type="curve" smooth="yes"/>
      <point x="230" y="201"/>
      <point x="169" y="133"/>
      <point x="103" y="71" type="curve"/>
      <point x="112" y="68"/>
      <point x="121" y="65"/>
      <point x="132" y="62" type="curve" smooth="yes"/>
      <point x="152" y="56"/>
      <point x="178" y="50"/>
      <point x="189" y="50" type="curve" smooth="yes"/>
      <point x="208" y="50"/>
      <point x="224" y="52"/>
      <point x="238" y="58" type="curve"/>
    </contour>
  </outline>
</glyph>
<glyph name="three" format="1">
  <advance width="243"/>
  <unicode hex="0033"/>
  <outline>
    <contour>
      <point x="214" y="149" type="curve" smooth="yes"/>
      <point x="214" y="59"/>
      <point x="136" y="10"/>
      <point x="34" y="-18" type="curve"/>
      <point x="24" y="3" type="line"/>
      <point x="118" y="39"/>
      <point x="141" y="71"/>
      <point x="141" y="135" type="curve" smooth="yes"/>
      <point x="141" y="160"/>
      <point x="138" y="170"/>
      <point x="132" y="180" type="curve"/>
      <point x="30" y="180" type="line"/>
      <point x="82" y="221"/>
      <point x="120" y="272"/>
      <point x="128" y="312" type="curve"/>
      <point x="15" y="319" type="line"/>
      <point x="44" y="376" type="line"/>
      <point x="199" y="367" type="line"/>
      <point x="191" y="306"/>
      <point x="156" y="260"/>
      <point x="115" y="228" type="curve"/>
      <point x="192" y="228" type="line"/>
      <point x="205" y="210"/>
      <point x="214" y="190"/>
    </contour>
  </outline>
</glyph>
<glyph name="four" format="1">
  <advance width="325"/>
  <unicode hex="0034"/>
  <outline>
    <contour>
      <point x="305" y="167" type="line"/>
      <point x="267" y="127" type="line"/>
      <point x="261" y="84"/>
      <point x="255" y="45"/>
      <point x="246" y="3" type="curve"/>
      <point x="192" y="-26" type="line"/>
      <point x="197" y="17"/>
      <point x="201" y="70"/>
      <point x="203" y="120" type="curve"/>
      <point x="143" y="115"/>
      <point x="67" y="116"/>
      <point x="-1" y="124" type="curve"/>
      <point x="61" y="195"/>
      <point x="130" y="271"/>
      <point x="207" y="347" type="curve"/>
      <point x="277" y="358" type="line"/>
      <point x="202" y="292"/>
      <point x="135" y="224"/>
      <point x="83" y="166" type="curve"/>
      <point x="119" y="162"/>
      <point x="160" y="162"/>
      <point x="205" y="164" type="curve"/>
      <point x="207" y="198"/>
      <point x="208" y="229"/>
      <point x="209" y="251" type="curve"/>
      <point x="279" y="289" type="line"/>
      <point x="279" y="247"/>
      <point x="277" y="206"/>
      <point x="272" y="166" type="curve"/>
    </contour>
  </outline>
</glyph>
<glyph name="five" format="1">
  <advance width="247"/>
  <unicode hex="0035"/>
  <outline>
    <contour>
      <point x="259" y="361" type="curve"/>
      <point x="207" y="306" type="line"/>
      <point x="188" y="300"/>
      <point x="160" y="297"/>
      <point x="135" y="297" type="curve" smooth="yes"/>
      <point x="118" y="297"/>
      <point x="99" y="299"/>
      <point x="85" y="302" type="curve"/>
      <point x="70" y="245" type="line"/>
      <point x="151" y="241"/>
      <point x="211" y="212"/>
      <point x="211" y="142" type="curve" smooth="yes"/>
      <point x="211" y="37"/>
      <point x="114" y="-12"/>
      <point x="25" y="-42" type="curve"/>
      <point x="10" y="-14" type="line"/>
      <point x="84" y="17"/>
      <point x="129" y="52"/>
      <point x="129" y="127" type="curve" smooth="yes"/>
      <point x="129" y="175"/>
      <point x="108" y="207"/>
      <point x="42" y="215" type="curve"/>
      <point x="48" y="364" type="line"/>
      <point x="71" y="359"/>
      <point x="108" y="356"/>
      <point x="134" y="356" type="curve" smooth="yes"/>
      <point x="175" y="356"/>
      <point x="219" y="357"/>
    </contour>
  </outline>
</glyph>
<glyph name="six" format="1">
  <advance width="287"/>
  <unicode hex="0036"/>
  <outline>
    <contour>
      <point x="270" y="100" type="curve" smooth="yes"/>
      <point x="270" y="42"/>
      <point x="216" y="-14"/>
      <point x="159" y="-14" type="curve" smooth="yes"/>
      <point x="83" y="-14"/>
      <point x="18" y="37"/>
      <point x="18" y="109" type="curve" smooth="yes"/>
      <point x="18" y="205"/>
      <point x="108" y="315"/>
      <point x="178" y="365" type="curve"/>
      <point x="187" y="363" type="line"/>
      <point x="182" y="300" type="line"/>
      <point x="102" y="273"/>
      <point x="70" y="213"/>
      <point x="70" y="148" type="curve" smooth="yes"/>
      <point x="70" y="145"/>
      <point x="70" y="140"/>
      <point x="70" y="140" type="curve"/>
      <point x="116" y="192" type="line"/>
      <point x="132" y="196"/>
      <point x="146" y="198"/>
      <point x="172" y="198" type="curve" smooth="yes"/>
      <point x="224" y="198"/>
      <point x="270" y="167"/>
    </contour>
    <contour>
      <point x="237" y="75" type="curve" smooth="yes"/>
      <point x="237" y="110"/>
      <point x="214" y="141"/>
      <point x="149" y="141" type="curve" smooth="yes"/>
      <point x="116" y="141"/>
      <point x="92" y="136"/>
      <point x="73" y="121" type="curve"/>
      <point x="86" y="68"/>
      <point x="134" y="38"/>
      <point x="180" y="38" type="curve" smooth="yes"/>
      <point x="224" y="38"/>
      <point x="237" y="51"/>
    </contour>
  </outline>
</glyph>
<glyph name="seven" format="1">
  <advance width="283"/>
  <unicode hex="0037"/>
  <outline>
    <contour>
      <point x="297" y="348" type="curve"/>
      <point x="258" y="266" type="line"/>
      <point x="195" y="209"/>
      <point x="112" y="75"/>
      <point x="74" y="-31" type="curve"/>
      <point x="12" y="-47" type="line"/>
      <point x="191" y="244" type="line"/>
      <point x="216" y="305" type="line"/>
      <point x="205" y="301"/>
      <point x="157" y="293"/>
      <point x="127" y="293" type="curve" smooth="yes"/>
      <point x="26" y="293" type="line"/>
      <point x="74" y="359" type="line"/>
      <point x="121" y="350"/>
      <point x="223" y="348"/>
    </contour>
  </outline>
</glyph>
<glyph name="eight" format="1">
  <advance width="267"/>
  <unicode hex="0038"/>
  <outline>
    <contour>
      <point x="244" y="288" type="curve" smooth="yes"/>
      <point x="244" y="244"/>
      <point x="218" y="219"/>
      <point x="173" y="188" type="curve"/>
      <point x="181" y="183" type="line" smooth="yes"/>
      <point x="217" y="161"/>
      <point x="239" y="140"/>
      <point x="239" y="99" type="curve" smooth="yes"/>
      <point x="239" y="41"/>
      <point x="180" y="-15"/>
      <point x="102" y="-15" type="curve" smooth="yes"/>
      <point x="55" y="-15"/>
      <point x="14" y="8"/>
      <point x="14" y="55" type="curve" smooth="yes"/>
      <point x="14" y="98"/>
      <point x="41" y="128"/>
      <point x="96" y="166" type="curve"/>
      <point x="78" y="179" type="line" smooth="yes"/>
      <point x="57" y="194"/>
      <point x="39" y="215"/>
      <point x="39" y="247" type="curve" smooth="yes"/>
      <point x="39" y="306"/>
      <point x="108" y="358"/>
      <point x="169" y="358" type="curve" smooth="yes"/>
      <point x="222" y="358"/>
      <point x="244" y="327"/>
    </contour>
    <contour>
      <point x="184" y="265" type="curve" smooth="yes"/>
      <point x="184" y="301"/>
      <point x="157" y="318"/>
      <point x="106" y="318" type="curve"/>
      <point x="96" y="304"/>
      <point x="93" y="291"/>
      <point x="93" y="273" type="curve" smooth="yes"/>
      <point x="93" y="240"/>
      <point x="116" y="227"/>
      <point x="143" y="208" type="curve" smooth="yes"/>
      <point x="150" y="203" type="line"/>
      <point x="170" y="221"/>
      <point x="184" y="242"/>
    </contour>
    <contour>
      <point x="173" y="76" type="curve" smooth="yes"/>
      <point x="173" y="97"/>
      <point x="165" y="116"/>
      <point x="136" y="137" type="curve" smooth="yes"/>
      <point x="118" y="150" type="line"/>
      <point x="92" y="129"/>
      <point x="78" y="111"/>
      <point x="68" y="94" type="curve"/>
      <point x="68" y="45"/>
      <point x="101" y="22"/>
      <point x="136" y="22" type="curve" smooth="yes"/>
      <point x="145" y="22"/>
      <point x="154" y="23"/>
      <point x="163" y="27" type="curve"/>
      <point x="168" y="38"/>
      <point x="173" y="59"/>
    </contour>
  </outline>
</glyph>
<glyph name="nine" format="1">
  <advance width="302"/>
  <unicode hex="0039"/>
  <outline>
    <contour>
      <point x="284" y="331" type="line"/>
      <point x="247" y="151" type="line"/>
      <point x="196" y="-20" type="line"/>
      <point x="136" y="-52" type="line"/>
      <point x="176" y="107" type="line"/>
      <point x="191" y="230" type="line"/>
      <point x="163" y="208"/>
      <point x="137" y="195"/>
      <point x="105" y="195" type="curve" smooth="yes"/>
      <point x="57" y="195"/>
      <point x="18" y="218"/>
      <point x="18" y="260" type="curve" smooth="yes"/>
      <point x="18" y="321"/>
      <point x="83" y="363"/>
      <point x="141" y="363" type="curve" smooth="yes"/>
      <point x="184" y="363"/>
      <point x="218" y="346"/>
      <point x="243" y="321" type="curve"/>
    </contour>
    <contour>
      <point x="202" y="268" type="curve"/>
      <point x="202" y="282" type="line"/>
      <point x="196" y="297"/>
      <point x="185" y="310"/>
      <point x="178" y="315" type="curve" smooth="yes"/>
      <point x="162" y="327"/>
      <point x="146" y="335"/>
      <point x="113" y="337" type="curve"/>
      <point x="94" y="321"/>
      <point x="86" y="302"/>
      <point x="86" y="278" type="curve" smooth="yes"/>
      <point x="86" y="245"/>
      <point x="106" y="230"/>
      <point x="129" y="230" type="curve" smooth="yes"/>
      <point x="154" y="230"/>
      <point x="185" y="249"/>
    </contour>
  </outline>
</glyph>
<glyph name="colon" format="1">
  <advance width="146"/>
  <unicode hex="003A"/>
  <outline>
    <contour>
      <point x="141" y="232" type="line"/>
      <point x="129" y="208"/>
      <point x="118" y="183"/>
      <point x="115" y="158" type="curve"/>
      <point x="85" y="158"/>
      <point x="45" y="164"/>
      <point x="45" y="196" type="curve" smooth="yes"/>
      <point x="45" y="216"/>
      <point x="61" y="231"/>
      <point x="73" y="240" type="curve"/>
    </contour>
    <contour>
      <point x="119" y="68" type="line"/>
      <point x="107" y="44"/>
      <point x="97" y="17"/>
      <point x="94" y="-8" type="curve"/>
      <point x="64" y="-8"/>
      <point x="24" y="-2"/>
      <point x="24" y="25" type="curve" smooth="yes"/>
      <point x="24" y="44"/>
      <point x="39" y="64"/>
      <point x="51" y="73" type="curve"/>
    </contour>
  </outline>
</glyph>
<glyph name="semicolon" format="1">
  <advance width="136"/>
  <unicode hex="003B"/>
  <outline>
    <contour>
      <point x="133" y="200" type="line"/>
      <point x="121" y="176"/>
      <point x="105" y="145"/>
      <point x="102" y="120" type="curve"/>
      <point x="57" y="128"/>
      <point x="37" y="132"/>
      <point x="37" y="159" type="curve" smooth="yes"/>
      <point x="37" y="178"/>
      <point x="59" y="198"/>
      <point x="72" y="205" type="curve"/>
    </contour>
    <contour>
      <point x="88" y="55" type="line"/>
      <point x="61" y="11"/>
      <point x="27" y="-53"/>
      <point x="12" y="-94" type="curve"/>
      <point x="-21" y="-85" type="line"/>
      <point x="-10" y="-50"/>
      <point x="16" y="13"/>
      <point x="35" y="52" type="curve"/>
    </contour>
  </outline>
</glyph>
<glyph name="less" format="1">
  <advance width="213"/>
  <unicode hex="003C"/>
  <outline>
    <contour>
      <point x="177" y="23" type="line"/>
      <point x="155" y="6" type="line"/>
      <point x="24" y="150" type="line"/>
      <point x="155" y="284" type="line"/>
      <point x="176" y="269" type="line"/>
      <point x="93" y="168" type="line"/>
    </contour>
  </outline>
</glyph>
<glyph name="equal" format="1">
  <advance width="220"/>
  <unicode hex="003D"/>
  <outline>
    <contour>
      <point x="197" y="169" type="line"/>
      <point x="24" y="164" type="line"/>
      <point x="21" y="200" type="line"/>
      <point x="193" y="206" type="line"/>
    </contour>
    <contour>
      <point x="197" y="81" type="line"/>
      <point x="24" y="86" type="line"/>
      <point x="21" y="122" type="line"/>
      <point x="193" y="118" type="line"/>
    </contour>
  </outline>
</glyph>
<glyph name="greater" format="1">
  <advance width="213"/>
  <unicode hex="003E"/>
  <outline>
    <contour>
      <point x="189" y="140" type="line"/>
      <point x="58" y="6" type="line"/>
      <point x="37" y="21" type="line"/>
      <point x="120" y="122" type="line"/>
      <point x="36" y="267" type="line"/>
      <point x="58" y="284" type="line"/>
    </contour>
  </outline>
</glyph>
<glyph name="question" format="1">
  <advance width="203"/>
  <unicode hex="003F"/>
  <outline>
    <contour>
      <point x="197" y="265" type="curve" smooth="yes"/>
      <point x="197" y="231"/>
      <point x="178" y="211"/>
      <point x="117" y="174" type="curve" smooth="yes"/>
      <point x="34" y="123" type="line"/>
      <point x="24" y="144" type="line"/>
      <point x="95" y="193" type="line" smooth="yes"/>
      <point x="118" y="209"/>
      <point x="126" y="220"/>
      <point x="126" y="247" type="curve" smooth="yes"/>
      <point x="126" y="282"/>
      <point x="90" y="309"/>
      <point x="24" y="323" type="curve"/>
      <point x="20" y="358" type="line"/>
      <point x="93" y="418" type="line"/>
      <point x="110" y="401" type="line"/>
      <point x="73" y="371" type="line"/>
      <point x="141" y="354"/>
      <point x="197" y="321"/>
    </contour>
    <contour>
      <point x="125" y="67" type="line"/>
      <point x="106" y="45"/>
      <point x="87" y="10"/>
      <point x="81" y="-13" type="curve"/>
      <point x="51" y="-2"/>
      <point x="26" y="6"/>
      <point x="26" y="35" type="curve" smooth="yes"/>
      <point x="26" y="51"/>
      <point x="39" y="66"/>
      <point x="50" y="77" type="curve"/>
    </contour>
  </outline>
</glyph>
<glyph name="at" format="1">
  <advance width="530"/>
  <unicode hex="0040"/>
  <outline>
    <contour>
      <point x="505" y="301" type="curve" smooth="yes"/>
      <point x="505" y="185"/>
      <point x="437" y="95"/>
      <point x="372" y="58" type="curve"/>
      <point x="323" y="69"/>
      <point x="284" y="100"/>
      <point x="275" y="150" type="curve"/>
      <point x="255" y="106"/>
      <point x="224" y="68"/>
      <point x="187" y="68" type="curve" smooth="yes"/>
      <point x="160" y="68"/>
      <point x="147" y="91"/>
      <point x="147" y="133" type="curve" smooth="yes"/>
      <point x="147" y="204"/>
      <point x="203" y="288"/>
      <point x="286" y="356" type="curve"/>
      <point x="332" y="343" type="line"/>
      <point x="325" y="308"/>
      <point x="323" y="230"/>
      <point x="323" y="201" type="curve" smooth="yes"/>
      <point x="323" y="133"/>
      <point x="336" y="107"/>
      <point x="382" y="91" type="curve"/>
      <point x="420" y="112"/>
      <point x="456" y="203"/>
      <point x="456" y="276" type="curve" smooth="yes"/>
      <point x="456" y="398"/>
      <point x="389" y="475"/>
      <point x="277" y="475" type="curve" smooth="yes"/>
      <point x="167" y="475"/>
      <point x="66" y="341"/>
      <point x="66" y="175" type="curve" smooth="yes"/>
      <point x="66" y="40"/>
      <point x="154" y="-27"/>
      <point x="204" y="-44" type="curve"/>
      <point x="296" y="-44" type="line"/>
      <point x="303" y="-60" type="line"/>
      <point x="189" y="-88" type="line"/>
      <point x="125" y="-66"/>
      <point x="26" y="2"/>
      <point x="26" y="152" type="curve" smooth="yes"/>
      <point x="26" y="340"/>
      <point x="152" y="506"/>
      <point x="297" y="506" type="curve" smooth="yes"/>
      <point x="405" y="506"/>
      <point x="505" y="438"/>
    </contour>
    <contour>
      <point x="280" y="314" type="curve"/>
      <point x="228" y="267"/>
      <point x="187" y="212"/>
      <point x="187" y="165" type="curve" smooth="yes"/>
      <point x="187" y="140"/>
      <point x="195" y="127"/>
      <point x="212" y="127" type="curve" smooth="yes"/>
      <point x="239" y="127"/>
      <point x="261" y="165"/>
      <point x="272" y="202" type="curve"/>
      <point x="272" y="231"/>
      <point x="274" y="276"/>
    </contour>
  </outline>
</glyph>
<glyph name="A" format="1">
  <advance width="551"/>
  <unicode hex="0041"/>
  <outline>
    <contour>
      <point x="561" y="-20" type="line"/>
      <point x="477" y="-133" type="line"/>
      <point x="434" y="-110" type="line"/>
      <point x="424" y="-27"/>
      <point x="410" y="91"/>
      <point x="402" y="175" type="curve"/>
      <point x="250" y="137" type="line"/>
      <point x="216" y="63"/>
      <point x="181" y="-2"/>
      <point x="124" y="-2" type="curve" smooth="yes"/>
      <point x="95" y="-2"/>
      <point x="66" y="19"/>
      <point x="46" y="62" type="curve" smooth="yes"/>
      <point x="0" y="159" type="line"/>
      <point x="19" y="231" type="line" smooth="yes"/>
      <point x="27" y="261"/>
      <point x="48" y="285"/>
      <point x="76" y="285" type="curve" smooth="yes"/>
      <point x="95" y="285"/>
      <point x="106" y="280"/>
      <point x="119" y="267" type="curve"/>
      <point x="124" y="216" type="line"/>
      <point x="114" y="219"/>
      <point x="103" y="222"/>
      <point x="91" y="222" type="curve" smooth="yes"/>
      <point x="54" y="222"/>
      <point x="38" y="215"/>
      <point x="25" y="178" type="curve"/>
      <point x="62" y="120" type="line" smooth="yes"/>
      <point x="79" y="93"/>
      <point x="101" y="81"/>
      <point x="136" y="81" type="curve" smooth="yes"/>
      <point x="182" y="81"/>
      <point x="202" y="103"/>
      <point x="239" y="192" type="curve" smooth="yes"/>
      <point x="280" y="290"/>
      <point x="349" y="479"/>
      <point x="381" y="618" type="curve"/>
      <point x="444" y="618" type="line"/>
      <point x="455" y="418"/>
      <point x="474" y="198"/>
      <point x="511" y="-26" type="curve"/>
    </contour>
    <contour>
      <point x="400" y="205" type="line"/>
      <point x="395" y="277"/>
      <point x="388" y="378"/>
      <point x="384" y="439" type="curve" smooth="yes"/>
      <point x="383" y="455"/>
      <point x="380" y="458"/>
      <point x="374" y="458" type="curve" smooth="yes"/>
      <point x="369" y="458"/>
      <point x="366" y="454"/>
      <point x="361" y="441" type="curve" smooth="yes"/>
      <point x="277" y="205" type="line"/>
    </contour>
  </outline>
</glyph>
<glyph name="B" format="1">
  <advance width="414"/>
  <unicode hex="0042"/>
  <outline>
    <contour>
      <point x="394" y="108" type="curve" smooth="yes"/>
      <point x="394" y="27"/>
      <point x="302" y="-74"/>
      <point x="236" y="-166" type="curve"/>
      <point x="202" y="-144"/>
      <point x="177" y="-120"/>
      <point x="177" y="-81" type="curve" smooth="yes"/>
      <point x="177" y="-60"/>
      <point x="178" y="-43"/>
      <point x="181" y="-27" type="curve"/>
      <point x="233" y="12" type="line"/>
      <point x="228" y="-29"/>
      <point x="231" y="-77"/>
      <point x="251" y="-77" type="curve" smooth="yes"/>
      <point x="271" y="-77"/>
      <point x="303" y="-37"/>
      <point x="303" y="51" type="curve" smooth="yes"/>
      <point x="303" y="160"/>
      <point x="222" y="171"/>
      <point x="137" y="171" type="curve"/>
      <point x="130" y="111"/>
      <point x="125" y="58"/>
      <point x="123" y="22" type="curve"/>
      <point x="92" y="13" type="line"/>
      <point x="95" y="103"/>
      <point x="125" y="388"/>
      <point x="162" y="550" type="curve"/>
      <point x="78" y="530" type="line"/>
      <point x="93" y="477" type="line"/>
      <point x="57" y="465" type="line"/>
      <point x="31" y="545" type="line"/>
      <point x="84" y="602" type="line"/>
      <point x="116" y="607"/>
      <point x="148" y="610"/>
      <point x="189" y="610" type="curve" smooth="yes"/>
      <point x="289" y="610"/>
      <point x="379" y="578"/>
      <point x="379" y="501" type="curve" smooth="yes"/>
      <point x="379" y="407"/>
      <point x="310" y="317"/>
      <point x="214" y="236" type="curve"/>
      <point x="330" y="232"/>
      <point x="394" y="195"/>
    </contour>
    <contour>
      <point x="280" y="477" type="curve" smooth="yes"/>
      <point x="280" y="519"/>
      <point x="255" y="548"/>
      <point x="205" y="548" type="curve" smooth="yes"/>
      <point x="204" y="548"/>
      <point x="198" y="548"/>
      <point x="196" y="548" type="curve"/>
      <point x="180" y="466"/>
      <point x="159" y="332"/>
      <point x="142" y="207" type="curve"/>
      <point x="221" y="279"/>
      <point x="280" y="387"/>
    </contour>
  </outline>
</glyph>
<glyph name="C" format="1">
  <advance width="407"/>
  <unicode hex="0043"/>
  <outline>
    <contour>
      <point x="428" y="522" type="curve" smooth="yes"/>
      <point x="428" y="490"/>
      <point x="421" y="452"/>
      <point x="413" y="425" type="curve"/>
      <point x="339" y="397" type="line"/>
      <point x="342" y="415"/>
      <point x="344" y="442"/>
      <point x="344" y="471" type="curve" smooth="yes"/>
      <point x="344" y="512"/>
      <point x="336" y="546"/>
      <point x="315" y="568" type="curve"/>
      <point x="224" y="533"/>
      <point x="145" y="429"/>
      <point x="145" y="276" type="curve" smooth="yes"/>
      <point x="145" y="118"/>
      <point x="239" y="2"/>
      <point x="367" y="-63" type="curve"/>
      <point x="348" y="-96" type="line"/>
      <point x="211" y="-32"/>
      <point x="48" y="90"/>
      <point x="48" y="281" type="curve" smooth="yes"/>
      <point x="48" y="478"/>
      <point x="212" y="580"/>
      <point x="346" y="612" type="curve"/>
      <point x="397" y="591"/>
      <point x="428" y="564"/>
    </contour>
  </outline>
</glyph>
<glyph name="D" format="1">
  <advance width="410"/>
  <unicode hex="0044"/>
  <outline>
    <contour>
      <point x="430" y="518" type="line"/>
      <point x="420" y="490"/>
      <point x="410" y="463"/>
      <point x="398" y="437" type="curve"/>
      <point x="407" y="404"/>
      <point x="412" y="368"/>
      <point x="412" y="330" type="curve" smooth="yes"/>
      <point x="412" y="283"/>
      <point x="396" y="236"/>
      <point x="378" y="187" type="curve" smooth="yes"/>
      <point x="360" y="139"/>
      <point x="339" y="38"/>
      <point x="330" y="-69" type="curve"/>
      <point x="250" y="-115" type="line"/>
      <point x="182" y="-82"/>
      <point x="88" y="7"/>
      <point x="52" y="78" type="curve"/>
      <point x="12" y="84" type="line"/>
      <point x="38" y="162" type="line"/>
      <point x="102" y="171" type="line"/>
      <point x="107" y="158"/>
      <point x="112" y="145"/>
      <point x="119" y="131" type="curve"/>
      <point x="191" y="160"/>
      <point x="269" y="247"/>
      <point x="329" y="361" type="curve"/>
      <point x="311" y="453"/>
      <point x="267" y="516"/>
      <point x="184" y="553" type="curve"/>
      <point x="177" y="523"/>
      <point x="183" y="486"/>
      <point x="204" y="464" type="curve"/>
      <point x="183" y="444" type="line"/>
      <point x="153" y="466"/>
      <point x="134" y="503"/>
      <point x="134" y="563" type="curve"/>
      <point x="204" y="612" type="line"/>
      <point x="292" y="596"/>
      <point x="349" y="548"/>
      <point x="381" y="481" type="curve"/>
      <point x="387" y="496"/>
      <point x="392" y="512"/>
      <point x="397" y="528" type="curve"/>
    </contour>
    <contour>
      <point x="339" y="242" type="curve" smooth="yes"/>
      <point x="339" y="268"/>
      <point x="338" y="293"/>
      <point x="335" y="316" type="curve"/>
      <point x="274" y="215"/>
      <point x="202" y="137"/>
      <point x="134" y="105" type="curve"/>
      <point x="165" y="52"/>
      <point x="214" y="1"/>
      <point x="289" y="-28" type="curve"/>
      <point x="305" y="18"/>
      <point x="315" y="59"/>
      <point x="324" y="109" type="curve" smooth="yes"/>
      <point x="332" y="153"/>
      <point x="339" y="197"/>
    </contour>
  </outline>
</glyph>
<glyph name="E" format="1">
  <advance width="375"/>
  <unicode hex="0045"/>
  <outline>
    <contour>
      <point x="355" y="-32" type="line"/>
      <point x="335" y="-73"/>
      <point x="279" y="-128"/>
      <point x="196" y="-128" type="curve" smooth="yes"/>
      <point x="89" y="-128"/>
      <point x="11" y="-48"/>
      <point x="11" y="53" type="curve" smooth="yes"/>
      <point x="11" y="180"/>
      <point x="113" y="245"/>
      <point x="204" y="261" type="curve"/>
      <point x="146" y="319"/>
      <point x="104" y="393"/>
      <point x="104" y="470" type="curve" smooth="yes"/>
      <point x="104" y="546"/>
      <point x="139" y="617"/>
      <point x="224" y="617" type="curve" smooth="yes"/>
      <point x="262" y="617"/>
      <point x="299" y="607"/>
      <point x="326" y="578" type="curve"/>
      <point x="326" y="494" type="line"/>
      <point x="309" y="487" type="line"/>
      <point x="269" y="528"/>
      <point x="224" y="548"/>
      <point x="156" y="537" type="curve"/>
      <point x="145" y="522"/>
      <point x="141" y="504"/>
      <point x="141" y="476" type="curve" smooth="yes"/>
      <point x="141" y="405"/>
      <point x="183" y="324"/>
      <point x="248" y="265" type="curve"/>
      <point x="289" y="265"/>
      <point x="323" y="261"/>
      <point x="347" y="251" type="curve"/>
      <point x="355" y="232"/>
      <point x="344" y="187"/>
      <point x="322" y="173" type="curve"/>
      <point x="299" y="178"/>
      <point x="261" y="202"/>
      <point x="247" y="214" type="curve"/>
      <point x="231" y="217"/>
      <point x="223" y="218"/>
      <point x="203" y="218" type="curve" smooth="yes"/>
      <point x="132" y="218"/>
      <point x="63" y="177"/>
      <point x="63" y="97" type="curve" smooth="yes"/>
      <point x="63" y="8"/>
      <point x="129" y="-50"/>
      <point x="220" y="-50" type="curve" smooth="yes"/>
      <point x="270" y="-50"/>
      <point x="304" y="-40"/>
      <point x="331" y="-13" type="curve"/>
    </contour>
  </outline>
</glyph>
<glyph name="F" format="1">
  <advance width="436"/>
  <unicode hex="0046"/>
  <outline>
    <contour>
      <point x="456" y="504" type="line"/>
      <point x="448" y="589" type="line"/>
      <point x="404" y="594"/>
      <point x="365" y="594"/>
      <point x="317" y="593" type="curve"/>
      <point x="317" y="601"/>
      <point x="317" y="605"/>
      <point x="317" y="612" type="curve"/>
      <point x="290" y="593" type="line"/>
      <point x="195" y="594"/>
      <point x="53" y="579"/>
      <point x="53" y="579" type="curve"/>
      <point x="19" y="502" type="line"/>
      <point x="78" y="511"/>
      <point x="113" y="513"/>
      <point x="173" y="513" type="curve" smooth="yes"/>
      <point x="203" y="513"/>
      <point x="233" y="513"/>
      <point x="263" y="511" type="curve"/>
      <point x="244" y="411"/>
      <point x="227" y="290"/>
      <point x="219" y="175" type="curve"/>
      <point x="203" y="176"/>
      <point x="188" y="177"/>
      <point x="175" y="179" type="curve"/>
      <point x="142" y="113" type="line"/>
      <point x="182" y="84" type="line"/>
      <point x="191" y="85"/>
      <point x="203" y="85"/>
      <point x="212" y="85" type="curve"/>
      <point x="210" y="48"/>
      <point x="209" y="-7"/>
      <point x="208" y="-47" type="curve" smooth="yes"/>
      <point x="208" y="-67"/>
      <point x="206" y="-76"/>
      <point x="198" y="-76" type="curve" smooth="yes"/>
      <point x="188" y="-76"/>
      <point x="168" y="-54"/>
      <point x="158" y="-42" type="curve" smooth="yes"/>
      <point x="143" y="-23"/>
      <point x="136" y="-11"/>
      <point x="128" y="13" type="curve"/>
      <point x="147" y="42" type="line"/>
      <point x="124" y="58" type="line"/>
      <point x="71" y="-16" type="line"/>
      <point x="81" y="-51"/>
      <point x="87" y="-69"/>
      <point x="100" y="-101" type="curve" smooth="yes"/>
      <point x="108" y="-120"/>
      <point x="151" y="-145"/>
      <point x="194" y="-158" type="curve"/>
      <point x="240" y="-90" type="line"/>
      <point x="241" y="-29"/>
      <point x="241" y="29"/>
      <point x="244" y="87" type="curve"/>
      <point x="302" y="94"/>
      <point x="350" y="104"/>
      <point x="387" y="115" type="curve"/>
      <point x="440" y="192" type="line"/>
      <point x="391" y="185"/>
      <point x="314" y="177"/>
      <point x="251" y="176" type="curve"/>
      <point x="262" y="317"/>
      <point x="274" y="407"/>
      <point x="295" y="509" type="curve"/>
      <point x="331" y="506"/>
      <point x="368" y="503"/>
      <point x="410" y="498" type="curve"/>
      <point x="388" y="435" type="line"/>
      <point x="415" y="434" type="line"/>
    </contour>
  </outline>
</glyph>
<glyph name="G" format="1">
  <advance width="410"/>
  <unicode hex="0047"/>
  <outline>
    <contour>
      <point x="410" y="569" type="curve" smooth="yes"/>
      <point x="410" y="556"/>
      <point x="402" y="527"/>
      <point x="389" y="496" type="curve"/>
      <point x="327" y="470" type="line"/>
      <point x="333" y="490"/>
      <point x="336" y="509"/>
      <point x="336" y="526" type="curve" smooth="yes"/>
      <point x="336" y="542"/>
      <point x="330" y="553"/>
      <point x="319" y="559" type="curve"/>
      <point x="283" y="525"/>
      <point x="225" y="415"/>
      <point x="183" y="311" type="curve" smooth="yes"/>
      <point x="149" y="228"/>
      <point x="125" y="149"/>
      <point x="125" y="117" type="curve" smooth="yes"/>
      <point x="125" y="96"/>
      <point x="133" y="87"/>
      <point x="149" y="87" type="curve" smooth="yes"/>
      <point x="199" y="87"/>
      <point x="283" y="211"/>
      <point x="305" y="285" type="curve"/>
      <point x="370" y="296" type="line"/>
      <point x="390" y="265" type="line"/>
      <point x="353" y="195"/>
      <point x="321" y="99"/>
      <point x="321" y="9" type="curve" smooth="yes"/>
      <point x="321" y="-46"/>
      <point x="316" y="-95"/>
      <point x="309" y="-124" type="curve" smooth="yes"/>
      <point x="290" y="-207" type="line"/>
      <point x="200" y="-207" type="line"/>
      <point x="169" y="-182"/>
      <point x="146" y="-161"/>
      <point x="146" y="-132" type="curve" smooth="yes"/>
      <point x="146" y="-105"/>
      <point x="168" y="-83"/>
      <point x="198" y="-68" type="curve"/>
      <point x="191" y="-105"/>
      <point x="215" y="-128"/>
      <point x="246" y="-128" type="curve" smooth="yes"/>
      <point x="271" y="-128"/>
      <point x="285" y="-109"/>
      <point x="285" y="-78" type="curve" smooth="yes"/>
      <point x="285" y="-50"/>
      <point x="284" y="-38"/>
      <point x="282" y="-24" type="curve" smooth="yes"/>
      <point x="280" y="-9"/>
      <point x="279" y="15"/>
      <point x="279" y="42" type="curve" smooth="yes"/>
      <point x="279" y="93"/>
      <point x="288" y="151"/>
      <point x="298" y="192" type="curve"/>
      <point x="279" y="164"/>
      <point x="251" y="128"/>
      <point x="217" y="90" type="curve" smooth="yes"/>
      <point x="183" y="52"/>
      <point x="132" y="7"/>
      <point x="109" y="-9" type="curve"/>
      <point x="18" y="30" type="line"/>
      <point x="22" y="68"/>
      <point x="31" y="108"/>
      <point x="43" y="146" type="curve" smooth="yes"/>
      <point x="107" y="359"/>
      <point x="270" y="606"/>
      <point x="347" y="606" type="curve" smooth="yes"/>
      <point x="397" y="606"/>
      <point x="410" y="589"/>
    </contour>
  </outline>
</glyph>
<glyph name="H" format="1">
  <advance width="475"/>
  <unicode hex="0048"/>
  <outline>
    <contour>
      <point x="465" y="193" type="curve"/>
      <point x="405" y="119" type="line"/>
      <point x="396" y="25"/>
      <point x="391" y="-59"/>
      <point x="389" y="-114" type="curve"/>
      <point x="360" y="-128" type="line"/>
      <point x="360" y="-74"/>
      <point x="364" y="15"/>
      <point x="369" y="112" type="curve"/>
      <point x="319" y="119"/>
      <point x="243" y="125"/>
      <point x="170" y="124" type="curve"/>
      <point x="165" y="54"/>
      <point x="161" y="-18"/>
      <point x="157" y="-87" type="curve"/>
      <point x="116" y="-99" type="line"/>
      <point x="121" y="-37"/>
      <point x="127" y="42"/>
      <point x="132" y="124" type="curve"/>
      <point x="87" y="122"/>
      <point x="44" y="119"/>
      <point x="9" y="113" type="curve"/>
      <point x="51" y="198" type="line"/>
      <point x="77" y="202"/>
      <point x="106" y="205"/>
      <point x="138" y="207" type="curve"/>
      <point x="147" y="345"/>
      <point x="155" y="476"/>
      <point x="158" y="527" type="curve"/>
      <point x="104" y="552" type="line"/>
      <point x="173" y="609" type="line"/>
      <point x="238" y="579" type="line"/>
      <point x="209" y="488"/>
      <point x="190" y="354"/>
      <point x="177" y="209" type="curve"/>
      <point x="242" y="212"/>
      <point x="312" y="210"/>
      <point x="374" y="205" type="curve"/>
      <point x="382" y="329"/>
      <point x="390" y="450"/>
      <point x="396" y="511" type="curve"/>
      <point x="464" y="534" type="line"/>
      <point x="444" y="435"/>
      <point x="427" y="315"/>
      <point x="414" y="201" type="curve"/>
      <point x="432" y="199"/>
      <point x="450" y="196"/>
    </contour>
  </outline>
</glyph>
<glyph name="I" format="1">
  <advance width="185"/>
  <unicode hex="0049"/>
  <outline>
    <contour>
      <point x="195" y="579" type="line"/>
      <point x="168" y="444"/>
      <point x="128" y="162"/>
      <point x="128" y="-25" type="curve"/>
      <point x="55" y="-54" type="line"/>
      <point x="55" y="205"/>
      <point x="93" y="446"/>
      <point x="128" y="545" type="curve"/>
      <point x="117" y="555"/>
      <point x="99" y="565"/>
      <point x="80" y="572" type="curve"/>
      <point x="109" y="609" type="line"/>
    </contour>
  </outline>
</glyph>
<glyph name="J" format="1">
  <advance width="260"/>
  <unicode hex="004A"/>
  <outline>
    <contour>
      <point x="280" y="560" type="line"/>
      <point x="240" y="432"/>
      <point x="220" y="297"/>
      <point x="220" y="196" type="curve" smooth="yes"/>
      <point x="220" y="172"/>
      <point x="218" y="66"/>
      <point x="215" y="1" type="curve"/>
      <point x="166" y="-58"/>
      <point x="104" y="-142"/>
      <point x="72" y="-193" type="curve"/>
      <point x="30" y="-182"/>
      <point x="-12" y="-156"/>
      <point x="-12" y="-123" type="curve" smooth="yes"/>
      <point x="-12" y="-89"/>
      <point x="22" y="-42"/>
      <point x="36" y="-33" type="curve"/>
      <point x="43" y="-72"/>
      <point x="58" y="-110"/>
      <point x="78" y="-110" type="curve" smooth="yes"/>
      <point x="92" y="-110"/>
      <point x="108" y="-100"/>
      <point x="134" y="-46" type="curve" smooth="yes"/>
      <point x="150" y="-13"/>
      <point x="156" y="10"/>
      <point x="156" y="61" type="curve" smooth="yes"/>
      <point x="156" y="77"/>
      <point x="155" y="107"/>
      <point x="154" y="141" type="curve" smooth="yes"/>
      <point x="153" y="167"/>
      <point x="153" y="200"/>
      <point x="153" y="225" type="curve" smooth="yes"/>
      <point x="153" y="321"/>
      <point x="162" y="426"/>
      <point x="193" y="548" type="curve"/>
      <point x="83" y="510" type="line"/>
      <point x="87" y="546" type="line"/>
      <point x="204" y="609" type="line"/>
    </contour>
  </outline>
</glyph>
<glyph name="K" format="1">
  <advance width="417"/>
  <unicode hex="004B"/>
  <outline>
    <contour>
      <point x="440" y="547" type="curve"/>
      <point x="406" y="460" type="line"/>
      <point x="386" y="497"/>
      <point x="364" y="515"/>
      <point x="333" y="523" type="curve"/>
      <point x="271" y="441"/>
      <point x="178" y="318"/>
      <point x="137" y="259" type="curve"/>
      <point x="148" y="259"/>
      <point x="191" y="259"/>
      <point x="205" y="259" type="curve" smooth="yes"/>
      <point x="316" y="259"/>
      <point x="388" y="218"/>
      <point x="388" y="123" type="curve" smooth="yes"/>
      <point x="388" y="79"/>
      <point x="364" y="10"/>
      <point x="340" y="-45" type="curve"/>
      <point x="389" y="-40" type="line"/>
      <point x="382" y="-68" type="line"/>
      <point x="290" y="-88" type="line"/>
      <point x="313" y="-27"/>
      <point x="327" y="34"/>
      <point x="327" y="84" type="curve" smooth="yes"/>
      <point x="327" y="143"/>
      <point x="290" y="157"/>
      <point x="201" y="160" type="curve" smooth="yes"/>
      <point x="176" y="161"/>
      <point x="150" y="162"/>
      <point x="123" y="162" type="curve"/>
      <point x="107" y="43"/>
      <point x="91" y="-71"/>
      <point x="82" y="-133" type="curve"/>
      <point x="52" y="-131" type="line"/>
      <point x="63" y="-53"/>
      <point x="78" y="54"/>
      <point x="92" y="163" type="curve"/>
      <point x="73" y="163"/>
      <point x="55" y="163"/>
      <point x="38" y="163" type="curve"/>
      <point x="54" y="185"/>
      <point x="77" y="217"/>
      <point x="104" y="254" type="curve"/>
      <point x="114" y="339"/>
      <point x="124" y="419"/>
      <point x="129" y="480" type="curve"/>
      <point x="110" y="491"/>
      <point x="85" y="499"/>
      <point x="61" y="503" type="curve"/>
      <point x="116" y="577" type="line"/>
      <point x="135" y="577"/>
      <point x="164" y="570"/>
      <point x="177" y="565" type="curve"/>
      <point x="175" y="548"/>
      <point x="159" y="438"/>
      <point x="142" y="307" type="curve"/>
      <point x="216" y="410"/>
      <point x="306" y="533"/>
      <point x="358" y="604" type="curve"/>
      <point x="390" y="598"/>
      <point x="422" y="578"/>
    </contour>
  </outline>
</glyph>
<glyph name="L" format="1">
  <advance width="477"/>
  <unicode hex="004C"/>
  <outline>
    <contour>
      <point x="517" y="-59" type="line"/>
      <point x="436" y="-94" type="line"/>
      <point x="344" y="-71" type="line"/>
      <point x="285" y="-37"/>
      <point x="234" y="-8"/>
      <point x="184" y="13" type="curve"/>
      <point x="136" y="6" type="line"/>
      <point x="153" y="25" type="line"/>
      <point x="118" y="37"/>
      <point x="84" y="46"/>
      <point x="49" y="48" type="curve"/>
      <point x="65" y="11"/>
      <point x="96" y="-27"/>
      <point x="120" y="-45" type="curve"/>
      <point x="104" y="-63" type="line"/>
      <point x="44" y="-47"/>
      <point x="-6" y="-11"/>
      <point x="-9" y="45" type="curve"/>
      <point x="25" y="125" type="line"/>
      <point x="37" y="129"/>
      <point x="49" y="131"/>
      <point x="70" y="131" type="curve" smooth="yes"/>
      <point x="108" y="131"/>
      <point x="157" y="118"/>
      <point x="211" y="97" type="curve"/>
      <point x="321" y="240"/>
      <point x="401" y="417"/>
      <point x="434" y="600" type="curve"/>
      <point x="483" y="600" type="line"/>
      <point x="492" y="579"/>
      <point x="495" y="558"/>
      <point x="495" y="530" type="curve" smooth="yes"/>
      <point x="495" y="500"/>
      <point x="482" y="450"/>
      <point x="472" y="426" type="curve"/>
      <point x="431" y="446" type="line"/>
      <point x="406" y="349"/>
      <point x="321" y="187"/>
      <point x="238" y="86" type="curve"/>
      <point x="288" y="64"/>
      <point x="342" y="36"/>
      <point x="398" y="4" type="curve" smooth="yes"/>
      <point x="433" y="-16"/>
      <point x="477" y="-37"/>
      <point x="517" y="-40" type="curve"/>
    </contour>
  </outline>
</glyph>
<glyph name="M" format="1">
  <advance width="765"/>
  <unicode hex="004D"/>
  <outline>
    <contour>
      <point x="345" y="548" type="curve"/>
      <point x="288" y="541" type="line"/>
      <point x="257" y="551"/>
      <point x="232" y="557"/>
      <point x="192" y="557" type="curve" smooth="yes"/>
      <point x="178" y="557"/>
      <point x="164" y="554"/>
      <point x="157" y="549" type="curve"/>
      <point x="192" y="518" type="line"/>
      <point x="178" y="501" type="line" smooth="yes"/>
      <point x="169" y="490"/>
      <point x="157" y="479"/>
      <point x="144" y="479" type="curve" smooth="yes"/>
      <point x="127" y="479"/>
      <point x="108" y="493"/>
      <point x="108" y="511" type="curve" smooth="yes"/>
      <point x="108" y="525"/>
      <point x="110" y="531"/>
      <point x="120" y="553" type="curve" smooth="yes"/>
      <point x="145" y="609" type="line"/>
      <point x="154" y="610"/>
      <point x="164" y="611"/>
      <point x="175" y="611" type="curve" smooth="yes"/>
      <point x="247" y="611"/>
      <point x="312" y="576"/>
    </contour>
    <contour>
      <point x="755" y="591" type="line"/>
      <point x="749" y="371"/>
      <point x="721" y="115"/>
      <point x="693" y="-48" type="curve"/>
      <point x="617" y="-78" type="line"/>
      <point x="624" y="-1"/>
      <point x="633" y="103"/>
      <point x="644" y="206" type="curve" smooth="yes"/>
      <point x="654" y="303"/>
      <point x="661" y="384"/>
      <point x="663" y="455" type="curve"/>
      <point x="579" y="313"/>
      <point x="487" y="136"/>
      <point x="425" y="-21" type="curve"/>
      <point x="350" y="-45" type="line"/>
      <point x="364" y="80"/>
      <point x="363" y="332"/>
      <point x="361" y="442" type="curve"/>
      <point x="297" y="354"/>
      <point x="166" y="85"/>
      <point x="109" y="-72" type="curve"/>
      <point x="31" y="-104" type="line"/>
      <point x="-28" y="35" type="line"/>
      <point x="43" y="24" type="line"/>
      <point x="85" y="-20" type="line"/>
      <point x="137" y="83"/>
      <point x="175" y="156"/>
      <point x="219" y="246" type="curve" smooth="yes"/>
      <point x="264" y="338"/>
      <point x="309" y="429"/>
      <point x="362" y="533" type="curve"/>
      <point x="440" y="567" type="line"/>
      <point x="442" y="425"/>
      <point x="443" y="231"/>
      <point x="438" y="98" type="curve"/>
      <point x="513" y="230"/>
      <point x="615" y="436"/>
      <point x="672" y="564" type="curve"/>
    </contour>
  </outline>
</glyph>
<glyph name="N" format="1">
  <advance width="563"/>
  <unicode hex="004E"/>
  <outline>
    <contour>
      <point x="265" y="548" type="curve"/>
      <point x="207" y="539" type="line"/>
      <point x="179" y="547"/>
      <point x="148" y="550"/>
      <point x="118" y="550" type="curve" smooth="yes"/>
      <point x="91" y="550"/>
      <point x="73" y="547"/>
      <point x="63" y="538" type="curve"/>
      <point x="95" y="513" type="line"/>
      <point x="81" y="496" type="line" smooth="yes"/>
      <point x="72" y="485"/>
      <point x="61" y="475"/>
      <point x="47" y="475" type="curve" smooth="yes"/>
      <point x="31" y="475"/>
      <point x="16" y="488"/>
      <point x="16" y="506" type="curve" smooth="yes"/>
      <point x="16" y="520"/>
      <point x="18" y="533"/>
      <point x="23" y="548" type="curve" smooth="yes"/>
      <point x="39" y="595" type="line"/>
      <point x="51" y="601"/>
      <point x="69" y="605"/>
      <point x="86" y="605" type="curve" smooth="yes"/>
      <point x="151" y="605"/>
      <point x="224" y="580"/>
    </contour>
    <contour>
      <point x="611" y="457" type="line"/>
      <point x="553" y="430" type="line"/>
      <point x="497" y="74" type="line" smooth="yes"/>
      <point x="492" y="39"/>
      <point x="488" y="8"/>
      <point x="488" y="-11" type="curve" smooth="yes"/>
      <point x="488" y="-27"/>
      <point x="489" y="-41"/>
      <point x="492" y="-54" type="curve"/>
      <point x="411" y="-88" type="line"/>
      <point x="389" y="14"/>
      <point x="324" y="262"/>
      <point x="276" y="417" type="curve" smooth="yes"/>
      <point x="273" y="427"/>
      <point x="271" y="440"/>
      <point x="263" y="440" type="curve" smooth="yes"/>
      <point x="257" y="440"/>
      <point x="254" y="428"/>
      <point x="252" y="419" type="curve" smooth="yes"/>
      <point x="229" y="327"/>
      <point x="209" y="261"/>
      <point x="178" y="162" type="curve" smooth="yes"/>
      <point x="137" y="32"/>
      <point x="109" y="-43"/>
      <point x="58" y="-168" type="curve"/>
      <point x="35" y="-152"/>
      <point x="-1" y="-112"/>
      <point x="-12" y="-85" type="curve"/>
      <point x="25" y="-1" type="line"/>
      <point x="33" y="-15"/>
      <point x="45" y="-29"/>
      <point x="59" y="-29" type="curve" smooth="yes"/>
      <point x="78" y="-29"/>
      <point x="93" y="-17"/>
      <point x="181" y="268" type="curve" smooth="yes"/>
      <point x="213" y="372"/>
      <point x="224" y="415"/>
      <point x="240" y="501" type="curve"/>
      <point x="327" y="528" type="line"/>
      <point x="449" y="75" type="line" smooth="yes"/>
      <point x="451" y="67"/>
      <point x="454" y="60"/>
      <point x="460" y="60" type="curve" smooth="yes"/>
      <point x="465" y="60"/>
      <point x="467" y="66"/>
      <point x="468" y="75" type="curve" smooth="yes"/>
      <point x="532" y="572" type="line" smooth="yes"/>
      <point x="535" y="595"/>
      <point x="543" y="606"/>
      <point x="559" y="606" type="curve" smooth="yes"/>
      <point x="577" y="606"/>
      <point x="585" y="598"/>
      <point x="588" y="582" type="curve" smooth="yes"/>
    </contour>
  </outline>
</glyph>
<glyph name="O" format="1">
  <advance width="543"/>
  <unicode hex="004F"/>
  <outline>
    <contour>
      <point x="562" y="447" type="curve"/>
      <point x="508" y="419" type="line"/>
      <point x="516" y="392"/>
      <point x="523" y="360"/>
      <point x="523" y="321" type="curve" smooth="yes"/>
      <point x="523" y="163"/>
      <point x="442" y="-76"/>
      <point x="261" y="-76" type="curve" smooth="yes"/>
      <point x="137" y="-76"/>
      <point x="44" y="17"/>
      <point x="44" y="199" type="curve" smooth="yes"/>
      <point x="44" y="386"/>
      <point x="176" y="546"/>
      <point x="363" y="597" type="curve"/>
      <point x="370" y="574" type="line"/>
      <point x="194" y="520"/>
      <point x="114" y="383"/>
      <point x="114" y="225" type="curve" smooth="yes"/>
      <point x="114" y="98"/>
      <point x="179" y="5"/>
      <point x="336" y="5" type="curve" smooth="yes"/>
      <point x="359" y="5"/>
      <point x="375" y="9"/>
      <point x="390" y="16" type="curve"/>
      <point x="440" y="84"/>
      <point x="477" y="175"/>
      <point x="477" y="297" type="curve" smooth="yes"/>
      <point x="477" y="341"/>
      <point x="476" y="364"/>
      <point x="463" y="406" type="curve"/>
      <point x="436" y="414"/>
      <point x="410" y="424"/>
      <point x="389" y="439" type="curve"/>
      <point x="389" y="483" type="line"/>
      <point x="472" y="518" type="line"/>
      <point x="488" y="481"/>
      <point x="513" y="461"/>
    </contour>
  </outline>
</glyph>
<glyph name="P" format="1">
  <advance width="395"/>
  <unicode hex="0050"/>
  <outline>
    <contour>
      <point x="424" y="438" type="curve" smooth="yes"/>
      <point x="424" y="339"/>
      <point x="308" y="263"/>
      <point x="227" y="212" type="curve"/>
      <point x="166" y="212" type="line"/>
      <point x="247" y="272"/>
      <point x="319" y="349"/>
      <point x="319" y="424" type="curve" smooth="yes"/>
      <point x="319" y="487"/>
      <point x="268" y="503"/>
      <point x="186" y="505" type="curve"/>
      <point x="109" y="-73" type="line"/>
      <point x="78" y="-81" type="line"/>
      <point x="153" y="508" type="line"/>
      <point x="76" y="489" type="line"/>
      <point x="95" y="436" type="line"/>
      <point x="61" y="424" type="line"/>
      <point x="31" y="499" type="line"/>
      <point x="91" y="574" type="line"/>
      <point x="109" y="577"/>
      <point x="130" y="579"/>
      <point x="162" y="579" type="curve" smooth="yes"/>
      <point x="304" y="579"/>
      <point x="424" y="541"/>
    </contour>
  </outline>
</glyph>
<glyph name="Q" format="1">
  <advance width="543"/>
  <unicode hex="0051"/>
  <outline>
    <contour>
      <point x="562" y="440" type="line"/>
      <point x="508" y="419" type="line"/>
      <point x="516" y="392"/>
      <point x="523" y="360"/>
      <point x="523" y="321" type="curve" smooth="yes"/>
      <point x="523" y="163"/>
      <point x="442" y="-76"/>
      <point x="261" y="-76" type="curve" smooth="yes"/>
      <point x="212" y="-76"/>
      <point x="168" y="-61"/>
      <point x="133" y="-32" type="curve" smooth="yes"/>
      <point x="78" y="12"/>
      <point x="44" y="89"/>
      <point x="44" y="199" type="curve" smooth="yes"/>
      <point x="44" y="386"/>
      <point x="176" y="546"/>
      <point x="363" y="597" type="curve"/>
      <point x="370" y="574" type="line"/>
      <point x="194" y="520"/>
      <point x="114" y="383"/>
      <point x="114" y="225" type="curve" smooth="yes"/>
      <point x="114" y="148"/>
      <point x="138" y="84"/>
      <point x="191" y="45" type="curve" smooth="yes"/>
      <point x="226" y="19"/>
      <point x="274" y="5"/>
      <point x="336" y="5" type="curve" smooth="yes"/>
      <point x="359" y="5"/>
      <point x="375" y="9"/>
      <point x="390" y="16" type="curve"/>
      <point x="440" y="84"/>
      <point x="477" y="175"/>
      <point x="477" y="297" type="curve" smooth="yes"/>
      <point x="477" y="341"/>
      <point x="476" y="364"/>
      <point x="463" y="406" type="curve"/>
      <point x="436" y="414"/>
      <point x="410" y="424"/>
      <point x="389" y="439" type="curve"/>
      <point x="389" y="483" type="line"/>
      <point x="472" y="518" type="line"/>
      <point x="488" y="481"/>
      <point x="513" y="461"/>
      <point x="562" y="447" type="curve"/>
    </contour>
    <contour>
      <point x="378" y="-215" type="line"/>
      <point x="269" y="-175"/>
      <point x="201" y="-173"/>
      <point x="127" y="-173" type="curve" smooth="yes"/>
      <point x="104" y="-173"/>
      <point x="90" y="-173"/>
      <point x="67" y="-175" type="curve"/>
      <point x="39" y="-139" type="line"/>
      <point x="80" y="-94" type="line"/>
      <point x="99" y="-94"/>
      <point x="107" y="-94"/>
      <point x="128" y="-94" type="curve" smooth="yes"/>
      <point x="194" y="-94"/>
      <point x="286" y="-127"/>
      <point x="373" y="-174" type="curve"/>
    </contour>
  </outline>
</glyph>
<glyph name="R" format="1">
  <advance width="385"/>
  <unicode hex="0052"/>
  <outline>
    <contour>
      <point x="367" y="91" type="curve" smooth="yes"/>
      <point x="367" y="29"/>
      <point x="326" y="-65"/>
      <point x="300" y="-109" type="curve"/>
      <point x="352" y="-100" type="line"/>
      <point x="348" y="-124" type="line"/>
      <point x="250" y="-153" type="line"/>
      <point x="276" y="-91"/>
      <point x="297" y="-19"/>
      <point x="297" y="39" type="curve" smooth="yes"/>
      <point x="297" y="95"/>
      <point x="274" y="135"/>
      <point x="182" y="135" type="curve" smooth="yes"/>
      <point x="166" y="135"/>
      <point x="146" y="135"/>
      <point x="125" y="135" type="curve"/>
      <point x="102" y="-34" type="line"/>
      <point x="71" y="-39" type="line"/>
      <point x="94" y="135" type="line"/>
      <point x="40" y="135" type="line"/>
      <point x="104" y="203" type="line"/>
      <point x="148" y="528" type="line"/>
      <point x="69" y="505" type="line"/>
      <point x="91" y="444" type="line"/>
      <point x="59" y="431" type="line"/>
      <point x="30" y="507" type="line"/>
      <point x="92" y="586" type="line"/>
      <point x="116" y="591"/>
      <point x="146" y="594"/>
      <point x="184" y="594" type="curve" smooth="yes"/>
      <point x="293" y="594"/>
      <point x="361" y="553"/>
      <point x="361" y="486" type="curve" smooth="yes"/>
      <point x="361" y="402"/>
      <point x="257" y="308"/>
      <point x="160" y="222" type="curve"/>
      <point x="160" y="222"/>
      <point x="199" y="222"/>
      <point x="211" y="222" type="curve" smooth="yes"/>
      <point x="308" y="222"/>
      <point x="367" y="179"/>
    </contour>
    <contour>
      <point x="272" y="454" type="curve" smooth="yes"/>
      <point x="272" y="500"/>
      <point x="237" y="526"/>
      <point x="179" y="526" type="curve"/>
      <point x="139" y="236" type="line"/>
      <point x="230" y="327"/>
      <point x="272" y="386"/>
    </contour>
  </outline>
</glyph>
<glyph name="S" format="1">
  <advance width="356"/>
  <unicode hex="0053"/>
  <outline>
    <contour>
      <point x="356" y="525" type="curve" smooth="yes"/>
      <point x="356" y="508"/>
      <point x="352" y="485"/>
      <point x="344" y="463" type="curve"/>
      <point x="288" y="442" type="line"/>
      <point x="286" y="521"/>
      <point x="260" y="546"/>
      <point x="226" y="546" type="curve" smooth="yes"/>
      <point x="222" y="546"/>
      <point x="218" y="545"/>
      <point x="211" y="543" type="curve"/>
      <point x="184" y="507"/>
      <point x="171" y="475"/>
      <point x="171" y="422" type="curve" smooth="yes"/>
      <point x="171" y="389"/>
      <point x="180" y="357"/>
      <point x="196" y="328" type="curve" smooth="yes"/>
      <point x="290" y="159" type="line" smooth="yes"/>
      <point x="308" y="127"/>
      <point x="322" y="99"/>
      <point x="322" y="64" type="curve" smooth="yes"/>
      <point x="322" y="32"/>
      <point x="311" y="1"/>
      <point x="294" y="-20" type="curve" smooth="yes"/>
      <point x="211" y="-126" type="line"/>
      <point x="113" y="-99" type="line" smooth="yes"/>
      <point x="52" y="-82"/>
      <point x="9" y="-53"/>
      <point x="9" y="12" type="curve" smooth="yes"/>
      <point x="9" y="58"/>
      <point x="25" y="99"/>
      <point x="40" y="128" type="curve"/>
      <point x="76" y="140" type="line"/>
      <point x="61" y="105"/>
      <point x="52" y="75"/>
      <point x="52" y="54" type="curve" smooth="yes"/>
      <point x="52" y="17"/>
      <point x="71" y="8"/>
      <point x="101" y="-2" type="curve" smooth="yes"/>
      <point x="238" y="-48" type="line"/>
      <point x="250" y="-34"/>
      <point x="257" y="-22"/>
      <point x="257" y="4" type="curve" smooth="yes"/>
      <point x="257" y="29"/>
      <point x="240" y="65"/>
      <point x="228" y="87" type="curve" smooth="yes"/>
      <point x="126" y="274" type="line" smooth="yes"/>
      <point x="109" y="305"/>
      <point x="99" y="334"/>
      <point x="99" y="378" type="curve" smooth="yes"/>
      <point x="99" y="436"/>
      <point x="143" y="503"/>
      <point x="190" y="560" type="curve"/>
      <point x="290" y="592" type="line"/>
      <point x="341" y="579"/>
      <point x="356" y="551"/>
    </contour>
  </outline>
</glyph>
<glyph name="T" format="1">
  <advance width="485"/>
  <unicode hex="0054"/>
  <outline>
    <contour>
      <point x="519" y="482" type="line"/>
      <point x="442" y="495"/>
      <point x="350" y="504"/>
      <point x="256" y="507" type="curve"/>
      <point x="207" y="388"/>
      <point x="187" y="311"/>
      <point x="187" y="197" type="curve" smooth="yes"/>
      <point x="187" y="93"/>
      <point x="241" y="41"/>
      <point x="322" y="41" type="curve" smooth="yes"/>
      <point x="366" y="41"/>
      <point x="413" y="51"/>
      <point x="465" y="79" type="curve"/>
      <point x="477" y="58" type="line"/>
      <point x="410" y="9"/>
      <point x="348" y="-22"/>
      <point x="276" y="-22" type="curve" smooth="yes"/>
      <point x="180" y="-22"/>
      <point x="116" y="34"/>
      <point x="116" y="168" type="curve" smooth="yes"/>
      <point x="116" y="294"/>
      <point x="185" y="431"/>
      <point x="224" y="510" type="curve"/>
      <point x="69" y="503" type="line"/>
      <point x="99" y="405" type="line"/>
      <point x="62" y="414" type="line"/>
      <point x="31" y="499" type="line"/>
      <point x="46" y="568" type="line"/>
      <point x="108" y="574"/>
      <point x="188" y="577"/>
      <point x="246" y="577" type="curve"/>
      <point x="256" y="596" type="line"/>
      <point x="332" y="581"/>
      <point x="400" y="571"/>
      <point x="497" y="560" type="curve"/>
    </contour>
  </outline>
</glyph>
<glyph name="U" format="1">
  <advance width="559"/>
  <unicode hex="0055"/>
  <outline>
    <contour>
      <point x="569" y="592" type="line"/>
      <point x="532" y="406"/>
      <point x="503" y="174"/>
      <point x="501" y="3" type="curve"/>
      <point x="415" y="-34" type="line"/>
      <point x="425" y="106"/>
      <point x="433" y="190"/>
      <point x="445" y="293" type="curve" smooth="yes"/>
      <point x="446" y="305"/>
      <point x="446" y="315"/>
      <point x="441" y="315" type="curve" smooth="yes"/>
      <point x="437" y="315"/>
      <point x="431" y="307"/>
      <point x="427" y="300" type="curve" smooth="yes"/>
      <point x="358" y="180"/>
      <point x="250" y="53"/>
      <point x="136" y="-18" type="curve"/>
      <point x="38" y="39" type="line"/>
      <point x="58" y="152"/>
      <point x="76" y="221"/>
      <point x="119" y="339" type="curve" smooth="yes"/>
      <point x="148" y="419"/>
      <point x="162" y="450"/>
      <point x="197" y="525" type="curve"/>
      <point x="81" y="485" type="line"/>
      <point x="68" y="521" type="line"/>
      <point x="232" y="579" type="line"/>
      <point x="259" y="562" type="line"/>
      <point x="214" y="474"/>
      <point x="193" y="425"/>
      <point x="159" y="331" type="curve" smooth="yes"/>
      <point x="133" y="260"/>
      <point x="116" y="196"/>
      <point x="116" y="152" type="curve" smooth="yes"/>
      <point x="116" y="115"/>
      <point x="137" y="100"/>
      <point x="169" y="100" type="curve" smooth="yes"/>
      <point x="217" y="100"/>
      <point x="272" y="138"/>
      <point x="321" y="204" type="curve" smooth="yes"/>
      <point x="405" y="316"/>
      <point x="460" y="420"/>
      <point x="493" y="576" type="curve"/>
    </contour>
  </outline>
</glyph>
<glyph name="V" format="1">
  <advance width="476"/>
  <unicode hex="0056"/>
  <outline>
    <contour>
      <point x="495" y="270" type="curve"/>
      <point x="477" y="269"/>
      <point x="437" y="272"/>
      <point x="422" y="277" type="curve"/>
      <point x="358" y="158"/>
      <point x="318" y="76"/>
      <point x="260" y="-57" type="curve"/>
      <point x="182" y="-77" type="line"/>
      <point x="182" y="-75"/>
      <point x="82" y="520"/>
      <point x="82" y="520" type="curve"/>
      <point x="34" y="501" type="line"/>
      <point x="28" y="533" type="line"/>
      <point x="172" y="587" type="line"/>
      <point x="177" y="427"/>
      <point x="211" y="206"/>
      <point x="251" y="38" type="curve" smooth="yes"/>
      <point x="252" y="32"/>
      <point x="256" y="24"/>
      <point x="261" y="24" type="curve" smooth="yes"/>
      <point x="267" y="24"/>
      <point x="269" y="30"/>
      <point x="273" y="38" type="curve" smooth="yes"/>
      <point x="324" y="143"/>
      <point x="359" y="225"/>
      <point x="394" y="329" type="curve"/>
      <point x="387" y="357"/>
      <point x="384" y="374"/>
      <point x="384" y="403" type="curve" smooth="yes"/>
      <point x="384" y="443"/>
      <point x="389" y="473"/>
      <point x="402" y="511" type="curve"/>
      <point x="491" y="539" type="line"/>
      <point x="494" y="526"/>
      <point x="495" y="509"/>
      <point x="495" y="481" type="curve" smooth="yes"/>
      <point x="495" y="447"/>
      <point x="480" y="394"/>
      <point x="456" y="348" type="curve"/>
      <point x="461" y="327"/>
      <point x="478" y="291"/>
    </contour>
  </outline>
</glyph>
<glyph name="W" format="1">
  <advance width="788"/>
  <unicode hex="0057"/>
  <outline>
    <contour>
      <point x="813" y="294" type="curve"/>
      <point x="797" y="294"/>
      <point x="761" y="294"/>
      <point x="743" y="300" type="curve"/>
      <point x="710" y="234"/>
      <point x="625" y="43"/>
      <point x="597" y="-28" type="curve"/>
      <point x="513" y="-56" type="line"/>
      <point x="480" y="119"/>
      <point x="459" y="216"/>
      <point x="443" y="293" type="curve" smooth="yes"/>
      <point x="440" y="309"/>
      <point x="436" y="316"/>
      <point x="431" y="316" type="curve" smooth="yes"/>
      <point x="426" y="316"/>
      <point x="422" y="309"/>
      <point x="416" y="294" type="curve" smooth="yes"/>
      <point x="371" y="187"/>
      <point x="305" y="18"/>
      <point x="280" y="-54" type="curve"/>
      <point x="198" y="-76" type="line"/>
      <point x="84" y="514" type="line"/>
      <point x="29" y="493" type="line"/>
      <point x="25" y="528" type="line"/>
      <point x="166" y="589" type="line"/>
      <point x="177" y="423"/>
      <point x="224" y="164"/>
      <point x="256" y="49" type="curve" smooth="yes"/>
      <point x="259" y="39"/>
      <point x="264" y="32"/>
      <point x="269" y="32" type="curve" smooth="yes"/>
      <point x="277" y="32"/>
      <point x="283" y="40"/>
      <point x="286" y="47" type="curve" smooth="yes"/>
      <point x="332" y="160"/>
      <point x="385" y="305"/>
      <point x="417" y="413" type="curve"/>
      <point x="500" y="454" type="line"/>
      <point x="512" y="306"/>
      <point x="547" y="160"/>
      <point x="579" y="52" type="curve" smooth="yes"/>
      <point x="581" y="46"/>
      <point x="584" y="43"/>
      <point x="588" y="43" type="curve" smooth="yes"/>
      <point x="594" y="43"/>
      <point x="598" y="49"/>
      <point x="602" y="57" type="curve" smooth="yes"/>
      <point x="647" y="161"/>
      <point x="681" y="247"/>
      <point x="715" y="353" type="curve"/>
      <point x="708" y="381"/>
      <point x="703" y="404"/>
      <point x="703" y="442" type="curve" smooth="yes"/>
      <point x="703" y="474"/>
      <point x="704" y="496"/>
      <point x="711" y="529" type="curve"/>
      <point x="802" y="563" type="line"/>
      <point x="805" y="549"/>
      <point x="807" y="531"/>
      <point x="807" y="506" type="curve" smooth="yes"/>
      <point x="807" y="472"/>
      <point x="796" y="409"/>
      <point x="777" y="364" type="curve"/>
      <point x="785" y="343"/>
      <point x="799" y="315"/>
    </contour>
  </outline>
</glyph>
<glyph name="X" format="1">
  <advance width="466"/>
  <unicode hex="0058"/>
  <outline>
    <contour>
      <point x="439" y="528" type="line"/>
      <point x="410" y="476"/>
      <point x="362" y="400"/>
      <point x="305" y="319" type="curve"/>
      <point x="367" y="204"/>
      <point x="425" y="87"/>
      <point x="438" y="30" type="curve"/>
      <point x="410" y="-78" type="line"/>
      <point x="398" y="-81" type="line"/>
      <point x="356" y="28"/>
      <point x="303" y="138"/>
      <point x="249" y="239" type="curve"/>
      <point x="171" y="132"/>
      <point x="89" y="28"/>
      <point x="31" y="-31" type="curve"/>
      <point x="0" y="-10" type="line"/>
      <point x="69" y="55"/>
      <point x="154" y="159"/>
      <point x="233" y="269" type="curve"/>
      <point x="171" y="382"/>
      <point x="111" y="482"/>
      <point x="66" y="551" type="curve"/>
      <point x="150" y="588" type="line"/>
      <point x="180" y="542"/>
      <point x="235" y="449"/>
      <point x="289" y="349" type="curve"/>
      <point x="347" y="434"/>
      <point x="398" y="517"/>
      <point x="432" y="583" type="curve"/>
    </contour>
  </outline>
</glyph>
<glyph name="Y" format="1">
  <advance width="679"/>
  <unicode hex="0059"/>
  <outline>
    <contour>
      <point x="385" y="106" type="line"/>
      <point x="336" y="229"/>
      <point x="209" y="417"/>
      <point x="104" y="477" type="curve"/>
      <point x="75" y="472"/>
      <point x="50" y="469"/>
      <point x="26" y="469" type="curve"/>
      <point x="46" y="507"/>
      <point x="98" y="546"/>
      <point x="138" y="573" type="curve"/>
      <point x="251" y="449"/>
      <point x="351" y="281"/>
      <point x="385" y="166" type="curve"/>
    </contour>
    <contour>
      <point x="729" y="594" type="line"/>
      <point x="700" y="278"/>
      <point x="548" y="136"/>
      <point x="318" y="-77" type="curve" smooth="yes"/>
      <point x="275" y="-117"/>
      <point x="232" y="-168"/>
      <point x="208" y="-202" type="curve"/>
      <point x="287" y="-203"/>
      <point x="370" y="-233"/>
      <point x="455" y="-261" type="curve"/>
      <point x="454" y="-267" type="line"/>
      <point x="354" y="-285" type="line"/>
      <point x="166" y="-270" type="line"/>
      <point x="136" y="-311" type="line"/>
      <point x="115" y="-300"/>
      <point x="99" y="-286"/>
      <point x="99" y="-261" type="curve" smooth="yes"/>
      <point x="99" y="-228"/>
      <point x="128" y="-212"/>
      <point x="175" y="-204" type="curve"/>
      <point x="201" y="-166"/>
      <point x="248" y="-111"/>
      <point x="294" y="-66" type="curve" smooth="yes"/>
      <point x="505" y="138"/>
      <point x="602" y="275"/>
      <point x="630" y="570" type="curve"/>
    </contour>
  </outline>
</glyph>
<glyph name="Z" format="1">
  <advance width="463"/>
  <unicode hex="005A"/>
  <outline>
    <contour>
      <point x="475" y="518" type="curve"/>
      <point x="427" y="424"/>
      <point x="376" y="319"/>
      <point x="333" y="232" type="curve"/>
      <point x="422" y="228" type="line"/>
      <point x="421" y="222" type="line"/>
      <point x="366" y="192" type="line"/>
      <point x="366" y="192"/>
      <point x="344" y="190"/>
      <point x="312" y="188" type="curve"/>
      <point x="291" y="145"/>
      <point x="273" y="108"/>
      <point x="261" y="81" type="curve" smooth="yes"/>
      <point x="245" y="46"/>
      <point x="226" y="16"/>
      <point x="203" y="-1" type="curve"/>
      <point x="279" y="-49"/>
      <point x="369" y="-101"/>
      <point x="421" y="-122" type="curve"/>
      <point x="421" y="-54" type="line"/>
      <point x="464" y="-9" type="line"/>
      <point x="470" y="-35"/>
      <point x="473" y="-55"/>
      <point x="473" y="-84" type="curve" smooth="yes"/>
      <point x="473" y="-153"/>
      <point x="446" y="-191"/>
      <point x="398" y="-191" type="curve" smooth="yes"/>
      <point x="358" y="-191"/>
      <point x="334" y="-173"/>
      <point x="297" y="-149" type="curve" smooth="yes"/>
      <point x="229" y="-104"/>
      <point x="128" y="-33"/>
      <point x="128" y="-33" type="curve"/>
      <point x="109" y="-36"/>
      <point x="104" y="-36"/>
      <point x="89" y="-36" type="curve" smooth="yes"/>
      <point x="53" y="-36"/>
      <point x="12" y="-16"/>
      <point x="12" y="19" type="curve" smooth="yes"/>
      <point x="12" y="53"/>
      <point x="34" y="80"/>
      <point x="63" y="93" type="curve"/>
      <point x="80" y="79"/>
      <point x="125" y="48"/>
      <point x="179" y="14" type="curve"/>
      <point x="198" y="35"/>
      <point x="220" y="75"/>
      <point x="240" y="115" type="curve" smooth="yes"/>
      <point x="249" y="133"/>
      <point x="261" y="157"/>
      <point x="275" y="186" type="curve"/>
      <point x="209" y="182"/>
      <point x="125" y="176"/>
      <point x="97" y="174" type="curve" smooth="yes"/>
      <point x="74" y="172"/>
      <point x="59" y="175"/>
      <point x="59" y="189" type="curve" smooth="yes"/>
      <point x="59" y="204"/>
      <point x="69" y="223"/>
      <point x="89" y="241" type="curve"/>
      <point x="299" y="233" type="line"/>
      <point x="331" y="297"/>
      <point x="369" y="372"/>
      <point x="402" y="439" type="curve"/>
      <point x="312" y="455"/>
      <point x="270" y="465"/>
      <point x="178" y="485" type="curve"/>
      <point x="185" y="406" type="line"/>
      <point x="150" y="407" type="line"/>
      <point x="123" y="544" type="line"/>
      <point x="179" y="582" type="line"/>
      <point x="268" y="556"/>
      <point x="362" y="537"/>
    </contour>
  </outline>
</glyph>
<glyph name="bracketleft" format="1">
  <advance width="166"/>
  <unicode hex="005B"/>
  <outline>
    <contour>
      <point x="159" y="31" type="line"/>
      <point x="154" y="13" type="line"/>
      <point x="35" y="24" type="line"/>
      <point x="35" y="397" type="line"/>
      <point x="153" y="417" type="line"/>
      <point x="156" y="400" type="line"/>
      <point x="88" y="387" type="line"/>
      <point x="88" y="38" type="line"/>
    </contour>
  </outline>
</glyph>
<glyph name="backslash" format="1">
  <advance width="187"/>
  <unicode hex="005C"/>
  <outline>
    <contour>
      <point x="178" y="-18" type="line"/>
      <point x="134" y="-9" type="line"/>
      <point x="-110" y="560" type="line"/>
      <point x="-42" y="544" type="line"/>
      <point x="-31" y="506"/>
      <point x="-2" y="422"/>
      <point x="23" y="360" type="curve" smooth="yes"/>
    </contour>
  </outline>
</glyph>
<glyph name="bracketright" format="1">
  <advance width="166"/>
  <unicode hex="005D"/>
  <outline>
    <contour>
      <point x="131" y="24" type="line"/>
      <point x="12" y="13" type="line"/>
      <point x="7" y="31" type="line"/>
      <point x="78" y="38" type="line"/>
      <point x="78" y="387" type="line"/>
      <point x="10" y="400" type="line"/>
      <point x="13" y="417" type="line"/>
      <point x="131" y="397" type="line"/>
    </contour>
  </outline>
</glyph>
<glyph name="grave" format="1">
  <advance width="240"/>
  <unicode hex="0060"/>
  <outline>
    <contour>
      <point x="177" y="296" type="line"/>
      <point x="97" y="327" type="line" smooth="yes"/>
      <point x="79" y="334"/>
      <point x="71" y="345"/>
      <point x="71" y="363" type="curve" smooth="yes"/>
      <point x="71" y="376"/>
      <point x="75" y="388"/>
      <point x="86" y="398" type="curve"/>
      <point x="177" y="317" type="line"/>
    </contour>
  </outline>
</glyph>
<glyph name="a" format="1">
  <advance width="283"/>
  <unicode hex="0061"/>
  <outline>
    <contour>
      <point x="282" y="89" type="line"/>
      <point x="234" y="0" type="line"/>
      <point x="184" y="13"/>
      <point x="159" y="36"/>
      <point x="152" y="75" type="curve"/>
      <point x="133" y="34"/>
      <point x="98" y="0"/>
      <point x="56" y="-1" type="curve" smooth="yes"/>
      <point x="34" y="-1"/>
      <point x="18" y="15"/>
      <point x="17" y="44" type="curve" smooth="yes"/>
      <point x="16" y="104"/>
      <point x="73" y="195"/>
      <point x="162" y="256" type="curve"/>
      <point x="233" y="238" type="line"/>
      <point x="228" y="209"/>
      <point x="226" y="187"/>
      <point x="226" y="161" type="curve" smooth="yes"/>
      <point x="226" y="126"/>
      <point x="227" y="89"/>
      <point x="236" y="69" type="curve"/>
      <point x="264" y="101" type="line"/>
    </contour>
    <contour>
      <point x="153" y="214" type="curve"/>
      <point x="111" y="179"/>
      <point x="82" y="136"/>
      <point x="82" y="96" type="curve" smooth="yes"/>
      <point x="82" y="79"/>
      <point x="87" y="64"/>
      <point x="102" y="64" type="curve" smooth="yes"/>
      <point x="121" y="64"/>
      <point x="137" y="87"/>
      <point x="148" y="112" type="curve"/>
      <point x="147" y="135"/>
      <point x="149" y="183"/>
    </contour>
  </outline>
</glyph>
<glyph name="b" format="1">
  <advance width="272"/>
  <unicode hex="0062"/>
  <outline>
    <contour>
      <point x="254" y="180" type="curve" smooth="yes"/>
      <point x="254" y="101"/>
      <point x="195" y="3"/>
      <point x="80" y="3" type="curve" smooth="yes"/>
      <point x="59" y="3"/>
      <point x="44" y="5"/>
      <point x="32" y="8" type="curve"/>
      <point x="32" y="24"/>
      <point x="32" y="41"/>
      <point x="32" y="56" type="curve" smooth="yes"/>
      <point x="32" y="270"/>
      <point x="67" y="415"/>
      <point x="137" y="542" type="curve"/>
      <point x="221" y="556" type="line"/>
      <point x="151" y="445"/>
      <point x="122" y="354"/>
      <point x="112" y="212" type="curve"/>
      <point x="202" y="277" type="line"/>
      <point x="242" y="250"/>
      <point x="254" y="215"/>
    </contour>
    <contour>
      <point x="189" y="125" type="curve" smooth="yes"/>
      <point x="189" y="164"/>
      <point x="176" y="192"/>
      <point x="155" y="212" type="curve"/>
      <point x="109" y="180" type="line"/>
      <point x="109" y="59" type="line"/>
      <point x="173" y="64"/>
      <point x="189" y="79"/>
    </contour>
  </outline>
</glyph>
<glyph name="c" format="1">
  <advance width="208"/>
  <unicode hex="0063"/>
  <outline>
    <contour>
      <point x="195" y="111" type="line"/>
      <point x="181" y="72"/>
      <point x="155" y="26"/>
      <point x="119" y="-9" type="curve"/>
      <point x="41" y="9" type="line"/>
      <point x="36" y="29"/>
      <point x="32" y="53"/>
      <point x="32" y="73" type="curve" smooth="yes"/>
      <point x="32" y="153"/>
      <point x="58" y="218"/>
      <point x="90" y="275" type="curve"/>
      <point x="186" y="265" type="line"/>
      <point x="186" y="186" type="line"/>
      <point x="123" y="199" type="line"/>
      <point x="95" y="174"/>
      <point x="77" y="140"/>
      <point x="77" y="94" type="curve" smooth="yes"/>
      <point x="77" y="79"/>
      <point x="81" y="66"/>
      <point x="86" y="55" type="curve"/>
      <point x="126" y="57"/>
      <point x="149" y="84"/>
      <point x="167" y="121" type="curve"/>
    </contour>
  </outline>
</glyph>
<glyph name="d" format="1">
  <advance width="248"/>
  <unicode hex="0064"/>
  <outline>
    <contour>
      <point x="230" y="162" type="curve" smooth="yes"/>
      <point x="230" y="66"/>
      <point x="147" y="-4"/>
      <point x="89" y="-4" type="curve" smooth="yes"/>
      <point x="41" y="-4"/>
      <point x="17" y="22"/>
      <point x="17" y="66" type="curve" smooth="yes"/>
      <point x="17" y="133"/>
      <point x="83" y="198"/>
      <point x="143" y="242" type="curve"/>
      <point x="104" y="389"/>
      <point x="96" y="459"/>
      <point x="96" y="528" type="curve"/>
      <point x="152" y="539" type="line"/>
      <point x="152" y="536"/>
      <point x="152" y="533"/>
      <point x="152" y="530" type="curve" smooth="yes"/>
      <point x="152" y="485"/>
      <point x="161" y="441"/>
      <point x="192" y="337" type="curve" smooth="yes"/>
      <point x="212" y="272"/>
      <point x="230" y="216"/>
    </contour>
    <contour>
      <point x="177" y="86" type="curve"/>
      <point x="150" y="212" type="line"/>
      <point x="115" y="181"/>
      <point x="95" y="147"/>
      <point x="95" y="94" type="curve" smooth="yes"/>
      <point x="95" y="68"/>
      <point x="105" y="54"/>
      <point x="118" y="54" type="curve" smooth="yes"/>
      <point x="138" y="54"/>
      <point x="162" y="65"/>
    </contour>
  </outline>
</glyph>
<glyph name="e" format="1">
  <advance width="241"/>
  <unicode hex="0065"/>
  <outline>
    <contour>
      <point x="222" y="203" type="curve" smooth="yes"/>
      <point x="222" y="165"/>
      <point x="182" y="133"/>
      <point x="94" y="98" type="curve"/>
      <point x="97" y="77"/>
      <point x="105" y="59"/>
      <point x="119" y="46" type="curve"/>
      <point x="143" y="52"/>
      <point x="182" y="74"/>
      <point x="201" y="93" type="curve"/>
      <point x="216" y="71" type="line"/>
      <point x="172" y="26"/>
      <point x="124" y="-4"/>
      <point x="90" y="-4" type="curve" smooth="yes"/>
      <point x="45" y="-4"/>
      <point x="22" y="37"/>
      <point x="22" y="86" type="curve" smooth="yes"/>
      <point x="22" y="146"/>
      <point x="51" y="209"/>
      <point x="91" y="273" type="curve"/>
      <point x="179" y="250"/>
      <point x="222" y="229"/>
    </contour>
    <contour>
      <point x="151" y="184" type="curve" smooth="yes"/>
      <point x="151" y="196"/>
      <point x="133" y="208"/>
      <point x="115" y="214" type="curve"/>
      <point x="101" y="189"/>
      <point x="92" y="159"/>
      <point x="92" y="134" type="curve" smooth="yes"/>
      <point x="92" y="129"/>
      <point x="92" y="125"/>
      <point x="93" y="123" type="curve"/>
      <point x="121" y="139"/>
      <point x="151" y="161"/>
    </contour>
  </outline>
</glyph>
<glyph name="f" format="1">
  <advance width="203"/>
  <unicode hex="0066"/>
  <outline>
    <contour>
      <point x="221" y="422" type="line"/>
      <point x="196" y="385" type="line"/>
      <point x="189" y="418"/>
      <point x="174" y="456"/>
      <point x="160" y="481" type="curve"/>
      <point x="129" y="431"/>
      <point x="109" y="360"/>
      <point x="102" y="286" type="curve"/>
      <point x="134" y="273"/>
      <point x="166" y="267"/>
      <point x="215" y="266" type="curve"/>
      <point x="188" y="228" type="line"/>
      <point x="97" y="214" type="line"/>
      <point x="96" y="198"/>
      <point x="96" y="185"/>
      <point x="96" y="175" type="curve" smooth="yes"/>
      <point x="96" y="73"/>
      <point x="109" y="35"/>
      <point x="109" y="-41" type="curve" smooth="yes"/>
      <point x="109" y="-110"/>
      <point x="98" y="-175"/>
      <point x="74" y="-238" type="curve"/>
      <point x="138" y="-216" type="line"/>
      <point x="118" y="-269" type="line"/>
      <point x="-12" y="-302" type="line"/>
      <point x="29" y="-196"/>
      <point x="44" y="-112"/>
      <point x="44" y="59" type="curve" smooth="yes"/>
      <point x="44" y="95"/>
      <point x="47" y="148"/>
      <point x="51" y="218" type="curve"/>
      <point x="8" y="225" type="line"/>
      <point x="19" y="248"/>
      <point x="35" y="266"/>
      <point x="52" y="284" type="curve"/>
      <point x="63" y="402"/>
      <point x="84" y="503"/>
      <point x="126" y="593" type="curve"/>
      <point x="193" y="568" type="line"/>
    </contour>
  </outline>
</glyph>
<glyph name="g" format="1">
  <advance width="267"/>
  <unicode hex="0067"/>
  <outline>
    <contour>
      <point x="250" y="348" type="line"/>
      <point x="219" y="343"/>
      <point x="197" y="334"/>
      <point x="179" y="323" type="curve"/>
      <point x="188" y="301" type="line"/>
      <point x="128" y="278" type="line"/>
      <point x="115" y="309" type="line"/>
      <point x="143" y="343"/>
      <point x="185" y="365"/>
      <point x="243" y="380" type="curve"/>
    </contour>
    <contour>
      <point x="222" y="171" type="curve" smooth="yes"/>
      <point x="223" y="77"/>
      <point x="139" y="14"/>
      <point x="68" y="13" type="curve" smooth="yes"/>
      <point x="36" y="13"/>
      <point x="19" y="28"/>
      <point x="19" y="54" type="curve" smooth="yes"/>
      <point x="18" y="93"/>
      <point x="56" y="154"/>
      <point x="114" y="217" type="curve"/>
      <point x="113" y="225"/>
      <point x="111" y="230"/>
      <point x="111" y="237" type="curve" smooth="yes"/>
      <point x="111" y="248"/>
      <point x="116" y="256"/>
      <point x="125" y="267" type="curve"/>
      <point x="208" y="253" type="line"/>
      <point x="217" y="226"/>
      <point x="222" y="202"/>
    </contour>
    <contour>
      <point x="263" y="16" type="line"/>
      <point x="242" y="7"/>
      <point x="219" y="-5"/>
      <point x="199" y="-18" type="curve"/>
      <point x="217" y="-42"/>
      <point x="232" y="-80"/>
      <point x="232" y="-115" type="curve" smooth="yes"/>
      <point x="232" y="-208"/>
      <point x="169" y="-265"/>
      <point x="63" y="-307" type="curve"/>
      <point x="22" y="-269"/>
      <point x="4" y="-234"/>
      <point x="3" y="-176" type="curve" smooth="yes"/>
      <point x="3" y="-121"/>
      <point x="37" y="-70"/>
      <point x="102" y="-35" type="curve"/>
      <point x="102" y="3" type="line"/>
      <point x="170" y="3" type="line"/>
      <point x="193" y="17"/>
      <point x="220" y="32"/>
      <point x="249" y="46" type="curve"/>
    </contour>
    <contour>
      <point x="153" y="104" type="curve" smooth="yes"/>
      <point x="153" y="122"/>
      <point x="140" y="168"/>
      <point x="126" y="194" type="curve"/>
      <point x="105" y="170"/>
      <point x="90" y="126"/>
      <point x="90" y="92" type="curve" smooth="yes"/>
      <point x="90" y="71"/>
      <point x="95" y="54"/>
      <point x="110" y="54" type="curve" smooth="yes"/>
      <point x="130" y="54"/>
      <point x="153" y="74"/>
    </contour>
    <contour>
      <point x="151" y="-157" type="curve" smooth="yes"/>
      <point x="151" y="-122"/>
      <point x="137" y="-89"/>
      <point x="113" y="-63" type="curve"/>
      <point x="82" y="-89"/>
      <point x="69" y="-134"/>
      <point x="69" y="-181" type="curve" smooth="yes"/>
      <point x="69" y="-218"/>
      <point x="82" y="-249"/>
      <point x="99" y="-267" type="curve"/>
      <point x="128" y="-248"/>
      <point x="151" y="-205"/>
    </contour>
  </outline>
</glyph>
<glyph name="h" format="1">
  <advance width="294"/>
  <unicode hex="0068"/>
  <outline>
    <contour>
      <point x="268" y="182" type="curve" smooth="yes"/>
      <point x="268" y="115"/>
      <point x="246" y="18"/>
      <point x="203" y="-45" type="curve"/>
      <point x="127" y="-67" type="line"/>
      <point x="163" y="-4"/>
      <point x="181" y="61"/>
      <point x="181" y="135" type="curve" smooth="yes"/>
      <point x="181" y="155"/>
      <point x="179" y="178"/>
      <point x="176" y="191" type="curve"/>
      <point x="130" y="143"/>
      <point x="106" y="115"/>
      <point x="78" y="-1" type="curve"/>
      <point x="23" y="16" type="line"/>
      <point x="65" y="197"/>
      <point x="85" y="373"/>
      <point x="85" y="517" type="curve"/>
      <point x="172" y="554" type="line"/>
      <point x="164" y="392"/>
      <point x="142" y="276"/>
      <point x="110" y="153" type="curve"/>
      <point x="126" y="174"/>
      <point x="167" y="223"/>
      <point x="188" y="244" type="curve"/>
      <point x="262" y="230" type="line"/>
      <point x="265" y="218"/>
      <point x="268" y="198"/>
    </contour>
  </outline>
</glyph>
<glyph name="i" format="1">
  <advance width="171"/>
  <unicode hex="0069"/>
  <outline>
    <contour>
      <point x="165" y="369" type="line"/>
      <point x="149" y="301" type="line"/>
      <point x="74" y="303" type="line"/>
      <point x="63" y="308"/>
      <point x="57" y="315"/>
      <point x="57" y="324" type="curve" smooth="yes"/>
      <point x="57" y="340"/>
      <point x="67" y="354"/>
      <point x="82" y="363" type="curve"/>
    </contour>
    <contour>
      <point x="149" y="30" type="line"/>
      <point x="29" y="-21" type="line"/>
      <point x="33" y="157" type="line"/>
      <point x="74" y="239" type="line"/>
      <point x="134" y="255" type="line"/>
      <point x="99" y="45" type="line"/>
      <point x="149" y="59" type="line"/>
    </contour>
  </outline>
</glyph>
<glyph name="j" format="1">
  <advance width="139"/>
  <unicode hex="006A"/>
  <outline>
    <contour>
      <point x="155" y="363" type="line"/>
      <point x="126" y="300" type="line"/>
      <point x="64" y="301" type="line"/>
      <point x="48" y="307"/>
      <point x="39" y="315"/>
      <point x="39" y="329" type="curve" smooth="yes"/>
      <point x="39" y="345"/>
      <point x="50" y="354"/>
      <point x="72" y="362" type="curve"/>
    </contour>
    <contour>
      <point x="132" y="269" type="line"/>
      <point x="111" y="172"/>
      <point x="98" y="85"/>
      <point x="87" y="12" type="curve" smooth="yes"/>
      <point x="69" y="-110"/>
      <point x="64" y="-182"/>
      <point x="61" y="-256" type="curve"/>
      <point x="39" y="-266"/>
      <point x="14" y="-279"/>
      <point x="-1" y="-291" type="curve"/>
      <point x="-63" y="-245" type="line"/>
      <point x="-48" y="-211" type="line"/>
      <point x="-36" y="-221"/>
      <point x="-24" y="-227"/>
      <point x="-7" y="-234" type="curve"/>
      <point x="6" y="-170"/>
      <point x="19" y="-71"/>
      <point x="27" y="14" type="curve" smooth="yes"/>
      <point x="38" y="127"/>
      <point x="42" y="172"/>
      <point x="41" y="249" type="curve"/>
    </contour>
  </outline>
</glyph>
<glyph name="k" format="1">
  <advance width="261"/>
  <unicode hex="006B"/>
  <outline>
    <contour>
      <point x="243" y="254" type="curve"/>
      <point x="203" y="174" type="line"/>
      <point x="191" y="182"/>
      <point x="171" y="189"/>
      <point x="156" y="192" type="curve"/>
      <point x="135" y="156" type="line"/>
      <point x="164" y="140"/>
      <point x="213" y="103"/>
      <point x="237" y="79" type="curve"/>
      <point x="213" y="-16" type="line"/>
      <point x="176" y="34"/>
      <point x="126" y="70"/>
      <point x="102" y="85" type="curve"/>
      <point x="87" y="61"/>
      <point x="71" y="30"/>
      <point x="56" y="-1" type="curve"/>
      <point x="10" y="12" type="line"/>
      <point x="51" y="108"/>
      <point x="90" y="353"/>
      <point x="90" y="511" type="curve" smooth="yes"/>
      <point x="90" y="536"/>
      <point x="88" y="559"/>
      <point x="86" y="580" type="curve"/>
      <point x="167" y="605" type="line"/>
      <point x="161" y="436"/>
      <point x="129" y="284"/>
      <point x="87" y="132" type="curve"/>
      <point x="94" y="129" type="line"/>
      <point x="137" y="208" type="line" smooth="yes"/>
      <point x="159" y="249"/>
      <point x="178" y="261"/>
      <point x="205" y="261" type="curve" smooth="yes"/>
      <point x="214" y="261"/>
      <point x="235" y="258"/>
    </contour>
  </outline>
</glyph>
<glyph name="l" format="1">
  <advance width="179"/>
  <unicode hex="006C"/>
  <outline>
    <contour>
      <point x="171" y="94" type="line"/>
      <point x="99" y="-8" type="line"/>
      <point x="31" y="10" type="line"/>
      <point x="29" y="31"/>
      <point x="29" y="50"/>
      <point x="29" y="64" type="curve" smooth="yes"/>
      <point x="29" y="94"/>
      <point x="36" y="130"/>
      <point x="47" y="183" type="curve" smooth="yes"/>
      <point x="66" y="272"/>
      <point x="89" y="398"/>
      <point x="87" y="536" type="curve"/>
      <point x="170" y="558" type="line"/>
      <point x="163" y="396"/>
      <point x="137" y="289"/>
      <point x="119" y="235" type="curve" smooth="yes"/>
      <point x="98" y="173"/>
      <point x="95" y="141"/>
      <point x="95" y="117" type="curve" smooth="yes"/>
      <point x="95" y="94"/>
      <point x="100" y="77"/>
      <point x="108" y="62" type="curve"/>
      <point x="158" y="110" type="line"/>
    </contour>
  </outline>
</glyph>
<glyph name="m" format="1">
  <advance width="456"/>
  <unicode hex="006D"/>
  <outline>
    <contour>
      <point x="445" y="58" type="line"/>
      <point x="389" y="-7" type="line"/>
      <point x="367" y="7"/>
      <point x="341" y="22"/>
      <point x="324" y="30" type="curve"/>
      <point x="320" y="66"/>
      <point x="316" y="142"/>
      <point x="316" y="186" type="curve"/>
      <point x="287" y="154"/>
      <point x="255" y="94"/>
      <point x="248" y="5" type="curve"/>
      <point x="171" y="-5" type="line"/>
      <point x="177" y="37"/>
      <point x="179" y="63"/>
      <point x="179" y="107" type="curve" smooth="yes"/>
      <point x="179" y="142"/>
      <point x="175" y="168"/>
      <point x="170" y="192" type="curve"/>
      <point x="140" y="159"/>
      <point x="111" y="98"/>
      <point x="100" y="4" type="curve"/>
      <point x="22" y="-6" type="line"/>
      <point x="42" y="45"/>
      <point x="59" y="127"/>
      <point x="59" y="177" type="curve" smooth="yes"/>
      <point x="59" y="185"/>
      <point x="59" y="192"/>
      <point x="59" y="197" type="curve"/>
      <point x="20" y="207" type="line"/>
      <point x="41" y="269" type="line"/>
      <point x="119" y="250" type="line"/>
      <point x="119" y="250"/>
      <point x="119" y="189"/>
      <point x="119" y="173" type="curve"/>
      <point x="128" y="183"/>
      <point x="175" y="240"/>
      <point x="183" y="255" type="curve"/>
      <point x="255" y="238" type="line"/>
      <point x="255" y="216"/>
      <point x="255" y="166"/>
      <point x="255" y="146" type="curve"/>
      <point x="270" y="176"/>
      <point x="292" y="210"/>
      <point x="327" y="245" type="curve"/>
      <point x="400" y="219" type="line"/>
      <point x="395" y="192"/>
      <point x="393" y="162"/>
      <point x="393" y="136" type="curve" smooth="yes"/>
      <point x="393" y="111"/>
      <point x="395" y="76"/>
      <point x="402" y="50" type="curve"/>
      <point x="437" y="82" type="line"/>
    </contour>
  </outline>
</glyph>
<glyph name="n" format="1">
  <advance width="302"/>
  <unicode hex="006E"/>
  <outline>
    <contour>
      <point x="297" y="60" type="line"/>
      <point x="283" y="44"/>
      <point x="257" y="14"/>
      <point x="245" y="-2" type="curve"/>
      <point x="179" y="21" type="line"/>
      <point x="172" y="49"/>
      <point x="170" y="75"/>
      <point x="170" y="107" type="curve" smooth="yes"/>
      <point x="170" y="135"/>
      <point x="171" y="162"/>
      <point x="175" y="184" type="curve"/>
      <point x="136" y="136"/>
      <point x="110" y="83"/>
      <point x="100" y="7" type="curve"/>
      <point x="23" y="-10" type="line"/>
      <point x="44" y="52"/>
      <point x="54" y="108"/>
      <point x="56" y="189" type="curve"/>
      <point x="13" y="201" type="line"/>
      <point x="22" y="222"/>
      <point x="30" y="245"/>
      <point x="36" y="270" type="curve"/>
      <point x="124" y="249" type="line"/>
      <point x="124" y="163" type="line"/>
      <point x="137" y="182"/>
      <point x="180" y="229"/>
      <point x="195" y="241" type="curve"/>
      <point x="260" y="225" type="line"/>
      <point x="251" y="196"/>
      <point x="244" y="158"/>
      <point x="244" y="127" type="curve" smooth="yes"/>
      <point x="244" y="99"/>
      <point x="245" y="72"/>
      <point x="249" y="45" type="curve"/>
      <point x="286" y="79" type="line"/>
    </contour>
  </outline>
</glyph>
<glyph name="o" format="1">
  <advance width="261"/>
  <unicode hex="006F"/>
  <outline>
    <contour>
      <point x="258" y="260" type="line"/>
      <point x="254" y="223" type="line"/>
      <point x="216" y="208" type="line"/>
      <point x="220" y="196"/>
      <point x="225" y="177"/>
      <point x="225" y="152" type="curve" smooth="yes"/>
      <point x="225" y="74"/>
      <point x="169" y="-5"/>
      <point x="107" y="-5" type="curve" smooth="yes"/>
      <point x="56" y="-5"/>
      <point x="20" y="22"/>
      <point x="20" y="69" type="curve" smooth="yes"/>
      <point x="20" y="133"/>
      <point x="55" y="188"/>
      <point x="104" y="237" type="curve"/>
    </contour>
    <contour>
      <point x="162" y="65" type="curve"/>
      <point x="170" y="114"/>
      <point x="160" y="180"/>
      <point x="134" y="209" type="curve"/>
      <point x="108" y="172"/>
      <point x="97" y="128"/>
      <point x="97" y="82" type="curve" smooth="yes"/>
      <point x="97" y="58"/>
      <point x="104" y="44"/>
      <point x="117" y="44" type="curve" smooth="yes"/>
      <point x="138" y="44"/>
      <point x="151" y="52"/>
    </contour>
  </outline>
</glyph>
<glyph name="p" format="1">
  <advance width="284"/>
  <unicode hex="0070"/>
  <outline>
    <contour>
      <point x="277" y="64" type="line"/>
      <point x="227" y="-7" type="line"/>
      <point x="170" y="10" type="line"/>
      <point x="157" y="60"/>
      <point x="150" y="127"/>
      <point x="149" y="184" type="curve"/>
      <point x="100" y="125"/>
      <point x="76" y="4"/>
      <point x="46" y="-281" type="curve"/>
      <point x="-3" y="-287" type="line"/>
      <point x="6" y="-118"/>
      <point x="28" y="80"/>
      <point x="64" y="302" type="curve"/>
      <point x="136" y="306" type="line"/>
      <point x="121" y="260"/>
      <point x="112" y="225"/>
      <point x="105" y="190" type="curve"/>
      <point x="115" y="186" type="line"/>
      <point x="132" y="208"/>
      <point x="143" y="226"/>
      <point x="161" y="258" type="curve"/>
      <point x="234" y="251" type="line"/>
      <point x="229" y="210"/>
      <point x="227" y="173"/>
      <point x="227" y="135" type="curve" smooth="yes"/>
      <point x="227" y="111"/>
      <point x="228" y="81"/>
      <point x="231" y="51" type="curve"/>
      <point x="267" y="80" type="line"/>
    </contour>
  </outline>
</glyph>
<glyph name="q" format="1">
  <advance width="257"/>
  <unicode hex="0071"/>
  <outline>
    <contour>
      <point x="235" y="179" type="curve" smooth="yes"/>
      <point x="235" y="153"/>
      <point x="231" y="127"/>
      <point x="222" y="98" type="curve" smooth="yes"/>
      <point x="191" y="0"/>
      <point x="166" y="-113"/>
      <point x="164" y="-259" type="curve"/>
      <point x="208" y="-251" type="line"/>
      <point x="189" y="-286" type="line"/>
      <point x="84" y="-306" type="line"/>
      <point x="84" y="-219"/>
      <point x="126" y="-36"/>
      <point x="155" y="45" type="curve"/>
      <point x="129" y="24"/>
      <point x="89" y="6"/>
      <point x="69" y="6" type="curve" smooth="yes"/>
      <point x="31" y="6"/>
      <point x="15" y="20"/>
      <point x="15" y="41" type="curve" smooth="yes"/>
      <point x="15" y="103"/>
      <point x="84" y="174"/>
      <point x="147" y="217" type="curve"/>
      <point x="146" y="229"/>
      <point x="148" y="243"/>
      <point x="156" y="258" type="curve"/>
      <point x="227" y="239" type="line"/>
      <point x="233" y="220"/>
      <point x="235" y="202"/>
    </contour>
    <contour>
      <point x="165" y="90" type="curve"/>
      <point x="165" y="122"/>
      <point x="162" y="159"/>
      <point x="153" y="186" type="curve"/>
      <point x="113" y="151"/>
      <point x="96" y="122"/>
      <point x="96" y="79" type="curve" smooth="yes"/>
      <point x="96" y="68"/>
      <point x="100" y="57"/>
      <point x="113" y="57" type="curve" smooth="yes"/>
      <point x="129" y="57"/>
      <point x="147" y="69"/>
    </contour>
  </outline>
</glyph>
<glyph name="r" format="1">
  <advance width="251"/>
  <unicode hex="0072"/>
  <outline>
    <contour>
      <point x="243" y="265" type="curve"/>
      <point x="223" y="119" type="line"/>
      <point x="207" y="139"/>
      <point x="183" y="158"/>
      <point x="161" y="167" type="curve"/>
      <point x="141" y="132"/>
      <point x="118" y="57"/>
      <point x="101" y="-14" type="curve"/>
      <point x="35" y="3" type="line"/>
      <point x="53" y="52"/>
      <point x="63" y="99"/>
      <point x="63" y="143" type="curve" smooth="yes"/>
      <point x="63" y="157"/>
      <point x="61" y="175"/>
      <point x="58" y="194" type="curve"/>
      <point x="10" y="194" type="line"/>
      <point x="35" y="258" type="line"/>
      <point x="123" y="258" type="line"/>
      <point x="124" y="234"/>
      <point x="131" y="211"/>
      <point x="144" y="188" type="curve"/>
      <point x="175" y="241"/>
      <point x="196" y="265"/>
    </contour>
  </outline>
</glyph>
<glyph name="s" format="1">
  <advance width="234"/>
  <unicode hex="0073"/>
  <outline>
    <contour>
      <point x="214" y="186" type="curve"/>
      <point x="175" y="176" type="line"/>
      <point x="166" y="201"/>
      <point x="143" y="221"/>
      <point x="125" y="222" type="curve"/>
      <point x="125" y="202" type="line" smooth="yes"/>
      <point x="125" y="182"/>
      <point x="135" y="168"/>
      <point x="174" y="129" type="curve" smooth="yes"/>
      <point x="197" y="106"/>
      <point x="207" y="95"/>
      <point x="207" y="71" type="curve" smooth="yes"/>
      <point x="207" y="50"/>
      <point x="179" y="17"/>
      <point x="150" y="-7" type="curve"/>
      <point x="50" y="-7"/>
      <point x="17" y="8"/>
      <point x="17" y="51" type="curve" smooth="yes"/>
      <point x="17" y="61"/>
      <point x="20" y="72"/>
      <point x="23" y="81" type="curve"/>
      <point x="65" y="93" type="line"/>
      <point x="64" y="57"/>
      <point x="92" y="31"/>
      <point x="139" y="27" type="curve"/>
      <point x="140" y="30"/>
      <point x="140" y="34"/>
      <point x="140" y="38" type="curve" smooth="yes"/>
      <point x="140" y="55"/>
      <point x="124" y="73"/>
      <point x="101" y="97" type="curve" smooth="yes"/>
      <point x="82" y="117"/>
      <point x="62" y="139"/>
      <point x="62" y="172" type="curve" smooth="yes"/>
      <point x="62" y="221" type="line"/>
      <point x="173" y="266" type="line"/>
      <point x="193" y="248"/>
      <point x="208" y="214"/>
    </contour>
  </outline>
</glyph>
<glyph name="t" format="1">
  <advance width="203"/>
  <unicode hex="0074"/>
  <outline>
    <contour>
      <point x="203" y="322" type="line"/>
      <point x="200" y="295" type="line"/>
      <point x="151" y="273" type="line"/>
      <point x="137" y="209"/>
      <point x="117" y="138"/>
      <point x="102" y="101" type="curve"/>
      <point x="114" y="51" type="line"/>
      <point x="129" y="63"/>
      <point x="150" y="83"/>
      <point x="160" y="96" type="curve"/>
      <point x="176" y="86" type="line"/>
      <point x="114" y="-10" type="line"/>
      <point x="35" y="12" type="line"/>
      <point x="35" y="55"/>
      <point x="41" y="105"/>
      <point x="49" y="145" type="curve" smooth="yes"/>
      <point x="56" y="179"/>
      <point x="64" y="215"/>
      <point x="72" y="252" type="curve"/>
      <point x="21" y="247" type="line"/>
      <point x="27" y="274"/>
      <point x="31" y="286"/>
      <point x="44" y="313" type="curve"/>
      <point x="87" y="317" type="line"/>
      <point x="94" y="343"/>
      <point x="102" y="382"/>
      <point x="104" y="406" type="curve"/>
      <point x="167" y="414" type="line"/>
      <point x="166" y="398"/>
      <point x="159" y="333"/>
      <point x="157" y="319" type="curve"/>
    </contour>
  </outline>
</glyph>
<glyph name="u" format="1">
  <advance width="301"/>
  <unicode hex="0075"/>
  <outline>
    <contour>
      <point x="289" y="48" type="line"/>
      <point x="219" y="-14" type="line"/>
      <point x="193" y="7"/>
      <point x="169" y="43"/>
      <point x="167" y="79" type="curve"/>
      <point x="150" y="46"/>
      <point x="115" y="17"/>
      <point x="79" y="-5" type="curve"/>
      <point x="24" y="42" type="line"/>
      <point x="40" y="106"/>
      <point x="45" y="199"/>
      <point x="44" y="266" type="curve"/>
      <point x="122" y="261" type="line"/>
      <point x="120" y="196"/>
      <point x="109" y="112"/>
      <point x="94" y="55" type="curve"/>
      <point x="152" y="80"/>
      <point x="167" y="116"/>
      <point x="191" y="258" type="curve"/>
      <point x="260" y="249" type="line"/>
      <point x="247" y="194"/>
      <point x="238" y="140"/>
      <point x="238" y="109" type="curve" smooth="yes"/>
      <point x="238" y="81"/>
      <point x="240" y="66"/>
      <point x="248" y="48" type="curve"/>
      <point x="281" y="74" type="line"/>
    </contour>
  </outline>
</glyph>
<glyph name="v" format="1">
  <advance width="254"/>
  <unicode hex="0076"/>
  <outline>
    <contour>
      <point x="267" y="259" type="line"/>
      <point x="136" y="-16" type="line"/>
      <point x="59" y="18" type="line"/>
      <point x="26" y="243" type="line"/>
      <point x="102" y="263" type="line"/>
      <point x="117" y="40" type="line"/>
      <point x="167" y="124" type="line"/>
      <point x="184" y="244" type="line"/>
    </contour>
  </outline>
</glyph>
<glyph name="w" format="1">
  <advance width="393"/>
  <unicode hex="0077"/>
  <outline>
    <contour>
      <point x="403" y="247" type="line"/>
      <point x="285" y="-7" type="line"/>
      <point x="220" y="10" type="line"/>
      <point x="217" y="57"/>
      <point x="208" y="126"/>
      <point x="201" y="169" type="curve"/>
      <point x="197" y="169" type="line"/>
      <point x="172" y="118"/>
      <point x="138" y="39"/>
      <point x="118" y="-8" type="curve"/>
      <point x="48" y="14" type="line"/>
      <point x="44" y="81"/>
      <point x="35" y="168"/>
      <point x="26" y="234" type="curve"/>
      <point x="106" y="249" type="line"/>
      <point x="106" y="57" type="line"/>
      <point x="155" y="127" type="line"/>
      <point x="174" y="230" type="line"/>
      <point x="271" y="252" type="line"/>
      <point x="270" y="171"/>
      <point x="270" y="112"/>
      <point x="274" y="54" type="curve"/>
      <point x="317" y="116" type="line"/>
      <point x="339" y="232" type="line"/>
    </contour>
  </outline>
</glyph>
<glyph name="x" format="1">
  <advance width="247"/>
  <unicode hex="0078"/>
  <outline>
    <contour>
      <point x="270" y="288" type="line"/>
      <point x="245" y="259"/>
      <point x="211" y="216"/>
      <point x="176" y="172" type="curve"/>
      <point x="190" y="126"/>
      <point x="202" y="78"/>
      <point x="208" y="41" type="curve"/>
      <point x="153" y="-10" type="line"/>
      <point x="144" y="31"/>
      <point x="134" y="68"/>
      <point x="122" y="101" type="curve"/>
      <point x="88" y="56"/>
      <point x="58" y="14"/>
      <point x="43" y="-11" type="curve"/>
      <point x="7" y="23" type="line"/>
      <point x="29" y="46"/>
      <point x="68" y="90"/>
      <point x="109" y="137" type="curve"/>
      <point x="88" y="191"/>
      <point x="64" y="232"/>
      <point x="42" y="258" type="curve"/>
      <point x="127" y="299" type="line"/>
      <point x="140" y="274"/>
      <point x="153" y="240"/>
      <point x="165" y="203" type="curve"/>
      <point x="190" y="232"/>
      <point x="212" y="259"/>
      <point x="226" y="278" type="curve"/>
    </contour>
  </outline>
</glyph>
<glyph name="y" format="1">
  <advance width="280"/>
  <unicode hex="0079"/>
  <outline>
    <contour>
      <point x="267" y="247" type="line"/>
      <point x="237" y="169"/>
      <point x="225" y="100"/>
      <point x="225" y="-30" type="curve" smooth="yes"/>
      <point x="225" y="-148"/>
      <point x="208" y="-233"/>
      <point x="185" y="-301" type="curve"/>
      <point x="162" y="-305"/>
      <point x="68" y="-304"/>
      <point x="42" y="-290" type="curve"/>
      <point x="48" y="-212" type="line"/>
      <point x="80" y="-258" type="line"/>
      <point x="129" y="-247" type="line"/>
      <point x="157" y="-187"/>
      <point x="172" y="-103"/>
      <point x="172" y="61" type="curve"/>
      <point x="164" y="65" type="line"/>
      <point x="109" y="-8" type="line"/>
      <point x="64" y="-8"/>
      <point x="27" y="20"/>
      <point x="27" y="67" type="curve" smooth="yes"/>
      <point x="27" y="115"/>
      <point x="42" y="171"/>
      <point x="76" y="249" type="curve"/>
      <point x="46" y="242" type="line"/>
      <point x="40" y="264" type="line"/>
      <point x="153" y="289" type="line"/>
      <point x="115" y="199"/>
      <point x="101" y="145"/>
      <point x="101" y="86" type="curve" smooth="yes"/>
      <point x="101" y="63"/>
      <point x="106" y="56"/>
      <point x="119" y="56" type="curve" smooth="yes"/>
      <point x="142" y="56"/>
      <point x="171" y="119"/>
      <point x="191" y="238" type="curve"/>
    </contour>
  </outline>
</glyph>
<glyph name="z" format="1">
  <advance width="184"/>
  <unicode hex="007A"/>
  <outline>
    <contour>
      <point x="173" y="254" type="line"/>
      <point x="167" y="147"/>
      <point x="129" y="103"/>
      <point x="93" y="70" type="curve"/>
      <point x="104" y="67"/>
      <point x="113" y="67"/>
      <point x="121" y="67" type="curve" smooth="yes"/>
      <point x="137" y="67"/>
      <point x="155" y="69"/>
      <point x="170" y="73" type="curve"/>
      <point x="158" y="1" type="line"/>
      <point x="145" y="-4"/>
      <point x="123" y="-8"/>
      <point x="92" y="-8" type="curve" smooth="yes"/>
      <point x="67" y="-8"/>
      <point x="31" y="3"/>
      <point x="17" y="19" type="curve"/>
      <point x="29" y="75" type="line"/>
      <point x="82" y="90"/>
      <point x="118" y="127"/>
      <point x="118" y="172" type="curve" smooth="yes"/>
      <point x="118" y="178"/>
      <point x="117" y="183"/>
      <point x="115" y="188" type="curve"/>
      <point x="45" y="188" type="line"/>
      <point x="68" y="261" type="line"/>
    </contour>
  </outline>
</glyph>
<glyph name="braceleft" format="1">
  <advance width="155"/>
  <unicode hex="007B"/>
  <outline>
    <contour>
      <point x="143" y="-68" type="line"/>
      <point x="132" y="-123" type="line"/>
      <point x="32" y="-74" type="line"/>
      <point x="25" y="-31" type="line"/>
      <point x="54" y="8"/>
      <point x="90" y="61"/>
      <point x="90" y="92" type="curve" smooth="yes"/>
      <point x="90" y="105"/>
      <point x="86" y="118"/>
      <point x="77" y="129" type="curve"/>
      <point x="60" y="119"/>
      <point x="38" y="110"/>
      <point x="10" y="99" type="curve"/>
      <point x="7" y="151" type="line"/>
      <point x="87" y="186"/>
      <point x="100" y="198"/>
      <point x="100" y="215" type="curve" smooth="yes"/>
      <point x="100" y="228"/>
      <point x="94" y="243"/>
      <point x="79" y="262" type="curve" smooth="yes"/>
      <point x="49" y="301"/>
      <point x="30" y="329"/>
      <point x="30" y="371" type="curve" smooth="yes"/>
      <point x="30" y="376"/>
      <point x="31" y="393"/>
      <point x="32" y="399" type="curve"/>
      <point x="124" y="448" type="line"/>
      <point x="127" y="387" type="line"/>
      <point x="67" y="364" type="line"/>
      <point x="66" y="361"/>
      <point x="66" y="360"/>
      <point x="66" y="357" type="curve" smooth="yes"/>
      <point x="66" y="336"/>
      <point x="74" y="311"/>
      <point x="94" y="284" type="curve" smooth="yes"/>
      <point x="111" y="260"/>
      <point x="126" y="230"/>
      <point x="126" y="211" type="curve" smooth="yes"/>
      <point x="126" y="181"/>
      <point x="118" y="161"/>
      <point x="97" y="144" type="curve"/>
      <point x="109" y="129"/>
      <point x="115" y="112"/>
      <point x="115" y="94" type="curve" smooth="yes"/>
      <point x="115" y="67"/>
      <point x="92" y="13"/>
      <point x="65" y="-32" type="curve"/>
    </contour>
  </outline>
</glyph>
<glyph name="bar" format="1">
  <advance width="150"/>
  <unicode hex="007C"/>
  <outline>
    <contour>
      <point x="102" y="463" type="line"/>
      <point x="94" y="361"/>
      <point x="86" y="77"/>
      <point x="86" y="-98" type="curve"/>
      <point x="52" y="-104" type="line"/>
      <point x="53" y="470" type="line"/>
    </contour>
  </outline>
</glyph>
<glyph name="braceright" format="1">
  <advance width="155"/>
  <unicode hex="007D"/>
  <outline>
    <contour>
      <point x="148" y="173" type="line"/>
      <point x="68" y="138"/>
      <point x="55" y="126"/>
      <point x="55" y="109" type="curve" smooth="yes"/>
      <point x="55" y="96"/>
      <point x="61" y="81"/>
      <point x="76" y="62" type="curve" smooth="yes"/>
      <point x="106" y="23"/>
      <point x="125" y="-5"/>
      <point x="125" y="-47" type="curve" smooth="yes"/>
      <point x="125" y="-52"/>
      <point x="124" y="-69"/>
      <point x="123" y="-75" type="curve"/>
      <point x="31" y="-124" type="line"/>
      <point x="28" y="-63" type="line"/>
      <point x="88" y="-40" type="line"/>
      <point x="89" y="-37"/>
      <point x="89" y="-36"/>
      <point x="89" y="-33" type="curve" smooth="yes"/>
      <point x="89" y="-12"/>
      <point x="81" y="13"/>
      <point x="61" y="40" type="curve" smooth="yes"/>
      <point x="44" y="64"/>
      <point x="29" y="94"/>
      <point x="29" y="113" type="curve" smooth="yes"/>
      <point x="29" y="143"/>
      <point x="37" y="163"/>
      <point x="58" y="180" type="curve"/>
      <point x="46" y="195"/>
      <point x="40" y="212"/>
      <point x="40" y="230" type="curve" smooth="yes"/>
      <point x="40" y="257"/>
      <point x="63" y="311"/>
      <point x="90" y="356" type="curve"/>
      <point x="12" y="392" type="line"/>
      <point x="23" y="447" type="line"/>
      <point x="123" y="398" type="line"/>
      <point x="130" y="355" type="line"/>
      <point x="101" y="316"/>
      <point x="65" y="263"/>
      <point x="65" y="232" type="curve" smooth="yes"/>
      <point x="65" y="219"/>
      <point x="69" y="206"/>
      <point x="78" y="195" type="curve"/>
      <point x="95" y="205"/>
      <point x="117" y="214"/>
      <point x="145" y="225" type="curve"/>
    </contour>
  </outline>
</glyph>
<glyph name="exclamdown" format="1">
  <advance width="122"/>
  <unicode hex="00A1"/>
  <outline>
    <contour>
      <point x="133" y="475" type="curve" smooth="yes"/>
      <point x="133" y="455"/>
      <point x="123" y="437"/>
      <point x="112" y="425" type="curve"/>
      <point x="40" y="421" type="line"/>
      <point x="50" y="446"/>
      <point x="58" y="478"/>
      <point x="61" y="505" type="curve"/>
      <point x="98" y="509"/>
      <point x="133" y="500"/>
    </contour>
    <contour>
      <point x="121" y="334" type="line"/>
      <point x="119" y="242"/>
      <point x="95" y="118"/>
      <point x="54" y="-12" type="curve"/>
      <point x="-14" y="-19" type="line"/>
      <point x="35" y="82"/>
      <point x="82" y="207"/>
      <point x="92" y="328" type="curve"/>
    </contour>
  </outline>
</glyph>
<glyph name="cent" format="1">
  <advance width="210"/>
  <unicode hex="00A2"/>
  <outline>
    <contour>
      <point x="187" y="141" type="line"/>
      <point x="173" y="102"/>
      <point x="147" y="57"/>
      <point x="113" y="22" type="curve"/>
      <point x="102" y="24" type="line"/>
      <point x="92" y="-35" type="line"/>
      <point x="73" y="-35" type="line"/>
      <point x="84" y="29" type="line"/>
      <point x="37" y="40" type="line"/>
      <point x="34" y="61"/>
      <point x="32" y="82"/>
      <point x="32" y="102" type="curve" smooth="yes"/>
      <point x="32" y="180"/>
      <point x="59" y="247"/>
      <point x="90" y="305" type="curve"/>
      <point x="129" y="301" type="line"/>
      <point x="141" y="369" type="line"/>
      <point x="161" y="369" type="line"/>
      <point x="149" y="298" type="line"/>
      <point x="178" y="295" type="line"/>
      <point x="178" y="219" type="line"/>
      <point x="137" y="227" type="line"/>
      <point x="114" y="92" type="line"/>
      <point x="135" y="107"/>
      <point x="152" y="128"/>
      <point x="161" y="151" type="curve"/>
    </contour>
    <contour>
      <point x="118" y="232" type="line"/>
      <point x="112" y="233" type="line"/>
      <point x="90" y="207"/>
      <point x="74" y="165"/>
      <point x="74" y="124" type="curve" smooth="yes"/>
      <point x="74" y="107"/>
      <point x="77" y="92"/>
      <point x="85" y="80" type="curve"/>
      <point x="93" y="82" type="line"/>
    </contour>
  </outline>
</glyph>
<glyph name="yen" format="1">
  <advance width="351"/>
  <unicode hex="00A5"/>
  <outline>
    <contour>
      <point x="370" y="422" type="line"/>
      <point x="318" y="311"/>
      <point x="269" y="221"/>
      <point x="218" y="146" type="curve"/>
      <point x="209" y="90" type="line"/>
      <point x="299" y="92" type="line"/>
      <point x="296" y="65" type="line"/>
      <point x="205" y="64" type="line"/>
      <point x="200" y="29" type="line"/>
      <point x="309" y="32" type="line"/>
      <point x="310" y="6" type="line"/>
      <point x="196" y="3" type="line"/>
      <point x="183" y="-86" type="line"/>
      <point x="139" y="-99" type="line"/>
      <point x="156" y="2" type="line"/>
      <point x="52" y="-1" type="line"/>
      <point x="52" y="25" type="line"/>
      <point x="161" y="28" type="line"/>
      <point x="167" y="64" type="line"/>
      <point x="44" y="63" type="line"/>
      <point x="52" y="86" type="line"/>
      <point x="171" y="89" type="line"/>
      <point x="180" y="137" type="line"/>
      <point x="115" y="224"/>
      <point x="54" y="328"/>
      <point x="1" y="441" type="curve"/>
      <point x="84" y="481" type="line"/>
      <point x="122" y="379"/>
      <point x="172" y="280"/>
      <point x="218" y="200" type="curve"/>
      <point x="277" y="291"/>
      <point x="308" y="362"/>
      <point x="329" y="466" type="curve"/>
    </contour>
  </outline>
</glyph>
<glyph name="section" format="1">
  <advance width="257"/>
  <unicode hex="00A7"/>
  <outline>
    <contour>
      <point x="230" y="240" type="curve" smooth="yes"/>
      <point x="230" y="202"/>
      <point x="206" y="175"/>
      <point x="141" y="150" type="curve"/>
      <point x="156" y="134"/>
      <point x="175" y="114"/>
      <point x="193" y="94" type="curve" smooth="yes"/>
      <point x="217" y="68"/>
      <point x="228" y="53"/>
      <point x="228" y="24" type="curve" smooth="yes"/>
      <point x="228" y="0"/>
      <point x="214" y="-23"/>
      <point x="198" y="-39" type="curve" smooth="yes"/>
      <point x="164" y="-74"/>
      <point x="134" y="-109"/>
      <point x="112" y="-140" type="curve"/>
      <point x="87" y="-128" type="line"/>
      <point x="129" y="-57" type="line" smooth="yes"/>
      <point x="142" y="-34"/>
      <point x="150" y="-17"/>
      <point x="150" y="2" type="curve" smooth="yes"/>
      <point x="150" y="22"/>
      <point x="140" y="37"/>
      <point x="123" y="58" type="curve" smooth="yes"/>
      <point x="104" y="82"/>
      <point x="84" y="105"/>
      <point x="66" y="126" type="curve"/>
      <point x="49" y="122"/>
      <point x="30" y="117"/>
      <point x="10" y="113" type="curve"/>
      <point x="5" y="138" type="line"/>
      <point x="129" y="175"/>
      <point x="152" y="192"/>
      <point x="152" y="224" type="curve" smooth="yes"/>
      <point x="152" y="234"/>
      <point x="141" y="247"/>
      <point x="129" y="258" type="curve" smooth="yes"/>
      <point x="80" y="304" type="line" smooth="yes"/>
      <point x="62" y="321"/>
      <point x="54" y="332"/>
      <point x="54" y="354" type="curve" smooth="yes"/>
      <point x="54" y="405"/>
      <point x="146" y="431"/>
      <point x="206" y="444" type="curve"/>
      <point x="212" y="420" type="line"/>
      <point x="175" y="412"/>
      <point x="137" y="399"/>
      <point x="137" y="373" type="curve" smooth="yes"/>
      <point x="137" y="359"/>
      <point x="142" y="350"/>
      <point x="154" y="339" type="curve" smooth="yes"/>
      <point x="198" y="298" type="line" smooth="yes"/>
      <point x="219" y="278"/>
      <point x="230" y="268"/>
    </contour>
  </outline>
</glyph>
<glyph name="dieresis" format="1">
  <advance width="240"/>
  <unicode hex="00A8"/>
  <outline>
    <contour>
      <point x="105" y="310" type="curve"/>
      <point x="55" y="302" type="line"/>
      <point x="46" y="310"/>
      <point x="41" y="322"/>
      <point x="41" y="332" type="curve" smooth="yes"/>
      <point x="41" y="357"/>
      <point x="75" y="366"/>
      <point x="99" y="369" type="curve"/>
      <point x="97" y="346"/>
      <point x="100" y="327"/>
    </contour>
    <contour>
      <point x="202" y="361" type="line"/>
      <point x="193" y="341"/>
      <point x="188" y="317"/>
      <point x="188" y="296" type="curve"/>
      <point x="164" y="299"/>
      <point x="137" y="307"/>
      <point x="137" y="330" type="curve" smooth="yes"/>
      <point x="137" y="341"/>
      <point x="139" y="347"/>
      <point x="145" y="356" type="curve"/>
    </contour>
  </outline>
</glyph>
<glyph name="copyright" format="1">
  <advance width="549"/>
  <unicode hex="00A9"/>
  <outline>
    <contour>
      <point x="534" y="288" type="curve" smooth="yes"/>
      <point x="534" y="100"/>
      <point x="422" y="-66"/>
      <point x="241" y="-66" type="curve" smooth="yes"/>
      <point x="106" y="-66"/>
      <point x="15" y="42"/>
      <point x="15" y="199" type="curve" smooth="yes"/>
      <point x="15" y="375"/>
      <point x="135" y="546"/>
      <point x="322" y="597" type="curve"/>
      <point x="327" y="581" type="line"/>
      <point x="158" y="535"/>
      <point x="64" y="376"/>
      <point x="64" y="224" type="curve" smooth="yes"/>
      <point x="64" y="83"/>
      <point x="126" y="-35"/>
      <point x="265" y="-35" type="curve" smooth="yes"/>
      <point x="403" y="-35"/>
      <point x="487" y="88"/>
      <point x="487" y="268" type="curve" smooth="yes"/>
      <point x="487" y="392"/>
      <point x="432" y="478"/>
      <point x="366" y="519" type="curve"/>
      <point x="362" y="542" type="line"/>
      <point x="405" y="550" type="line"/>
      <point x="480" y="504"/>
      <point x="534" y="407"/>
    </contour>
    <contour>
      <point x="351" y="418" type="curve" smooth="yes"/>
      <point x="351" y="403"/>
      <point x="345" y="371"/>
      <point x="342" y="350" type="curve"/>
      <point x="311" y="333" type="line"/>
      <point x="311" y="343"/>
      <point x="310" y="365"/>
      <point x="310" y="382" type="curve" smooth="yes"/>
      <point x="310" y="399"/>
      <point x="302" y="416"/>
      <point x="291" y="423" type="curve"/>
      <point x="248" y="397"/>
      <point x="197" y="336"/>
      <point x="197" y="261" type="curve" smooth="yes"/>
      <point x="197" y="169"/>
      <point x="265" y="91"/>
      <point x="337" y="53" type="curve"/>
      <point x="329" y="38" type="line"/>
      <point x="247" y="76"/>
      <point x="149" y="149"/>
      <point x="149" y="264" type="curve" smooth="yes"/>
      <point x="149" y="384"/>
      <point x="235" y="447"/>
      <point x="315" y="466" type="curve"/>
      <point x="336" y="461"/>
      <point x="351" y="441"/>
    </contour>
  </outline>
</glyph>
<glyph name="ordfeminine" format="1">
  <advance width="181"/>
  <unicode hex="00AA"/>
  <outline>
    <contour>
      <point x="182" y="249" type="line"/>
      <point x="152" y="186" type="line"/>
      <point x="127" y="192"/>
      <point x="110" y="207"/>
      <point x="103" y="228" type="curve"/>
      <point x="87" y="200"/>
      <point x="69" y="180"/>
      <point x="45" y="180" type="curve" smooth="yes"/>
      <point x="30" y="180"/>
      <point x="11" y="195"/>
      <point x="11" y="214" type="curve" smooth="yes"/>
      <point x="11" y="268"/>
      <point x="56" y="325"/>
      <point x="110" y="370" type="curve"/>
      <point x="146" y="361" type="line"/>
      <point x="144" y="338"/>
      <point x="142" y="316"/>
      <point x="142" y="298" type="curve" smooth="yes"/>
      <point x="142" y="262"/>
      <point x="145" y="242"/>
      <point x="150" y="231" type="curve"/>
      <point x="170" y="256" type="line"/>
    </contour>
    <contour>
      <point x="158" y="139" type="curve"/>
      <point x="156" y="110" type="line"/>
      <point x="138" y="112"/>
      <point x="103" y="112"/>
      <point x="83" y="112" type="curve" smooth="yes"/>
      <point x="60" y="112"/>
      <point x="35" y="112"/>
      <point x="16" y="110" type="curve"/>
      <point x="22" y="150" type="line"/>
      <point x="60" y="150"/>
      <point x="128" y="145"/>
    </contour>
    <contour>
      <point x="105" y="340" type="curve"/>
      <point x="72" y="310"/>
      <point x="50" y="263"/>
      <point x="50" y="241" type="curve" smooth="yes"/>
      <point x="50" y="230"/>
      <point x="53" y="225"/>
      <point x="63" y="225" type="curve" smooth="yes"/>
      <point x="81" y="225"/>
      <point x="93" y="248"/>
      <point x="100" y="272" type="curve"/>
      <point x="100" y="291"/>
      <point x="101" y="315"/>
    </contour>
  </outline>
</glyph>
<glyph name="guillemotleft" format="1">
  <advance width="260"/>
  <unicode hex="00AB"/>
  <outline>
    <contour>
      <point x="237" y="-2" type="line"/>
      <point x="217" y="-14" type="line"/>
      <point x="126" y="130" type="line"/>
      <point x="217" y="264" type="line"/>
      <point x="237" y="254" type="line"/>
      <point x="192" y="133" type="line"/>
    </contour>
    <contour>
      <point x="135" y="-2" type="line"/>
      <point x="115" y="-14" type="line"/>
      <point x="24" y="130" type="line"/>
      <point x="115" y="264" type="line"/>
      <point x="135" y="254" type="line"/>
      <point x="90" y="133" type="line"/>
    </contour>
  </outline>
</glyph>
<glyph name="degree" format="1">
  <advance width="220"/>
  <unicode hex="00B0"/>
  <outline>
    <contour>
      <point x="188" y="344" type="curve" smooth="yes"/>
      <point x="188" y="301"/>
      <point x="153" y="266"/>
      <point x="110" y="266" type="curve" smooth="yes"/>
      <point x="67" y="266"/>
      <point x="32" y="301"/>
      <point x="32" y="344" type="curve" smooth="yes"/>
      <point x="32" y="387"/>
      <point x="67" y="424"/>
      <point x="110" y="424" type="curve" smooth="yes"/>
      <point x="153" y="424"/>
      <point x="188" y="387"/>
    </contour>
    <contour>
      <point x="157" y="344" type="curve" smooth="yes"/>
      <point x="157" y="371"/>
      <point x="137" y="393"/>
      <point x="110" y="393" type="curve" smooth="yes"/>
      <point x="83" y="393"/>
      <point x="63" y="371"/>
      <point x="63" y="344" type="curve" smooth="yes"/>
      <point x="63" y="317"/>
      <point x="83" y="297"/>
      <point x="110" y="297" type="curve" smooth="yes"/>
      <point x="137" y="297"/>
      <point x="157" y="317"/>
    </contour>
  </outline>
</glyph>
<glyph name="acute" format="1">
  <advance width="240"/>
  <unicode hex="00B4"/>
  <outline>
    <contour>
      <point x="174" y="362" type="curve" smooth="yes"/>
      <point x="174" y="348"/>
      <point x="169" y="338"/>
      <point x="149" y="327" type="curve" smooth="yes"/>
      <point x="81" y="290" type="line"/>
      <point x="70" y="307" type="line"/>
      <point x="156" y="402" type="line"/>
      <point x="165" y="393"/>
      <point x="174" y="375"/>
    </contour>
  </outline>
</glyph>
<glyph name="paragraph" format="1">
  <advance width="278"/>
  <unicode hex="00B6"/>
  <outline>
    <contour>
      <point x="314" y="449" type="curve"/>
      <point x="291" y="375" type="line"/>
      <point x="274" y="381"/>
      <point x="265" y="384"/>
      <point x="250" y="389" type="curve"/>
      <point x="225" y="352"/>
      <point x="215" y="327"/>
      <point x="215" y="260" type="curve" smooth="yes"/>
      <point x="215" y="216"/>
      <point x="226" y="96"/>
      <point x="226" y="47" type="curve" smooth="yes"/>
      <point x="226" y="-57"/>
      <point x="199" y="-118"/>
      <point x="146" y="-152" type="curve"/>
      <point x="93" y="-129" type="line"/>
      <point x="86" y="-59" type="line"/>
      <point x="111" y="-73"/>
      <point x="145" y="-80"/>
      <point x="176" y="-80" type="curve"/>
      <point x="185" y="-21"/>
      <point x="188" y="49"/>
      <point x="188" y="224" type="curve" smooth="yes"/>
      <point x="188" y="313"/>
      <point x="191" y="353"/>
      <point x="208" y="402" type="curve"/>
      <point x="179" y="410"/>
      <point x="142" y="415"/>
      <point x="115" y="415" type="curve" smooth="yes"/>
      <point x="67" y="415"/>
      <point x="48" y="393"/>
      <point x="48" y="355" type="curve" smooth="yes"/>
      <point x="48" y="288"/>
      <point x="68" y="250"/>
      <point x="88" y="222" type="curve"/>
      <point x="146" y="222" type="line"/>
      <point x="159" y="190" type="line"/>
      <point x="92" y="149" type="line"/>
      <point x="61" y="197"/>
      <point x="23" y="275"/>
      <point x="23" y="347" type="curve" smooth="yes"/>
      <point x="23" y="425"/>
      <point x="51" y="479"/>
      <point x="138" y="479" type="curve" smooth="yes"/>
      <point x="192" y="479"/>
      <point x="234" y="471"/>
    </contour>
  </outline>
</glyph>
<glyph name="periodcentered" format="1">
  <advance width="126"/>
  <unicode hex="00B7"/>
  <outline>
    <contour>
      <point x="118" y="166" type="line"/>
      <point x="106" y="142"/>
      <point x="97" y="112"/>
      <point x="94" y="86" type="curve"/>
      <point x="63" y="88"/>
      <point x="25" y="98"/>
      <point x="25" y="126" type="curve" smooth="yes"/>
      <point x="25" y="142"/>
      <point x="32" y="155"/>
      <point x="43" y="166" type="curve"/>
    </contour>
  </outline>
</glyph>
<glyph name="cedilla" format="1">
  <advance width="240"/>
  <unicode hex="00B8"/>
  <outline>
    <contour>
      <point x="167" y="-23" type="line"/>
      <point x="158" y="-78"/>
      <point x="127" y="-115"/>
      <point x="94" y="-131" type="curve"/>
      <point x="83" y="-119" type="line"/>
      <point x="103" y="-103"/>
      <point x="118" y="-84"/>
      <point x="121" y="-60" type="curve"/>
      <point x="85" y="-47" type="line"/>
      <point x="98" y="-19" type="line"/>
    </contour>
  </outline>
</glyph>
<glyph name="ordmasculine" format="1">
  <advance width="164"/>
  <unicode hex="00BA"/>
  <outline>
    <contour>
      <point x="169" y="373" type="line"/>
      <point x="164" y="337" type="line"/>
      <point x="134" y="328" type="line"/>
      <point x="136" y="318"/>
      <point x="138" y="303"/>
      <point x="138" y="278" type="curve" smooth="yes"/>
      <point x="138" y="237"/>
      <point x="102" y="177"/>
      <point x="65" y="177" type="curve" smooth="yes"/>
      <point x="31" y="177"/>
      <point x="16" y="194"/>
      <point x="16" y="223" type="curve" smooth="yes"/>
      <point x="16" y="267"/>
      <point x="45" y="317"/>
      <point x="82" y="357" type="curve"/>
    </contour>
    <contour>
      <point x="143" y="140" type="curve"/>
      <point x="141" y="110" type="line"/>
      <point x="126" y="112"/>
      <point x="85" y="112"/>
      <point x="69" y="112" type="curve" smooth="yes"/>
      <point x="49" y="112"/>
      <point x="29" y="112"/>
      <point x="14" y="110" type="curve"/>
      <point x="18" y="150" type="line"/>
      <point x="62" y="150"/>
      <point x="121" y="144"/>
    </contour>
    <contour>
      <point x="112" y="261" type="curve"/>
      <point x="88" y="329" type="line"/>
      <point x="66" y="297"/>
      <point x="59" y="265"/>
      <point x="59" y="245" type="curve" smooth="yes"/>
      <point x="59" y="223"/>
      <point x="63" y="215"/>
      <point x="76" y="215" type="curve" smooth="yes"/>
      <point x="90" y="215"/>
      <point x="103" y="233"/>
    </contour>
  </outline>
</glyph>
<glyph name="guillemotright" format="1">
  <advance width="260"/>
  <unicode hex="00BB"/>
  <outline>
    <contour>
      <point x="236" y="122" type="line"/>
      <point x="145" y="-12" type="line"/>
      <point x="125" y="-2" type="line"/>
      <point x="170" y="119" type="line"/>
      <point x="125" y="254" type="line"/>
      <point x="145" y="266" type="line"/>
    </contour>
    <contour>
      <point x="134" y="122" type="line"/>
      <point x="43" y="-12" type="line"/>
      <point x="23" y="-2" type="line"/>
      <point x="68" y="119" type="line"/>
      <point x="23" y="254" type="line"/>
      <point x="43" y="266" type="line"/>
    </contour>
  </outline>
</glyph>
<glyph name="questiondown" format="1">
  <advance width="203"/>
  <unicode hex="00BF"/>
  <outline>
    <contour>
      <point x="182" y="330" type="curve" smooth="yes"/>
      <point x="182" y="314"/>
      <point x="169" y="299"/>
      <point x="158" y="288" type="curve"/>
      <point x="83" y="298" type="line"/>
      <point x="102" y="320"/>
      <point x="121" y="355"/>
      <point x="127" y="378" type="curve"/>
      <point x="157" y="367"/>
      <point x="182" y="359"/>
    </contour>
    <contour>
      <point x="188" y="7" type="line"/>
      <point x="115" y="-53" type="line"/>
      <point x="98" y="-36" type="line"/>
      <point x="135" y="-6" type="line"/>
      <point x="67" y="11"/>
      <point x="11" y="44"/>
      <point x="11" y="100" type="curve" smooth="yes"/>
      <point x="11" y="134"/>
      <point x="30" y="154"/>
      <point x="91" y="191" type="curve" smooth="yes"/>
      <point x="174" y="242" type="line"/>
      <point x="184" y="221" type="line"/>
      <point x="113" y="172" type="line" smooth="yes"/>
      <point x="90" y="156"/>
      <point x="82" y="145"/>
      <point x="82" y="118" type="curve" smooth="yes"/>
      <point x="82" y="83"/>
      <point x="118" y="56"/>
      <point x="184" y="42" type="curve"/>
    </contour>
  </outline>
</glyph>
<glyph name="Adieresis" format="1">
  <advance width="551"/>
  <unicode hex="00C4"/>
  <outline>
    <contour>
      <point x="570" y="671" type="line"/>
      <point x="558" y="642"/>
      <point x="552" y="609"/>
      <point x="552" y="580" type="curve"/>
      <point x="518" y="584"/>
      <point x="479" y="596"/>
      <point x="479" y="628" type="curve" smooth="yes"/>
      <point x="479" y="642"/>
      <point x="483" y="652"/>
      <point x="491" y="665" type="curve"/>
    </contour>
    <contour>
      <point x="321" y="589" type="curve"/>
      <point x="249" y="578" type="line"/>
      <point x="238" y="589"/>
      <point x="231" y="606"/>
      <point x="231" y="620" type="curve" smooth="yes"/>
      <point x="231" y="656"/>
      <point x="278" y="669"/>
      <point x="312" y="672" type="curve"/>
      <point x="309" y="640"/>
      <point x="314" y="614"/>
    </contour>
    <component base="A"/>
  </outline>
</glyph>
<glyph name="Aring" format="1">
  <advance width="551"/>
  <unicode hex="00C5"/>
  <outline>
    <contour>
      <point x="561" y="-20" type="line"/>
      <point x="477" y="-133" type="line"/>
      <point x="434" y="-110" type="line"/>
      <point x="424" y="-27"/>
      <point x="410" y="91"/>
      <point x="402" y="175" type="curve"/>
      <point x="250" y="137" type="line"/>
      <point x="216" y="63"/>
      <point x="181" y="-2"/>
      <point x="124" y="-2" type="curve" smooth="yes"/>
      <point x="95" y="-2"/>
      <point x="66" y="19"/>
      <point x="46" y="62" type="curve" smooth="yes"/>
      <point x="0" y="159" type="line"/>
      <point x="19" y="231" type="line" smooth="yes"/>
      <point x="27" y="261"/>
      <point x="48" y="285"/>
      <point x="76" y="285" type="curve" smooth="yes"/>
      <point x="95" y="285"/>
      <point x="106" y="280"/>
      <point x="119" y="267" type="curve"/>
      <point x="124" y="216" type="line"/>
      <point x="114" y="219"/>
      <point x="103" y="222"/>
      <point x="91" y="222" type="curve" smooth="yes"/>
      <point x="54" y="222"/>
      <point x="38" y="215"/>
      <point x="25" y="178" type="curve"/>
      <point x="62" y="120" type="line" smooth="yes"/>
      <point x="79" y="93"/>
      <point x="101" y="81"/>
      <point x="136" y="81" type="curve" smooth="yes"/>
      <point x="182" y="81"/>
      <point x="202" y="103"/>
      <point x="239" y="192" type="curve" smooth="yes"/>
      <point x="279" y="287"/>
      <point x="345" y="467"/>
      <point x="378" y="605" type="curve"/>
      <point x="357" y="618"/>
      <point x="344" y="641"/>
      <point x="344" y="667" type="curve" smooth="yes"/>
      <point x="344" y="708"/>
      <point x="377" y="743"/>
      <point x="418" y="743" type="curve" smooth="yes"/>
      <point x="459" y="743"/>
      <point x="492" y="708"/>
      <point x="492" y="667" type="curve" smooth="yes"/>
      <point x="492" y="636"/>
      <point x="473" y="609"/>
      <point x="445" y="598" type="curve"/>
      <point x="456" y="403"/>
      <point x="475" y="191"/>
      <point x="511" y="-26" type="curve"/>
    </contour>
    <contour>
      <point x="460" y="667" type="curve" smooth="yes"/>
      <point x="460" y="691"/>
      <point x="442" y="711"/>
      <point x="418" y="711" type="curve" smooth="yes"/>
      <point x="394" y="711"/>
      <point x="376" y="691"/>
      <point x="376" y="667" type="curve" smooth="yes"/>
      <point x="376" y="643"/>
      <point x="394" y="625"/>
      <point x="418" y="625" type="curve" smooth="yes"/>
      <point x="442" y="625"/>
      <point x="460" y="643"/>
    </contour>
    <contour>
      <point x="400" y="205" type="line"/>
      <point x="395" y="277"/>
      <point x="388" y="378"/>
      <point x="384" y="439" type="curve" smooth="yes"/>
      <point x="383" y="455"/>
      <point x="380" y="458"/>
      <point x="374" y="458" type="curve" smooth="yes"/>
      <point x="369" y="458"/>
      <point x="366" y="454"/>
      <point x="361" y="441" type="curve" smooth="yes"/>
      <point x="277" y="205" type="line"/>
    </contour>
  </outline>
</glyph>
<glyph name="AE" format="1">
  <advance width="708"/>
  <unicode hex="00C6"/>
  <outline>
    <contour>
      <point x="705" y="-13" type="line"/>
      <point x="654" y="-48"/>
      <point x="573" y="-75"/>
      <point x="467" y="-87" type="curve"/>
      <point x="458" y="-54"/>
      <point x="442" y="28"/>
      <point x="422" y="144" type="curve"/>
      <point x="358" y="145"/>
      <point x="299" y="150"/>
      <point x="260" y="157" type="curve"/>
      <point x="251" y="135" type="line" smooth="yes"/>
      <point x="223" y="67"/>
      <point x="177" y="-2"/>
      <point x="124" y="-2" type="curve" smooth="yes"/>
      <point x="95" y="-2"/>
      <point x="66" y="19"/>
      <point x="46" y="62" type="curve" smooth="yes"/>
      <point x="0" y="159" type="line"/>
      <point x="19" y="231" type="line" smooth="yes"/>
      <point x="27" y="261"/>
      <point x="48" y="285"/>
      <point x="76" y="285" type="curve" smooth="yes"/>
      <point x="95" y="285"/>
      <point x="106" y="280"/>
      <point x="119" y="267" type="curve"/>
      <point x="124" y="216" type="line"/>
      <point x="114" y="219"/>
      <point x="103" y="222"/>
      <point x="91" y="222" type="curve" smooth="yes"/>
      <point x="56" y="222"/>
      <point x="37" y="215"/>
      <point x="25" y="178" type="curve"/>
      <point x="62" y="120" type="line" smooth="yes"/>
      <point x="79" y="93"/>
      <point x="101" y="81"/>
      <point x="136" y="81" type="curve" smooth="yes"/>
      <point x="177" y="81"/>
      <point x="198" y="105"/>
      <point x="227" y="173" type="curve" smooth="yes"/>
      <point x="263" y="258"/>
      <point x="317" y="465"/>
      <point x="348" y="618" type="curve"/>
      <point x="392" y="618" type="line"/>
      <point x="396" y="587" type="line"/>
      <point x="472" y="586"/>
      <point x="627" y="589"/>
      <point x="673" y="594" type="curve"/>
      <point x="671" y="517" type="line"/>
      <point x="633" y="442" type="line"/>
      <point x="615" y="444" type="line"/>
      <point x="615" y="523" type="line"/>
      <point x="580" y="523"/>
      <point x="465" y="518"/>
      <point x="404" y="513" type="curve"/>
      <point x="414" y="419"/>
      <point x="429" y="324"/>
      <point x="449" y="219" type="curve"/>
      <point x="520" y="220"/>
      <point x="588" y="228"/>
      <point x="643" y="242" type="curve"/>
      <point x="648" y="233" type="line"/>
      <point x="602" y="172" type="line"/>
      <point x="564" y="157"/>
      <point x="515" y="147"/>
      <point x="463" y="144" type="curve"/>
      <point x="476" y="80"/>
      <point x="482" y="49"/>
      <point x="494" y="-3" type="curve"/>
      <point x="515" y="-5"/>
      <point x="530" y="-5"/>
      <point x="559" y="-5" type="curve" smooth="yes"/>
      <point x="598" y="-5"/>
      <point x="662" y="-2"/>
      <point x="701" y="8" type="curve"/>
    </contour>
    <contour>
      <point x="409" y="219" type="curve"/>
      <point x="397" y="290"/>
      <point x="385" y="366"/>
      <point x="375" y="436" type="curve" smooth="yes"/>
      <point x="371" y="466"/>
      <point x="368" y="469"/>
      <point x="359" y="469" type="curve" smooth="yes"/>
      <point x="350" y="469"/>
      <point x="347" y="463"/>
      <point x="342" y="441" type="curve" smooth="yes"/>
      <point x="331" y="390"/>
      <point x="312" y="309"/>
      <point x="287" y="230" type="curve"/>
      <point x="318" y="223"/>
      <point x="360" y="220"/>
    </contour>
  </outline>
</glyph>
<glyph name="Edieresis" format="1">
  <advance width="375"/>
  <unicode hex="00CB"/>
  <outline>
    <contour>
      <point x="201" y="660" type="curve"/>
      <point x="129" y="649" type="line"/>
      <point x="118" y="660"/>
      <point x="111" y="677"/>
      <point x="111" y="691" type="curve" smooth="yes"/>
      <point x="111" y="727"/>
      <point x="158" y="740"/>
      <point x="192" y="743" type="curve"/>
      <point x="189" y="711"/>
      <point x="194" y="685"/>
    </contour>
    <contour>
      <point x="340" y="731" type="line"/>
      <point x="328" y="702"/>
      <point x="322" y="669"/>
      <point x="322" y="640" type="curve"/>
      <point x="288" y="644"/>
      <point x="249" y="656"/>
      <point x="249" y="688" type="curve" smooth="yes"/>
      <point x="249" y="702"/>
      <point x="253" y="712"/>
      <point x="261" y="725" type="curve"/>
    </contour>
    <component base="E"/>
  </outline>
</glyph>
<glyph name="Idieresis" format="1">
  <advance width="185"/>
  <unicode hex="00CF"/>
  <outline>
    <contour>
      <point x="120" y="645" type="curve"/>
      <point x="48" y="634" type="line"/>
      <point x="37" y="645"/>
      <point x="30" y="662"/>
      <point x="30" y="676" type="curve" smooth="yes"/>
      <point x="30" y="712"/>
      <point x="77" y="725"/>
      <point x="111" y="728" type="curve"/>
      <point x="108" y="696"/>
      <point x="113" y="670"/>
    </contour>
    <contour>
      <point x="249" y="716" type="line"/>
      <point x="237" y="687"/>
      <point x="231" y="654"/>
      <point x="231" y="625" type="curve"/>
      <point x="197" y="629"/>
      <point x="158" y="641"/>
      <point x="158" y="673" type="curve" smooth="yes"/>
      <point x="158" y="687"/>
      <point x="162" y="697"/>
      <point x="170" y="710" type="curve"/>
    </contour>
    <component base="I"/>
  </outline>
</glyph>
<glyph name="Eth" format="1">
  <advance width="410"/>
  <unicode hex="00D0"/>
  <outline>
    <contour>
      <point x="430" y="518" type="line"/>
      <point x="420" y="490"/>
      <point x="410" y="463"/>
      <point x="398" y="437" type="curve"/>
      <point x="407" y="404"/>
      <point x="412" y="368"/>
      <point x="412" y="330" type="curve" smooth="yes"/>
      <point x="412" y="283"/>
      <point x="396" y="236"/>
      <point x="378" y="187" type="curve" smooth="yes"/>
      <point x="360" y="139"/>
      <point x="339" y="38"/>
      <point x="330" y="-69" type="curve"/>
      <point x="250" y="-115" type="line"/>
      <point x="182" y="-82"/>
      <point x="88" y="7"/>
      <point x="52" y="78" type="curve"/>
      <point x="12" y="84" type="line"/>
      <point x="38" y="162" type="line"/>
      <point x="102" y="171" type="line"/>
      <point x="107" y="158"/>
      <point x="112" y="145"/>
      <point x="119" y="131" type="curve"/>
      <point x="152" y="144"/>
      <point x="187" y="170"/>
      <point x="221" y="206" type="curve"/>
      <point x="187" y="230"/>
      <point x="157" y="265"/>
      <point x="136" y="314" type="curve"/>
      <point x="174" y="342" type="line"/>
      <point x="187" y="304"/>
      <point x="208" y="260"/>
      <point x="240" y="228" type="curve"/>
      <point x="272" y="265"/>
      <point x="302" y="310"/>
      <point x="329" y="361" type="curve"/>
      <point x="311" y="453"/>
      <point x="267" y="516"/>
      <point x="184" y="553" type="curve"/>
      <point x="177" y="523"/>
      <point x="183" y="486"/>
      <point x="204" y="464" type="curve"/>
      <point x="183" y="444" type="line"/>
      <point x="153" y="466"/>
      <point x="134" y="503"/>
      <point x="134" y="563" type="curve"/>
      <point x="204" y="612" type="line"/>
      <point x="292" y="596"/>
      <point x="349" y="548"/>
      <point x="381" y="481" type="curve"/>
      <point x="387" y="496"/>
      <point x="392" y="512"/>
      <point x="397" y="528" type="curve"/>
    </contour>
    <contour>
      <point x="339" y="242" type="curve" smooth="yes"/>
      <point x="339" y="268"/>
      <point x="338" y="293"/>
      <point x="335" y="316" type="curve"/>
      <point x="311" y="277"/>
      <point x="286" y="241"/>
      <point x="260" y="210" type="curve"/>
      <point x="267" y="205"/>
      <point x="275" y="200"/>
      <point x="283" y="196" type="curve"/>
      <point x="271" y="179" type="line"/>
      <point x="262" y="183"/>
      <point x="253" y="187"/>
      <point x="244" y="191" type="curve"/>
      <point x="208" y="152"/>
      <point x="171" y="122"/>
      <point x="134" y="105" type="curve"/>
      <point x="165" y="52"/>
      <point x="214" y="1"/>
      <point x="289" y="-28" type="curve"/>
      <point x="305" y="18"/>
      <point x="315" y="59"/>
      <point x="324" y="109" type="curve" smooth="yes"/>
      <point x="332" y="153"/>
      <point x="339" y="197"/>
    </contour>
  </outline>
</glyph>
<glyph name="Odieresis" format="1">
  <advance width="543"/>
  <unicode hex="00D6"/>
  <outline>
    <contour>
      <point x="314" y="636" type="curve"/>
      <point x="242" y="625" type="line"/>
      <point x="231" y="636"/>
      <point x="224" y="653"/>
      <point x="224" y="667" type="curve" smooth="yes"/>
      <point x="224" y="703"/>
      <point x="271" y="716"/>
      <point x="305" y="719" type="curve"/>
      <point x="302" y="687"/>
      <point x="307" y="661"/>
    </contour>
    <contour>
      <point x="465" y="707" type="line"/>
      <point x="453" y="678"/>
      <point x="447" y="645"/>
      <point x="447" y="616" type="curve"/>
      <point x="413" y="620"/>
      <point x="374" y="632"/>
      <point x="374" y="664" type="curve" smooth="yes"/>
      <point x="374" y="678"/>
      <point x="378" y="688"/>
      <point x="386" y="701" type="curve"/>
    </contour>
    <component base="O"/>
  </outline>
</glyph>
<glyph name="Oslash" format="1">
  <advance width="543"/>
  <unicode hex="00D8"/>
  <outline>
    <contour>
      <point x="562" y="447" type="curve"/>
      <point x="508" y="419" type="line"/>
      <point x="516" y="392"/>
      <point x="523" y="360"/>
      <point x="523" y="321" type="curve" smooth="yes"/>
      <point x="523" y="166"/>
      <point x="445" y="-67"/>
      <point x="271" y="-76" type="curve"/>
      <point x="265" y="-128" type="line"/>
      <point x="237" y="-126" type="line"/>
      <point x="243" y="-75" type="line"/>
      <point x="128" y="-67"/>
      <point x="44" y="26"/>
      <point x="44" y="199" type="curve" smooth="yes"/>
      <point x="44" y="344"/>
      <point x="123" y="473"/>
      <point x="246" y="547" type="curve"/>
      <point x="262" y="523" type="line"/>
      <point x="161" y="455"/>
      <point x="114" y="346"/>
      <point x="114" y="225" type="curve" smooth="yes"/>
      <point x="114" y="123"/>
      <point x="156" y="42"/>
      <point x="255" y="15" type="curve"/>
      <point x="332" y="619" type="line"/>
      <point x="360" y="618" type="line"/>
      <point x="282" y="9" type="line"/>
      <point x="299" y="6"/>
      <point x="317" y="5"/>
      <point x="336" y="5" type="curve" smooth="yes"/>
      <point x="359" y="5"/>
      <point x="375" y="9"/>
      <point x="390" y="16" type="curve"/>
      <point x="440" y="84"/>
      <point x="477" y="175"/>
      <point x="477" y="297" type="curve" smooth="yes"/>
      <point x="477" y="341"/>
      <point x="476" y="364"/>
      <point x="463" y="406" type="curve"/>
      <point x="436" y="414"/>
      <point x="410" y="424"/>
      <point x="389" y="439" type="curve"/>
      <point x="389" y="483" type="line"/>
      <point x="472" y="518" type="line"/>
      <point x="488" y="481"/>
      <point x="513" y="461"/>
    </contour>
  </outline>
</glyph>
<glyph name="Udieresis" format="1">
  <advance width="559"/>
  <unicode hex="00DC"/>
  <outline>
    <contour>
      <point x="346" y="626" type="curve"/>
      <point x="274" y="615" type="line"/>
      <point x="263" y="626"/>
      <point x="256" y="643"/>
      <point x="256" y="657" type="curve" smooth="yes"/>
      <point x="256" y="693"/>
      <point x="303" y="706"/>
      <point x="337" y="709" type="curve"/>
      <point x="334" y="677"/>
      <point x="339" y="651"/>
    </contour>
    <contour>
      <point x="485" y="697" type="line"/>
      <point x="473" y="668"/>
      <point x="467" y="635"/>
      <point x="467" y="606" type="curve"/>
      <point x="433" y="610"/>
      <point x="394" y="622"/>
      <point x="394" y="654" type="curve" smooth="yes"/>
      <point x="394" y="668"/>
      <point x="398" y="678"/>
      <point x="406" y="691" type="curve"/>
    </contour>
    <component base="U"/>
  </outline>
</glyph>
<glyph name="Thorn" format="1">
  <advance width="408"/>
  <unicode hex="00DE"/>
  <outline>
    <contour>
      <point x="404" y="308" type="curve" smooth="yes"/>
      <point x="404" y="216"/>
      <point x="302" y="150"/>
      <point x="209" y="105" type="curve"/>
      <point x="152" y="105" type="line"/>
      <point x="245" y="159"/>
      <point x="313" y="224"/>
      <point x="313" y="295" type="curve" smooth="yes"/>
      <point x="313" y="335"/>
      <point x="275" y="361"/>
      <point x="166" y="364" type="curve"/>
      <point x="108" y="-73" type="line"/>
      <point x="78" y="-81" type="line"/>
      <point x="135" y="364" type="line"/>
      <point x="122" y="363"/>
      <point x="109" y="362"/>
      <point x="97" y="360" type="curve"/>
      <point x="67" y="423" type="line"/>
      <point x="89" y="426"/>
      <point x="117" y="429"/>
      <point x="144" y="431" type="curve"/>
      <point x="157" y="532" type="line"/>
      <point x="100" y="559" type="line"/>
      <point x="110" y="585" type="line"/>
      <point x="196" y="585" type="line"/>
      <point x="175" y="431" type="line"/>
      <point x="322" y="429"/>
      <point x="404" y="397"/>
    </contour>
  </outline>
</glyph>
<glyph name="germandbls" format="1">
  <advance width="311"/>
  <unicode hex="00DF"/>
  <outline>
    <contour>
      <point x="290" y="254" type="line"/>
      <point x="284" y="147"/>
      <point x="246" y="103"/>
      <point x="210" y="70" type="curve"/>
      <point x="221" y="67"/>
      <point x="230" y="67"/>
      <point x="238" y="67" type="curve" smooth="yes"/>
      <point x="254" y="67"/>
      <point x="272" y="69"/>
      <point x="287" y="73" type="curve"/>
      <point x="275" y="1" type="line"/>
      <point x="262" y="-4"/>
      <point x="240" y="-8"/>
      <point x="209" y="-8" type="curve" smooth="yes"/>
      <point x="184" y="-8"/>
      <point x="148" y="3"/>
      <point x="134" y="19" type="curve"/>
      <point x="146" y="75" type="line"/>
      <point x="199" y="90"/>
      <point x="235" y="127"/>
      <point x="235" y="172" type="curve" smooth="yes"/>
      <point x="235" y="178"/>
      <point x="234" y="183"/>
      <point x="232" y="188" type="curve"/>
      <point x="162" y="188" type="line"/>
      <point x="145" y="209" type="line"/>
      <point x="178" y="252"/>
      <point x="198" y="308"/>
      <point x="198" y="377" type="curve" smooth="yes"/>
      <point x="198" y="425"/>
      <point x="188" y="454"/>
      <point x="160" y="481" type="curve"/>
      <point x="114" y="405"/>
      <point x="96" y="319"/>
      <point x="96" y="196" type="curve" smooth="yes"/>
      <point x="96" y="73"/>
      <point x="109" y="35"/>
      <point x="109" y="-41" type="curve" smooth="yes"/>
      <point x="109" y="-110"/>
      <point x="98" y="-175"/>
      <point x="74" y="-238" type="curve"/>
      <point x="138" y="-216" type="line"/>
      <point x="118" y="-269" type="line"/>
      <point x="-12" y="-302" type="line"/>
      <point x="29" y="-196"/>
      <point x="44" y="-112"/>
      <point x="44" y="59" type="curve" smooth="yes"/>
      <point x="44" y="95"/>
      <point x="47" y="148"/>
      <point x="51" y="218" type="curve"/>
      <point x="8" y="225" type="line"/>
      <point x="19" y="248"/>
      <point x="35" y="266"/>
      <point x="52" y="284" type="curve"/>
      <point x="63" y="402"/>
      <point x="84" y="503"/>
      <point x="126" y="593" type="curve"/>
      <point x="201" y="570" type="line"/>
      <point x="214" y="535"/>
      <point x="232" y="467"/>
      <point x="232" y="408" type="curve" smooth="yes"/>
      <point x="232" y="342"/>
      <point x="219" y="294"/>
      <point x="203" y="256" type="curve"/>
    </contour>
  </outline>
</glyph>
<glyph name="ae" format="1">
  <advance width="362"/>
  <unicode hex="00E6"/>
  <outline>
    <contour>
      <point x="347" y="198" type="curve" smooth="yes"/>
      <point x="347" y="164"/>
      <point x="295" y="129"/>
      <point x="221" y="110" type="curve"/>
      <point x="222" y="83"/>
      <point x="232" y="62"/>
      <point x="252" y="45" type="curve"/>
      <point x="278" y="51"/>
      <point x="300" y="69"/>
      <point x="320" y="91" type="curve"/>
      <point x="337" y="72" type="line"/>
      <point x="304" y="32"/>
      <point x="248" y="-4"/>
      <point x="215" y="-4" type="curve" smooth="yes"/>
      <point x="183" y="-4"/>
      <point x="166" y="19"/>
      <point x="159" y="45" type="curve"/>
      <point x="133" y="15"/>
      <point x="105" y="-7"/>
      <point x="63" y="-7" type="curve" smooth="yes"/>
      <point x="31" y="-7"/>
      <point x="11" y="20"/>
      <point x="11" y="54" type="curve" smooth="yes"/>
      <point x="11" y="81"/>
      <point x="22" y="102"/>
      <point x="40" y="121" type="curve"/>
      <point x="66" y="122"/>
      <point x="131" y="124"/>
      <point x="158" y="127" type="curve"/>
      <point x="156" y="178"/>
      <point x="138" y="192"/>
      <point x="110" y="192" type="curve" smooth="yes"/>
      <point x="87" y="192"/>
      <point x="63" y="185"/>
      <point x="54" y="177" type="curve"/>
      <point x="41" y="187" type="line"/>
      <point x="75" y="250" type="line"/>
      <point x="86" y="255"/>
      <point x="110" y="257"/>
      <point x="118" y="257" type="curve" smooth="yes"/>
      <point x="152" y="257"/>
      <point x="171" y="244"/>
      <point x="179" y="205" type="curve"/>
      <point x="186" y="227"/>
      <point x="196" y="248"/>
      <point x="210" y="270" type="curve"/>
      <point x="302" y="246"/>
      <point x="347" y="222"/>
    </contour>
    <contour>
      <point x="279" y="178" type="curve" smooth="yes"/>
      <point x="279" y="192"/>
      <point x="268" y="199"/>
      <point x="240" y="208" type="curve"/>
      <point x="228" y="182"/>
      <point x="220" y="160"/>
      <point x="220" y="133" type="curve"/>
      <point x="261" y="144"/>
      <point x="279" y="160"/>
    </contour>
    <contour>
      <point x="155" y="105" type="curve"/>
      <point x="135" y="102"/>
      <point x="109" y="100"/>
      <point x="92" y="99" type="curve"/>
      <point x="87" y="90"/>
      <point x="85" y="81"/>
      <point x="85" y="72" type="curve" smooth="yes"/>
      <point x="85" y="54"/>
      <point x="93" y="45"/>
      <point x="103" y="45" type="curve" smooth="yes"/>
      <point x="122" y="45"/>
      <point x="139" y="53"/>
      <point x="154" y="75" type="curve"/>
      <point x="154" y="83"/>
      <point x="154" y="96"/>
    </contour>
  </outline>
</glyph>
<glyph name="ccedilla" format="1">
  <advance width="208"/>
  <unicode hex="00E7"/>
  <outline>
    <contour>
      <point x="195" y="111" type="line"/>
      <point x="181" y="72"/>
      <point x="155" y="26"/>
      <point x="119" y="-9" type="curve"/>
      <point x="41" y="9" type="line"/>
      <point x="36" y="29"/>
      <point x="32" y="53"/>
      <point x="32" y="73" type="curve" smooth="yes"/>
      <point x="32" y="153"/>
      <point x="58" y="218"/>
      <point x="90" y="275" type="curve"/>
      <point x="186" y="265" type="line"/>
      <point x="186" y="186" type="line"/>
      <point x="123" y="199" type="line"/>
      <point x="95" y="174"/>
      <point x="77" y="140"/>
      <point x="77" y="94" type="curve" smooth="yes"/>
      <point x="77" y="79"/>
      <point x="81" y="66"/>
      <point x="86" y="55" type="curve"/>
      <point x="126" y="57"/>
      <point x="149" y="84"/>
      <point x="167" y="121" type="curve"/>
    </contour>
    <contour>
      <point x="129" y="-23" type="line"/>
      <point x="120" y="-78"/>
      <point x="89" y="-115"/>
      <point x="56" y="-131" type="curve"/>
      <point x="45" y="-119" type="line"/>
      <point x="65" y="-103"/>
      <point x="80" y="-84"/>
      <point x="83" y="-60" type="curve"/>
      <point x="47" y="-47" type="line"/>
      <point x="60" y="-19" type="line"/>
    </contour>
  </outline>
</glyph>
<glyph name="eth" format="1">
  <advance width="248"/>
  <unicode hex="00F0"/>
  <outline>
    <contour>
      <point x="230" y="162" type="curve" smooth="yes"/>
      <point x="230" y="66"/>
      <point x="147" y="-4"/>
      <point x="89" y="-4" type="curve" smooth="yes"/>
      <point x="41" y="-4"/>
      <point x="17" y="22"/>
      <point x="17" y="66" type="curve" smooth="yes"/>
      <point x="17" y="133"/>
      <point x="83" y="198"/>
      <point x="143" y="242" type="curve"/>
      <point x="127" y="302"/>
      <point x="117" y="348"/>
      <point x="109" y="388" type="curve"/>
      <point x="53" y="363" type="line"/>
      <point x="47" y="384" type="line"/>
      <point x="104" y="417" type="line"/>
      <point x="98" y="461"/>
      <point x="96" y="494"/>
      <point x="96" y="528" type="curve"/>
      <point x="152" y="539" type="line"/>
      <point x="152" y="536"/>
      <point x="152" y="533"/>
      <point x="152" y="530" type="curve" smooth="yes"/>
      <point x="152" y="506"/>
      <point x="155" y="483"/>
      <point x="161" y="450" type="curve"/>
      <point x="213" y="480" type="line"/>
      <point x="217" y="435" type="line"/>
      <point x="170" y="414" type="line"/>
      <point x="176" y="393"/>
      <point x="183" y="367"/>
      <point x="192" y="337" type="curve" smooth="yes"/>
      <point x="212" y="272"/>
      <point x="230" y="216"/>
    </contour>
    <contour>
      <point x="177" y="86" type="curve"/>
      <point x="150" y="212" type="line"/>
      <point x="115" y="181"/>
      <point x="95" y="147"/>
      <point x="95" y="94" type="curve" smooth="yes"/>
      <point x="95" y="68"/>
      <point x="105" y="54"/>
      <point x="118" y="54" type="curve" smooth="yes"/>
      <point x="138" y="54"/>
      <point x="162" y="65"/>
    </contour>
  </outline>
</glyph>
<glyph name="oslash" format="1">
  <advance width="261"/>
  <unicode hex="00F8"/>
  <outline>
    <contour>
      <point x="258" y="260" type="line"/>
      <point x="254" y="223" type="line"/>
      <point x="216" y="208" type="line"/>
      <point x="220" y="196"/>
      <point x="225" y="177"/>
      <point x="225" y="152" type="curve" smooth="yes"/>
      <point x="225" y="74"/>
      <point x="169" y="-5"/>
      <point x="107" y="-5" type="curve" smooth="yes"/>
      <point x="106" y="-5"/>
      <point x="105" y="-5"/>
      <point x="104" y="-5" type="curve"/>
      <point x="91" y="-44" type="line"/>
      <point x="72" y="-38" type="line"/>
      <point x="83" y="-3" type="line"/>
      <point x="46" y="4"/>
      <point x="20" y="30"/>
      <point x="20" y="69" type="curve" smooth="yes"/>
      <point x="20" y="133"/>
      <point x="55" y="188"/>
      <point x="104" y="237" type="curve"/>
      <point x="165" y="246" type="line"/>
      <point x="183" y="301" type="line"/>
      <point x="202" y="296" type="line"/>
      <point x="187" y="249" type="line"/>
    </contour>
    <contour>
      <point x="146" y="190" type="line"/>
      <point x="143" y="197"/>
      <point x="139" y="204"/>
      <point x="134" y="209" type="curve"/>
      <point x="108" y="172"/>
      <point x="97" y="128"/>
      <point x="97" y="82" type="curve" smooth="yes"/>
      <point x="97" y="70"/>
      <point x="99" y="61"/>
      <point x="102" y="54" type="curve"/>
    </contour>
    <contour>
      <point x="162" y="65" type="curve"/>
      <point x="167" y="94"/>
      <point x="165" y="130"/>
      <point x="158" y="159" type="curve"/>
      <point x="120" y="44" type="line"/>
      <point x="139" y="45"/>
      <point x="151" y="53"/>
    </contour>
  </outline>
</glyph>
<glyph name="thorn" format="1">
  <advance width="272"/>
  <unicode hex="00FE"/>
  <outline>
    <contour>
      <point x="254" y="180" type="curve" smooth="yes"/>
      <point x="254" y="96"/>
      <point x="195" y="14"/>
      <point x="98" y="4" type="curve"/>
      <point x="99" y="-9"/>
      <point x="99" y="-24"/>
      <point x="99" y="-41" type="curve" smooth="yes"/>
      <point x="99" y="-110"/>
      <point x="87" y="-175"/>
      <point x="63" y="-238" type="curve"/>
      <point x="127" y="-216" type="line"/>
      <point x="107" y="-269" type="line"/>
      <point x="-23" y="-302" type="line"/>
      <point x="18" y="-196"/>
      <point x="32" y="-118"/>
      <point x="32" y="56" type="curve" smooth="yes"/>
      <point x="32" y="270"/>
      <point x="68" y="411"/>
      <point x="122" y="539" type="curve"/>
      <point x="221" y="556" type="line"/>
      <point x="163" y="463"/>
      <point x="112" y="329"/>
      <point x="97" y="200" type="curve"/>
      <point x="202" y="277" type="line"/>
      <point x="242" y="250"/>
      <point x="254" y="215"/>
    </contour>
    <contour>
      <point x="189" y="125" type="curve" smooth="yes"/>
      <point x="189" y="164"/>
      <point x="177" y="187"/>
      <point x="162" y="203" type="curve"/>
      <point x="93" y="166" type="line"/>
      <point x="93" y="153"/>
      <point x="92" y="139"/>
      <point x="92" y="125" type="curve" smooth="yes"/>
      <point x="92" y="101"/>
      <point x="93" y="82"/>
      <point x="94" y="62" type="curve"/>
      <point x="175" y="64"/>
      <point x="189" y="83"/>
    </contour>
  </outline>
</glyph>
<glyph name="dotlessi" format="1">
  <advance width="171"/>
  <unicode hex="0131"/>
  <outline>
    <contour>
      <point x="149" y="30" type="line"/>
      <point x="29" y="-21" type="line"/>
      <point x="33" y="157" type="line"/>
      <point x="74" y="239" type="line"/>
      <point x="134" y="255" type="line"/>
      <point x="99" y="45" type="line"/>
      <point x="149" y="59" type="line"/>
    </contour>
  </outline>
</glyph>
<glyph name="Lslash" format="1">
  <advance width="477"/>
  <unicode hex="0141"/>
  <outline>
    <contour>
      <point x="517" y="-59" type="line"/>
      <point x="436" y="-94" type="line"/>
      <point x="344" y="-71" type="line"/>
      <point x="285" y="-37"/>
      <point x="234" y="-8"/>
      <point x="184" y="13" type="curve"/>
      <point x="136" y="6" type="line"/>
      <point x="153" y="25" type="line"/>
      <point x="118" y="37"/>
      <point x="84" y="46"/>
      <point x="49" y="48" type="curve"/>
      <point x="65" y="11"/>
      <point x="96" y="-27"/>
      <point x="120" y="-45" type="curve"/>
      <point x="104" y="-63" type="line"/>
      <point x="44" y="-47"/>
      <point x="-6" y="-11"/>
      <point x="-9" y="45" type="curve"/>
      <point x="25" y="125" type="line"/>
      <point x="37" y="129"/>
      <point x="49" y="131"/>
      <point x="70" y="131" type="curve" smooth="yes"/>
      <point x="108" y="131"/>
      <point x="157" y="118"/>
      <point x="211" y="97" type="curve"/>
      <point x="241" y="135"/>
      <point x="268" y="176"/>
      <point x="293" y="219" type="curve"/>
      <point x="269" y="212"/>
      <point x="243" y="206"/>
      <point x="216" y="202" type="curve"/>
      <point x="200" y="245" type="line"/>
      <point x="247" y="248"/>
      <point x="285" y="254"/>
      <point x="317" y="263" type="curve"/>
      <point x="373" y="368"/>
      <point x="413" y="482"/>
      <point x="434" y="600" type="curve"/>
      <point x="483" y="600" type="line"/>
      <point x="492" y="579"/>
      <point x="495" y="558"/>
      <point x="495" y="530" type="curve" smooth="yes"/>
      <point x="495" y="500"/>
      <point x="482" y="450"/>
      <point x="472" y="426" type="curve"/>
      <point x="431" y="446" type="line"/>
      <point x="419" y="400"/>
      <point x="394" y="340"/>
      <point x="362" y="278" type="curve"/>
      <point x="385" y="288"/>
      <point x="404" y="300"/>
      <point x="421" y="315" type="curve"/>
      <point x="435" y="304" type="line"/>
      <point x="411" y="279"/>
      <point x="379" y="256"/>
      <point x="340" y="238" type="curve"/>
      <point x="309" y="183"/>
      <point x="273" y="129"/>
      <point x="238" y="86" type="curve"/>
      <point x="288" y="64"/>
      <point x="342" y="36"/>
      <point x="398" y="4" type="curve" smooth="yes"/>
      <point x="433" y="-16"/>
      <point x="477" y="-37"/>
      <point x="517" y="-40" type="curve"/>
    </contour>
  </outline>
</glyph>
<glyph name="lslash" format="1">
  <advance width="179"/>
  <unicode hex="0142"/>
  <outline>
    <contour>
      <point x="191" y="307" type="line"/>
      <point x="133" y="285" type="line"/>
      <point x="129" y="265"/>
      <point x="124" y="248"/>
      <point x="119" y="235" type="curve" smooth="yes"/>
      <point x="98" y="173"/>
      <point x="95" y="141"/>
      <point x="95" y="117" type="curve" smooth="yes"/>
      <point x="95" y="94"/>
      <point x="100" y="77"/>
      <point x="108" y="62" type="curve"/>
      <point x="158" y="110" type="line"/>
      <point x="171" y="94" type="line"/>
      <point x="99" y="-8" type="line"/>
      <point x="31" y="10" type="line"/>
      <point x="29" y="31"/>
      <point x="29" y="50"/>
      <point x="29" y="64" type="curve" smooth="yes"/>
      <point x="29" y="94"/>
      <point x="36" y="130"/>
      <point x="47" y="183" type="curve" smooth="yes"/>
      <point x="52" y="205"/>
      <point x="57" y="230"/>
      <point x="62" y="257" type="curve"/>
      <point x="18" y="240" type="line"/>
      <point x="12" y="262" type="line"/>
      <point x="68" y="292" type="line"/>
      <point x="79" y="364"/>
      <point x="88" y="448"/>
      <point x="87" y="536" type="curve"/>
      <point x="170" y="558" type="line"/>
      <point x="166" y="465"/>
      <point x="156" y="390"/>
      <point x="144" y="333" type="curve"/>
      <point x="188" y="356" type="line"/>
    </contour>
  </outline>
</glyph>
<glyph name="OE" format="1">
  <advance width="724"/>
  <unicode hex="0152"/>
  <outline>
    <contour>
      <point x="714" y="522" type="line"/>
      <point x="695" y="431" type="line"/>
      <point x="668" y="429" type="line"/>
      <point x="680" y="518" type="line"/>
      <point x="480" y="527" type="line"/>
      <point x="502" y="481"/>
      <point x="523" y="421"/>
      <point x="523" y="321" type="curve" smooth="yes"/>
      <point x="523" y="163"/>
      <point x="442" y="-76"/>
      <point x="261" y="-76" type="curve" smooth="yes"/>
      <point x="137" y="-76"/>
      <point x="44" y="17"/>
      <point x="44" y="199" type="curve" smooth="yes"/>
      <point x="44" y="386"/>
      <point x="176" y="546"/>
      <point x="363" y="597" type="curve"/>
      <point x="370" y="574" type="line"/>
      <point x="194" y="520"/>
      <point x="114" y="383"/>
      <point x="114" y="225" type="curve" smooth="yes"/>
      <point x="114" y="98"/>
      <point x="179" y="5"/>
      <point x="336" y="5" type="curve" smooth="yes"/>
      <point x="359" y="5"/>
      <point x="375" y="9"/>
      <point x="390" y="16" type="curve"/>
      <point x="440" y="84"/>
      <point x="477" y="175"/>
      <point x="477" y="297" type="curve" smooth="yes"/>
      <point x="477" y="399"/>
      <point x="447" y="459"/>
      <point x="411" y="509" type="curve"/>
      <point x="457" y="578" type="line"/>
      <point x="500" y="584"/>
      <point x="651" y="590"/>
      <point x="692" y="595" type="curve"/>
    </contour>
    <contour>
      <point x="714" y="270" type="curve"/>
      <point x="713" y="257" type="line"/>
      <point x="670" y="218" type="line"/>
      <point x="651" y="219"/>
      <point x="568" y="221"/>
      <point x="545" y="221" type="curve"/>
      <point x="571" y="275" type="line"/>
      <point x="600" y="274"/>
      <point x="678" y="272"/>
    </contour>
    <contour>
      <point x="692" y="13" type="curve"/>
      <point x="648" y="-65" type="line"/>
      <point x="632" y="-64"/>
      <point x="600" y="-63"/>
      <point x="580" y="-63" type="curve" smooth="yes"/>
      <point x="531" y="-63"/>
      <point x="463" y="-65"/>
      <point x="414" y="-71" type="curve"/>
      <point x="461" y="6" type="line"/>
      <point x="503" y="4"/>
      <point x="656" y="8"/>
    </contour>
  </outline>
</glyph>
<glyph name="oe" format="1">
  <advance width="357"/>
  <unicode hex="0153"/>
  <outline>
    <contour>
      <point x="344" y="198" type="curve" smooth="yes"/>
      <point x="344" y="154"/>
      <point x="286" y="123"/>
      <point x="212" y="97" type="curve"/>
      <point x="214" y="74"/>
      <point x="222" y="57"/>
      <point x="233" y="44" type="curve"/>
      <point x="258" y="50"/>
      <point x="290" y="69"/>
      <point x="311" y="89" type="curve"/>
      <point x="325" y="72" type="line"/>
      <point x="292" y="28"/>
      <point x="241" y="-4"/>
      <point x="209" y="-4" type="curve" smooth="yes"/>
      <point x="174" y="-4"/>
      <point x="157" y="10"/>
      <point x="150" y="30" type="curve"/>
      <point x="128" y="10"/>
      <point x="100" y="-4"/>
      <point x="70" y="-4" type="curve" smooth="yes"/>
      <point x="33" y="-4"/>
      <point x="15" y="14"/>
      <point x="15" y="53" type="curve" smooth="yes"/>
      <point x="15" y="144"/>
      <point x="98" y="230"/>
      <point x="191" y="264" type="curve"/>
      <point x="294" y="244"/>
      <point x="344" y="228"/>
    </contour>
    <contour>
      <point x="268" y="180" type="curve" smooth="yes"/>
      <point x="268" y="191"/>
      <point x="248" y="201"/>
      <point x="221" y="208" type="curve"/>
      <point x="214" y="183"/>
      <point x="210" y="154"/>
      <point x="210" y="125" type="curve"/>
      <point x="249" y="144"/>
      <point x="268" y="164"/>
    </contour>
    <contour>
      <point x="167" y="211" type="curve"/>
      <point x="118" y="186"/>
      <point x="91" y="131"/>
      <point x="91" y="77" type="curve" smooth="yes"/>
      <point x="91" y="57"/>
      <point x="98" y="48"/>
      <point x="110" y="48" type="curve" smooth="yes"/>
      <point x="123" y="48"/>
      <point x="135" y="53"/>
      <point x="144" y="61" type="curve"/>
      <point x="143" y="69"/>
      <point x="143" y="74"/>
      <point x="143" y="83" type="curve" smooth="yes"/>
      <point x="143" y="121"/>
      <point x="151" y="171"/>
    </contour>
  </outline>
</glyph>
<glyph name="Ydieresis" format="1">
  <advance width="679"/>
  <unicode hex="0178"/>
  <outline>
    <contour>
      <point x="393" y="585" type="curve"/>
      <point x="321" y="574" type="line"/>
      <point x="310" y="585"/>
      <point x="303" y="602"/>
      <point x="303" y="616" type="curve" smooth="yes"/>
      <point x="303" y="652"/>
      <point x="350" y="665"/>
      <point x="384" y="668" type="curve"/>
      <point x="381" y="636"/>
      <point x="386" y="610"/>
    </contour>
    <contour>
      <point x="552" y="656" type="line"/>
      <point x="540" y="627"/>
      <point x="534" y="594"/>
      <point x="534" y="565" type="curve"/>
      <point x="500" y="569"/>
      <point x="461" y="581"/>
      <point x="461" y="613" type="curve" smooth="yes"/>
      <point x="461" y="627"/>
      <point x="465" y="637"/>
      <point x="473" y="650" type="curve"/>
    </contour>
    <component base="Y"/>
  </outline>
</glyph>
<glyph name="florin" format="1">
  <advance width="220"/>
  <unicode hex="0192"/>
  <outline>
    <contour>
      <point x="236" y="455" type="line"/>
      <point x="218" y="469"/>
      <point x="191" y="479"/>
      <point x="160" y="481" type="curve"/>
      <point x="129" y="431"/>
      <point x="106" y="360"/>
      <point x="99" y="286" type="curve"/>
      <point x="131" y="273"/>
      <point x="166" y="267"/>
      <point x="215" y="266" type="curve"/>
      <point x="188" y="228" type="line"/>
      <point x="94" y="208" type="line"/>
      <point x="93" y="192"/>
      <point x="93" y="185"/>
      <point x="93" y="175" type="curve" smooth="yes"/>
      <point x="93" y="73"/>
      <point x="102" y="35"/>
      <point x="102" y="-41" type="curve" smooth="yes"/>
      <point x="102" y="-117"/>
      <point x="94" y="-176"/>
      <point x="70" y="-238" type="curve"/>
      <point x="24" y="-248" type="line"/>
      <point x="-63" y="-188" type="line"/>
      <point x="-59" y="-140" type="line"/>
      <point x="-40" y="-152"/>
      <point x="-1" y="-163"/>
      <point x="19" y="-166" type="curve"/>
      <point x="38" y="-115"/>
      <point x="46" y="-82"/>
      <point x="46" y="51" type="curve" smooth="yes"/>
      <point x="46" y="87"/>
      <point x="47" y="142"/>
      <point x="51" y="212" type="curve"/>
      <point x="8" y="225" type="line"/>
      <point x="19" y="248"/>
      <point x="35" y="266"/>
      <point x="52" y="284" type="curve"/>
      <point x="63" y="402"/>
      <point x="84" y="503"/>
      <point x="126" y="593" type="curve"/>
      <point x="193" y="568" type="line"/>
      <point x="235" y="516" type="line"/>
    </contour>
  </outline>
</glyph>
<glyph name="circumflex" format="1">
  <advance width="240"/>
  <unicode hex="02C6"/>
  <outline>
    <contour>
      <point x="195" y="308" type="curve"/>
      <point x="175" y="290" type="line"/>
      <point x="167" y="314"/>
      <point x="143" y="335"/>
      <point x="121" y="335" type="curve"/>
      <point x="52" y="290" type="line"/>
      <point x="46" y="306" type="line"/>
      <point x="116" y="386" type="line"/>
      <point x="157" y="383"/>
      <point x="185" y="349"/>
    </contour>
  </outline>
</glyph>
<glyph name="caron" format="1">
  <advance width="240"/>
  <unicode hex="02C7"/>
  <outline>
    <contour>
      <point x="194" y="360" type="line"/>
      <point x="124" y="280" type="line"/>
      <point x="84" y="284"/>
      <point x="55" y="317"/>
      <point x="45" y="358" type="curve"/>
      <point x="66" y="376" type="line"/>
      <point x="73" y="352"/>
      <point x="97" y="332"/>
      <point x="120" y="332" type="curve"/>
      <point x="188" y="376" type="line"/>
    </contour>
  </outline>
</glyph>
<glyph name="breve" format="1">
  <advance width="240"/>
  <unicode hex="02D8"/>
  <outline>
    <contour>
      <point x="210" y="380" type="line"/>
      <point x="196" y="323"/>
      <point x="161" y="295"/>
      <point x="119" y="295" type="curve" smooth="yes"/>
      <point x="76" y="295"/>
      <point x="47" y="313"/>
      <point x="30" y="351" type="curve"/>
      <point x="69" y="373" type="line"/>
      <point x="82" y="345"/>
      <point x="99" y="326"/>
      <point x="129" y="326" type="curve" smooth="yes"/>
      <point x="157" y="326"/>
      <point x="180" y="347"/>
      <point x="193" y="387" type="curve"/>
    </contour>
  </outline>
</glyph>
<glyph name="dotaccent" format="1">
  <advance width="240"/>
  <unicode hex="02D9"/>
  <outline>
    <contour>
      <point x="155" y="373" type="line"/>
      <point x="140" y="293" type="line"/>
      <point x="94" y="295" type="line"/>
      <point x="79" y="301"/>
      <point x="76" y="311"/>
      <point x="76" y="324" type="curve" smooth="yes"/>
      <point x="76" y="341"/>
      <point x="86" y="358"/>
      <point x="107" y="368" type="curve"/>
    </contour>
  </outline>
</glyph>
<glyph name="ring" format="1">
  <advance width="240"/>
  <unicode hex="02DA"/>
  <outline>
    <contour>
      <point x="194" y="354" type="curve" smooth="yes"/>
      <point x="194" y="313"/>
      <point x="161" y="280"/>
      <point x="120" y="280" type="curve" smooth="yes"/>
      <point x="79" y="280"/>
      <point x="46" y="313"/>
      <point x="46" y="354" type="curve" smooth="yes"/>
      <point x="46" y="395"/>
      <point x="79" y="430"/>
      <point x="120" y="430" type="curve" smooth="yes"/>
      <point x="161" y="430"/>
      <point x="194" y="395"/>
    </contour>
    <contour>
      <point x="162" y="354" type="curve" smooth="yes"/>
      <point x="162" y="378"/>
      <point x="144" y="398"/>
      <point x="120" y="398" type="curve" smooth="yes"/>
      <point x="96" y="398"/>
      <point x="78" y="378"/>
      <point x="78" y="354" type="curve" smooth="yes"/>
      <point x="78" y="330"/>
      <point x="96" y="312"/>
      <point x="120" y="312" type="curve" smooth="yes"/>
      <point x="144" y="312"/>
      <point x="162" y="330"/>
    </contour>
  </outline>
</glyph>
<glyph name="ogonek" format="1">
  <advance width="240"/>
  <unicode hex="02DB"/>
  <outline>
    <contour>
      <point x="166" y="-113" type="curve"/>
      <point x="158" y="-132" type="line"/>
      <point x="116" y="-120"/>
      <point x="78" y="-90"/>
      <point x="63" y="-50" type="curve"/>
      <point x="102" y="-5" type="line"/>
      <point x="139" y="-24" type="line"/>
      <point x="109" y="-60" type="line"/>
      <point x="116" y="-84"/>
      <point x="142" y="-104"/>
    </contour>
  </outline>
</glyph>
<glyph name="tilde" format="1">
  <advance width="240"/>
  <unicode hex="02DC"/>
  <outline>
    <contour>
      <point x="210" y="338" type="line"/>
      <point x="168" y="291" type="line"/>
      <point x="133" y="291"/>
      <point x="101" y="308"/>
      <point x="80" y="329" type="curve"/>
      <point x="46" y="303" type="line"/>
      <point x="30" y="315" type="line"/>
      <point x="75" y="371" type="line"/>
      <point x="110" y="376" type="line"/>
      <point x="122" y="350"/>
      <point x="144" y="333"/>
      <point x="165" y="327" type="curve"/>
      <point x="193" y="347" type="line"/>
    </contour>
  </outline>
</glyph>
<glyph name="hungarumlaut" format="1">
  <advance width="240"/>
  <unicode hex="02DD"/>
  <outline>
    <contour>
      <point x="114" y="384" type="curve" smooth="yes"/>
      <point x="114" y="373"/>
      <point x="109" y="363"/>
      <point x="102" y="354" type="curve" smooth="yes"/>
      <point x="53" y="291" type="line"/>
      <point x="39" y="303" type="line"/>
      <point x="83" y="423" type="line"/>
      <point x="103" y="411"/>
      <point x="114" y="398"/>
    </contour>
    <contour>
      <point x="209" y="363" type="curve" smooth="yes"/>
      <point x="209" y="349"/>
      <point x="204" y="339"/>
      <point x="186" y="328" type="curve" smooth="yes"/>
      <point x="125" y="291" type="line"/>
      <point x="115" y="308" type="line"/>
      <point x="192" y="403" type="line"/>
      <point x="200" y="394"/>
      <point x="209" y="376"/>
    </contour>
  </outline>
</glyph>
<glyph name="quoteleft" format="1">
  <advance width="103"/>
  <unicode hex="2018"/>
  <unicode hex="02BB"/>
  <outline>
    <contour>
      <point x="113" y="558" type="line"/>
      <point x="83" y="514"/>
      <point x="62" y="464"/>
      <point x="52" y="421" type="curve"/>
      <point x="19" y="411" type="line"/>
      <point x="24" y="453"/>
      <point x="40" y="513"/>
      <point x="55" y="548" type="curve"/>
    </contour>
  </outline>
</glyph>
<glyph name="quoteright" format="1">
  <advance width="103"/>
  <unicode hex="2019"/>
  <unicode hex="02BC"/>
  <outline>
    <contour>
      <point x="106" y="559" type="line"/>
      <point x="101" y="517"/>
      <point x="85" y="457"/>
      <point x="70" y="422" type="curve"/>
      <point x="12" y="412" type="line"/>
      <point x="42" y="456"/>
      <point x="63" y="506"/>
      <point x="73" y="549" type="curve"/>
    </contour>
  </outline>
</glyph>
<glyph name="quotesinglbase" format="1">
  <advance width="103"/>
  <unicode hex="201A"/>
  <outline>
    <contour>
      <point x="81" y="79" type="line"/>
      <point x="76" y="37"/>
      <point x="60" y="-23"/>
      <point x="45" y="-58" type="curve"/>
      <point x="-13" y="-68" type="line"/>
      <point x="17" y="-24"/>
      <point x="38" y="26"/>
      <point x="48" y="69" type="curve"/>
    </contour>
  </outline>
</glyph>
<glyph name="quotedblleft" format="1">
  <advance width="196"/>
  <unicode hex="201C"/>
  <outline>
    <contour>
      <point x="206" y="558" type="line"/>
      <point x="176" y="514"/>
      <point x="155" y="464"/>
      <point x="145" y="421" type="curve"/>
      <point x="112" y="411" type="line"/>
      <point x="117" y="453"/>
      <point x="133" y="513"/>
      <point x="148" y="548" type="curve"/>
    </contour>
    <contour>
      <point x="113" y="558" type="line"/>
      <point x="83" y="514"/>
      <point x="62" y="464"/>
      <point x="52" y="421" type="curve"/>
      <point x="19" y="411" type="line"/>
      <point x="24" y="453"/>
      <point x="40" y="513"/>
      <point x="55" y="548" type="curve"/>
    </contour>
  </outline>
</glyph>
<glyph name="quotedblright" format="1">
  <advance width="196"/>
  <unicode hex="201D"/>
  <outline>
    <contour>
      <point x="199" y="559" type="line"/>
      <point x="194" y="517"/>
      <point x="178" y="457"/>
      <point x="163" y="422" type="curve"/>
      <point x="105" y="412" type="line"/>
      <point x="135" y="456"/>
      <point x="156" y="506"/>
      <point x="166" y="549" type="curve"/>
    </contour>
    <contour>
      <point x="106" y="559" type="line"/>
      <point x="101" y="517"/>
      <point x="85" y="457"/>
      <point x="70" y="422" type="curve"/>
      <point x="12" y="412" type="line"/>
      <point x="42" y="456"/>
      <point x="63" y="506"/>
      <point x="73" y="549" type="curve"/>
    </contour>
  </outline>
</glyph>
<glyph name="quotedblbase" format="1">
  <advance width="196"/>
  <unicode hex="201E"/>
  <outline>
    <contour>
      <point x="174" y="79" type="line"/>
      <point x="169" y="37"/>
      <point x="153" y="-23"/>
      <point x="138" y="-58" type="curve"/>
      <point x="80" y="-68" type="line"/>
      <point x="110" y="-24"/>
      <point x="131" y="26"/>
      <point x="141" y="69" type="curve"/>
    </contour>
    <contour>
      <point x="81" y="79" type="line"/>
      <point x="76" y="37"/>
      <point x="60" y="-23"/>
      <point x="45" y="-58" type="curve"/>
      <point x="-13" y="-68" type="line"/>
      <point x="17" y="-24"/>
      <point x="38" y="26"/>
      <point x="48" y="69" type="curve"/>
    </contour>
  </outline>
</glyph>
<glyph name="daggerdbl" format="1">
  <advance width="246"/>
  <unicode hex="2021"/>
  <outline>
    <contour>
      <point x="233" y="138" type="line"/>
      <point x="225" y="84" type="line"/>
      <point x="133" y="84" type="line"/>
      <point x="131" y="5" type="line"/>
      <point x="97" y="-29" type="line"/>
      <point x="100" y="84" type="line"/>
      <point x="7" y="84" type="line"/>
      <point x="21" y="138" type="line"/>
      <point x="101" y="138" type="line"/>
      <point x="103" y="209" type="line"/>
      <point x="7" y="209" type="line"/>
      <point x="21" y="263" type="line"/>
      <point x="104" y="263" type="line"/>
      <point x="108" y="399" type="line"/>
      <point x="144" y="416" type="line"/>
      <point x="139" y="263" type="line"/>
      <point x="233" y="263" type="line"/>
      <point x="225" y="209" type="line"/>
      <point x="137" y="209" type="line"/>
      <point x="135" y="138" type="line"/>
    </contour>
  </outline>
</glyph>
